  0
SECTION
  2
HEADER
  9
$ACADVER
  1
AC1032
  9
$ACADMAINTVER
 90
      228
  9
$DWGCODEPAGE
  3
ANSI_1252
  9
$REQUIREDVERSIONS
160
                 0
  9
$INSBASE
 10
0.0
 20
0.0
 30
0.0
  9
$EXTMIN
 10
1.000000000000000E+20
 20
1.000000000000000E+20
 30
1.000000000000000E+20
  9
$EXTMAX
 10
-1.000000000000000E+20
 20
-1.000000000000000E+20
 30
-1.000000000000000E+20
  9
$LIMMIN
 10
0.0
 20
0.0
  9
$LIMMAX
 10
12.0
 20
9.0
  9
$ORTHOMODE
 70
     0
  9
$REGENMODE
 70
     1
  9
$FILLMODE
 70
     1
  9
$QTEXTMODE
 70
     0
  9
$MIRRTEXT
 70
     0
  9
$LTSCALE
 40
1.0
  9
$ATTMODE
 70
     1
  9
$TEXTSIZE
 40
0.2
  9
$TRACEWID
 40
0.05
  9
$TEXTSTYLE
  7
Standard
  9
$CLAYER
  8
0
  9
$CELTYPE
  6
ByLayer
  9
$CECOLOR
 62
   256
  9
$CELTSCALE
 40
1.0
  9
$DISPSILH
 70
     0
  9
$DIMSCALE
 40
1.0
  9
$DIMASZ
 40
0.18
  9
$DIMEXO
 40
0.0625
  9
$DIMDLI
 40
0.38
  9
$DIMRND
 40
0.0
  9
$DIMDLE
 40
0.0
  9
$DIMEXE
 40
0.18
  9
$DIMTP
 40
0.0
  9
$DIMTM
 40
0.0
  9
$DIMTXT
 40
0.18
  9
$DIMCEN
 40
0.09
  9
$DIMTSZ
 40
0.0
  9
$DIMTOL
 70
     0
  9
$DIMLIM
 70
     0
  9
$DIMTIH
 70
     1
  9
$DIMTOH
 70
     1
  9
$DIMSE1
 70
     0
  9
$DIMSE2
 70
     0
  9
$DIMTAD
 70
     0
  9
$DIMZIN
 70
     0
  9
$DIMBLK
  1

  9
$DIMASO
 70
     1
  9
$DIMSHO
 70
     1
  9
$DIMPOST
  1

  9
$DIMAPOST
  1

  9
$DIMALT
 70
     0
  9
$DIMALTD
 70
     2
  9
$DIMALTF
 40
25.4
  9
$DIMLFAC
 40
1.0
  9
$DIMTOFL
 70
     0
  9
$DIMTVP
 40
0.0
  9
$DIMTIX
 70
     0
  9
$DIMSOXD
 70
     0
  9
$DIMSAH
 70
     0
  9
$DIMBLK1
  1

  9
$DIMBLK2
  1

  9
$DIMSTYLE
  2
Standard
  9
$DIMCLRD
 70
     0
  9
$DIMCLRE
 70
     0
  9
$DIMCLRT
 70
     0
  9
$DIMTFAC
 40
1.0
  9
$DIMGAP
 40
0.09
  9
$DIMJUST
 70
     0
  9
$DIMSD1
 70
     0
  9
$DIMSD2
 70
     0
  9
$DIMTOLJ
 70
     1
  9
$DIMTZIN
 70
     0
  9
$DIMALTZ
 70
     0
  9
$DIMALTTZ
 70
     0
  9
$DIMUPT
 70
     0
  9
$DIMDEC
 70
     4
  9
$DIMTDEC
 70
     4
  9
$DIMALTU
 70
     2
  9
$DIMALTTD
 70
     2
  9
$DIMTXSTY
  7
Standard
  9
$DIMAUNIT
 70
     0
  9
$DIMADEC
 70
     0
  9
$DIMALTRND
 40
0.0
  9
$DIMAZIN
 70
     0
  9
$DIMDSEP
 70
    46
  9
$DIMATFIT
 70
     3
  9
$DIMFRAC
 70
     0
  9
$DIMLDRBLK
  1

  9
$DIMLUNIT
 70
     2
  9
$DIMLWD
 70
    -2
  9
$DIMLWE
 70
    -2
  9
$DIMTMOVE
 70
     0
  9
$DIMFXL
 40
1.0
  9
$DIMFXLON
 70
     0
  9
$DIMJOGANG
 40
0.7853981633974483
  9
$DIMTFILL
 70
     0
  9
$DIMTFILLCLR
 70
     0
  9
$DIMARCSYM
 70
     0
  9
$DIMLTYPE
  6

  9
$DIMLTEX1
  6

  9
$DIMLTEX2
  6

  9
$DIMTXTDIRECTION
 70
     0
  9
$LUNITS
 70
     2
  9
$LUPREC
 70
     4
  9
$SKETCHINC
 40
0.1
  9
$FILLETRAD
 40
0.0
  9
$AUNITS
 70
     0
  9
$AUPREC
 70
     0
  9
$MENU
  1
.
  9
$ELEVATION
 40
0.0
  9
$PELEVATION
 40
0.0
  9
$THICKNESS
 40
0.0
  9
$LIMCHECK
 70
     0
  9
$CHAMFERA
 40
0.0
  9
$CHAMFERB
 40
0.0
  9
$CHAMFERC
 40
0.0
  9
$CHAMFERD
 40
0.0
  9
$SKPOLY
 70
     0
  9
$TDCREATE
 40
2460397.188310185
  9
$TDUCREATE
 40
2460396.979976852
  9
$TDUPDATE
 40
2460397.188310185
  9
$TDUUPDATE
 40
2460396.979976852
  9
$TDINDWG
 40
0.0000000000
  9
$TDUSRTIMER
 40
0.0000000000
  9
$USRTIMER
 70
     1
  9
$ANGBASE
 50
0.0
  9
$ANGDIR
 70
     0
  9
$PDMODE
 70
     0
  9
$PDSIZE
 40
0.0
  9
$PLINEWID
 40
0.0
  9
$SPLFRAME
 70
     0
  9
$SPLINETYPE
 70
     6
  9
$SPLINESEGS
 70
     8
  9
$HANDSEED
  5
B5
  9
$SURFTAB1
 70
     6
  9
$SURFTAB2
 70
     6
  9
$SURFTYPE
 70
     6
  9
$SURFU
 70
     6
  9
$SURFV
 70
     6
  9
$UCSBASE
  2

  9
$UCSNAME
  2

  9
$UCSORG
 10
0.0
 20
0.0
 30
0.0
  9
$UCSXDIR
 10
1.0
 20
0.0
 30
0.0
  9
$UCSYDIR
 10
0.0
 20
1.0
 30
0.0
  9
$UCSORTHOREF
  2

  9
$UCSORTHOVIEW
 70
     0
  9
$UCSORGTOP
 10
0.0
 20
0.0
 30
0.0
  9
$UCSORGBOTTOM
 10
0.0
 20
0.0
 30
0.0
  9
$UCSORGLEFT
 10
0.0
 20
0.0
 30
0.0
  9
$UCSORGRIGHT
 10
0.0
 20
0.0
 30
0.0
  9
$UCSORGFRONT
 10
0.0
 20
0.0
 30
0.0
  9
$UCSORGBACK
 10
0.0
 20
0.0
 30
0.0
  9
$PUCSBASE
  2

  9
$PUCSNAME
  2

  9
$PUCSORG
 10
0.0
 20
0.0
 30
0.0
  9
$PUCSXDIR
 10
1.0
 20
0.0
 30
0.0
  9
$PUCSYDIR
 10
0.0
 20
1.0
 30
0.0
  9
$PUCSORTHOREF
  2

  9
$PUCSORTHOVIEW
 70
     0
  9
$PUCSORGTOP
 10
0.0
 20
0.0
 30
0.0
  9
$PUCSORGBOTTOM
 10
0.0
 20
0.0
 30
0.0
  9
$PUCSORGLEFT
 10
0.0
 20
0.0
 30
0.0
  9
$PUCSORGRIGHT
 10
0.0
 20
0.0
 30
0.0
  9
$PUCSORGFRONT
 10
0.0
 20
0.0
 30
0.0
  9
$PUCSORGBACK
 10
0.0
 20
0.0
 30
0.0
  9
$USERI1
 70
     0
  9
$USERI2
 70
     0
  9
$USERI3
 70
     0
  9
$USERI4
 70
     0
  9
$USERI5
 70
     0
  9
$USERR1
 40
0.0
  9
$USERR2
 40
0.0
  9
$USERR3
 40
0.0
  9
$USERR4
 40
0.0
  9
$USERR5
 40
0.0
  9
$WORLDVIEW
 70
     1
  9
$SHADEDGE
 70
     3
  9
$SHADEDIF
 70
    70
  9
$TILEMODE
 70
     1
  9
$MAXACTVP
 70
    64
  9
$PINSBASE
 10
0.0
 20
0.0
 30
0.0
  9
$PLIMCHECK
 70
     0
  9
$PEXTMIN
 10
1.000000000000000E+20
 20
1.000000000000000E+20
 30
1.000000000000000E+20
  9
$PEXTMAX
 10
-1.000000000000000E+20
 20
-1.000000000000000E+20
 30
-1.000000000000000E+20
  9
$PLIMMIN
 10
0.0
 20
0.0
  9
$PLIMMAX
 10
12.0
 20
9.0
  9
$UNITMODE
 70
     0
  9
$VISRETAIN
 70
     1
  9
$PLINEGEN
 70
     0
  9
$PSLTSCALE
 70
     1
  9
$TREEDEPTH
 70
  3020
  9
$CMLSTYLE
  2
Standard
  9
$CMLJUST
 70
     0
  9
$CMLSCALE
 40
1.0
  9
$PROXYGRAPHICS
 70
     1
  9
$MEASUREMENT
 70
     0
  9
$CELWEIGHT
370
    -1
  9
$ENDCAPS
280
     0
  9
$JOINSTYLE
280
     0
  9
$LWDISPLAY
290
     1
  9
$INSUNITS
 70
     1
  9
$HYPERLINKBASE
  1

  9
$STYLESHEET
  1

  9
$XEDIT
290
     1
  9
$CEPSNTYPE
380
     0
  9
$PSTYLEMODE
290
     1
  9
$FINGERPRINTGUID
  2
{9A218F0E-458B-F046-9975-4E547390DF0C}
  9
$VERSIONGUID
  2
{B4EE4E25-D392-1B4F-ADAD-D2AE65935336}
  9
$EXTNAMES
290
     1
  9
$PSVPSCALE
 40
0.0
  9
$OLESTARTUP
290
     0
  9
$SORTENTS
280
   127
  9
$INDEXCTL
280
     0
  9
$HIDETEXT
280
     1
  9
$XCLIPFRAME
280
     2
  9
$HALOGAP
280
     0
  9
$OBSCOLOR
 70
   257
  9
$OBSLTYPE
280
     0
  9
$INTERSECTIONDISPLAY
280
     0
  9
$INTERSECTIONCOLOR
 70
   257
  9
$DIMASSOC
280
     2
  9
$PROJECTNAME
  1

  9
$CAMERADISPLAY
290
     0
  9
$LENSLENGTH
 40
50.0
  9
$CAMERAHEIGHT
 40
0.0
  9
$STEPSPERSEC
 40
2.0
  9
$STEPSIZE
 40
6.0
  9
$3DDWFPREC
 40
2.0
  9
$PSOLWIDTH
 40
0.25
  9
$PSOLHEIGHT
 40
4.0
  9
$LOFTANG1
 40
1.570796326794896
  9
$LOFTANG2
 40
1.570796326794896
  9
$LOFTMAG1
 40
0.0
  9
$LOFTMAG2
 40
0.0
  9
$LOFTPARAM
 70
     7
  9
$LOFTNORMALS
280
     1
  9
$LATITUDE
 40
37.795
  9
$LONGITUDE
 40
-122.394
  9
$NORTHDIRECTION
 40
0.0
  9
$TIMEZONE
 70
 -8000
  9
$LIGHTGLYPHDISPLAY
280
     1
  9
$TILEMODELIGHTSYNCH
280
     1
  9
$CMATERIAL
347
11
  9
$SOLIDHIST
280
     0
  9
$SHOWHIST
280
     1
  9
$DWFFRAME
280
     2
  9
$DGNFRAME
280
     0
  9
$REALWORLDSCALE
290
     1
  9
$INTERFERECOLOR
 62
     1
  9
$INTERFEREOBJVS
345
33
  9
$INTERFEREVPVS
346
30
  9
$CSHADOW
280
     0
  9
$SHADOWPLANELOCATION
 40
0.0
  0
ENDSEC
  0
SECTION
  2
CLASSES
  0
CLASS
  1
ACDBDICTIONARYWDFLT
  2
AcDbDictionaryWithDefault
  3
ObjectDBX Classes
 90
        0
 91
        1
280
     0
281
     0
  0
CLASS
  1
MATERIAL
  2
AcDbMaterial
  3
ObjectDBX Classes
 90
     1153
 91
        3
280
     0
281
     0
  0
CLASS
  1
VISUALSTYLE
  2
AcDbVisualStyle
  3
ObjectDBX Classes
 90
     4095
 91
       24
280
     0
281
     0
  0
CLASS
  1
SCALE
  2
AcDbScale
  3
ObjectDBX Classes
 90
     1153
 91
       17
280
     0
281
     0
  0
CLASS
  1
TABLESTYLE
  2
AcDbTableStyle
  3
ObjectDBX Classes
 90
     4095
 91
        1
280
     0
281
     0
  0
CLASS
  1
MLEADERSTYLE
  2
AcDbMLeaderStyle
  3
ACDB_MLEADERSTYLE_CLASS
 90
     4095
 91
        1
280
     0
281
     0
  0
CLASS
  1
ACDBSECTIONVIEWSTYLE
  2
AcDbSectionViewStyle
  3
ObjectDBX Classes
 90
     1025
 91
        1
280
     0
281
     0
  0
CLASS
  1
ACDBDETAILVIEWSTYLE
  2
AcDbDetailViewStyle
  3
ObjectDBX Classes
 90
     1025
 91
        1
280
     0
281
     0
  0
CLASS
  1
DICTIONARYVAR
  2
AcDbDictionaryVar
  3
ObjectDBX Classes
 90
        0
 91
        5
280
     0
281
     0
  0
CLASS
  1
CELLSTYLEMAP
  2
AcDbCellStyleMap
  3
ObjectDBX Classes
 90
     1152
 91
        1
280
     0
281
     0
  0
ENDSEC
  0
SECTION
  2
TABLES
  0
TABLE
  2
VPORT
  5
8
330
0
100
AcDbSymbolTable
 70
     1
  0
VPORT
  5
57
330
8
100
AcDbSymbolTableRecord
100
AcDbViewportTableRecord
  2
*Active
 70
     0
 10
0.0
 20
0.0
 11
1.0
 21
1.0
 12
0.0
 22
0.0
 13
0.0
 23
0.0
 14
1.0
 24
1.0
 15
0.0
 25
0.0
 16
0.0
 26
0.0
 36
1.0
 17
8.125
 27
7.583333333333333
 37
0.0
 40
15.45583333333333
 41
1.072410632447295
 42
50.0
 43
0.0
 44
0.0
 50
0.0
 51
0.0
 71
     0
 72
   100
 73
     1
 74
     1
 75
     0
 76
     0
 77
     0
 78
     0
281
     0
 65
     1
110
0.0
120
0.0
130
0.0
111
1.0
121
0.0
131
0.0
112
0.0
122
1.0
132
0.0
 79
     0
146
0.0
 60
     3
 61
     5
292
     1
282
     1
141
0.0
142
0.0
 63
   250
421
  3355443
  0
ENDTAB
  0
TABLE
  2
LTYPE
  5
5
330
0
100
AcDbSymbolTable
 70
     1
  0
LTYPE
  5
5B
330
5
100
AcDbSymbolTableRecord
100
AcDbLinetypeTableRecord
  2
ByBlock
 70
     0
  3

 72
    65
 73
     0
 40
0.0
  0
LTYPE
  5
5C
330
5
100
AcDbSymbolTableRecord
100
AcDbLinetypeTableRecord
  2
ByLayer
 70
     0
  3

 72
    65
 73
     0
 40
0.0
  0
LTYPE
  5
5D
330
5
100
AcDbSymbolTableRecord
100
AcDbLinetypeTableRecord
  2
Continuous
 70
     0
  3
Solid line
 72
    65
 73
     0
 40
0.0
  0
ENDTAB
  0
TABLE
  2
LAYER
  5
2
330
0
100
AcDbSymbolTable
 70
     2
  0
LAYER
  5
54
330
2
100
AcDbSymbolTableRecord
100
AcDbLayerTableRecord
  2
0
 70
     0
 62
     7
  6
Continuous
370
    -3
390
F
347
21
348
0
  0
LAYER
  5
78
330
2
100
AcDbSymbolTableRecord
100
AcDbLayerTableRecord
  2
Layer 1
 70
     0
 62
     7
  6
Continuous
370
     0
390
F
347
21
348
0
  0
ENDTAB
  0
TABLE
  2
STYLE
  5
3
330
0
100
AcDbSymbolTable
 70
     2
  0
STYLE
  5
55
330
3
100
AcDbSymbolTableRecord
100
AcDbTextStyleTableRecord
  2
Standard
 70
     0
 40
0.0
 41
1.0
 50
0.0
 71
     0
 42
0.2
  3
txt
  4

  0
STYLE
  5
5A
330
3
100
AcDbSymbolTableRecord
100
AcDbTextStyleTableRecord
  2
Annotative
 70
     0
 40
0.0
 41
1.0
 50
0.0
 71
     0
 42
0.2
  3
txt
  4

1001
AcadAnnotative
1000
AnnotativeData
1002
{
1070
     1
1070
     1
1002
}
  0
ENDTAB
  0
TABLE
  2
VIEW
  5
6
330
0
100
AcDbSymbolTable
 70
     0
  0
ENDTAB
  0
TABLE
  2
UCS
  5
7
330
0
100
AcDbSymbolTable
 70
     0
  0
ENDTAB
  0
TABLE
  2
APPID
  5
9
330
0
100
AcDbSymbolTable
 70
     2
  0
APPID
  5
56
330
9
100
AcDbSymbolTableRecord
100
AcDbRegAppTableRecord
  2
ACAD
 70
     0
  0
APPID
  5
5E
330
9
100
AcDbSymbolTableRecord
100
AcDbRegAppTableRecord
  2
AcadAnnotative
 70
     0
  0
ENDTAB
  0
TABLE
  2
DIMSTYLE
  5
A
330
0
100
AcDbSymbolTable
 70
     2
100
AcDbDimStyleTable
 71
     0
  0
DIMSTYLE
105
58
330
A
100
AcDbSymbolTableRecord
100
AcDbDimStyleTableRecord
  2
Standard
 70
     0
340
55
  0
DIMSTYLE
105
59
330
A
100
AcDbSymbolTableRecord
100
AcDbDimStyleTableRecord
  2
Annotative
 70
     0
340
55
1001
AcadAnnotative
1000
AnnotativeData
1002
{
1070
     1
1070
     1
1002
}
  0
ENDTAB
  0
TABLE
  2
BLOCK_RECORD
  5
1
330
0
100
AcDbSymbolTable
 70
     2
  0
BLOCK_RECORD
  5
70
330
1
100
AcDbSymbolTableRecord
100
AcDbBlockTableRecord
  2
*Model_Space
340
73
 70
     0
280
     1
281
     0
  0
BLOCK_RECORD
  5
6C
330
1
100
AcDbSymbolTableRecord
100
AcDbBlockTableRecord
  2
*Paper_Space
340
6F
 70
     0
280
     1
281
     0
  0
BLOCK_RECORD
  5
74
330
1
100
AcDbSymbolTableRecord
100
AcDbBlockTableRecord
  2
*Paper_Space0
340
77
 70
     0
280
     1
281
     0
  0
BLOCK_RECORD
  5
79
330
1
100
AcDbSymbolTableRecord
100
AcDbBlockTableRecord
  2
Block_0
340
0
102
{BLKREFS
331
7A
102
}
 70
     0
280
     1
281
     0
  0
ENDTAB
  0
ENDSEC
  0
SECTION
  2
BLOCKS
  0
BLOCK
  5
71
330
70
100
AcDbEntity
  8
0
100
AcDbBlockBegin
  2
*Model_Space
 70
     0
 10
0.0
 20
0.0
 30
0.0
  3
*Model_Space
  1

  0
ENDBLK
  5
72
330
70
100
AcDbEntity
  8
0
100
AcDbBlockEnd
  0
BLOCK
  5
6D
330
6C
100
AcDbEntity
 67
     1
  8
0
100
AcDbBlockBegin
  2
*Paper_Space
 70
     0
 10
0.0
 20
0.0
 30
0.0
  3
*Paper_Space
  1

  0
ENDBLK
  5
6E
330
6C
100
AcDbEntity
 67
     1
  8
0
100
AcDbBlockEnd
  0
BLOCK
  5
75
330
74
100
AcDbEntity
 67
     1
  8
0
100
AcDbBlockBegin
  2
*Paper_Space0
 70
     0
 10
0.0
 20
0.0
 30
0.0
  3
*Paper_Space0
  1

  0
ENDBLK
  5
76
330
74
100
AcDbEntity
 67
     1
  8
0
100
AcDbBlockEnd
  0
BLOCK
  5
7B
330
79
100
AcDbEntity
  8
0
100
AcDbBlockBegin
  2
Block_0
 70
     0
 10
0.0
 20
0.0
 30
0.0
  3
Block_0
  1

  0
SPLINE
  5
7D
330
79
100
AcDbEntity
  8
Layer 1
100
AcDbSpline
210
0.0
220
0.0
230
1.0
 70
     9
 71
     3
 72
    32
 73
    28
 74
     0
 42
0.0000000001
 43
0.0000000001
 40
0.0
 40
0.0
 40
0.0
 40
0.0
 40
1.0
 40
1.0
 40
1.0
 40
2.0
 40
2.0
 40
2.0
 40
3.0
 40
3.0
 40
3.0
 40
4.0
 40
4.0
 40
4.0
 40
5.0
 40
5.0
 40
5.0
 40
6.0
 40
6.0
 40
6.0
 40
7.0
 40
7.0
 40
7.0
 40
8.0
 40
8.0
 40
8.0
 40
9.0
 40
9.0
 40
9.0
 40
9.0
 10
8.113348724100243
 20
12.04216567415091
 30
0.0
 10
8.113741846614894
 20
12.08776788585119
 30
0.0
 10
8.128090818399881
 20
12.13160104623549
 30
0.0
 10
8.13909824881029
 20
12.17523764536248
 30
0.0
 10
8.178410500276021
 20
12.05553183964928
 30
0.0
 10
8.161702793403074
 20
11.92894638992955
 30
0.0
 10
8.165044334777665
 20
11.80550592032711
 30
0.0
 10
8.15875437454315
 20
11.3730711542039
 30
0.0
 10
8.177231132732053
 20
10.93985014305136
 30
0.0
 10
8.151874730536645
 20
10.50820162195747
 30
0.0
 10
8.152464414308647
 20
9.794684257854138
 30
0.0
 10
8.151481608021994
 20
9.081363455008146
 30
0.0
 10
8.150891924250016
 20
8.367846090904839
 30
0.0
 10
8.140867300126249
 20
8.370008264735474
 30
0.0
 10
8.1208180518787
 20
8.374529173654018
 30
0.0
 10
8.110793427754945
 20
8.376691347484653
 30
0.0
 10
8.106272518836375
 20
8.484800039015453
 30
0.0
 10
8.118655878048077
 20
8.59251560803159
 30
0.0
 10
8.123569909481311
 20
8.699838054533087
 30
0.0
 10
8.082881729214275
 20
8.954974566545779
 30
0.0
 10
8.148533189162055
 20
9.21148700735979
 30
0.0
 10
8.113152162842879
 20
9.46603383560048
 30
0.0
 10
8.099785997344547
 20
9.774438448349288
 30
0.0
 10
8.149712556706036
 20
10.08244993858342
 30
0.0
 10
8.113348724100243
 20
10.39006830630287
 30
0.0
 10
8.112955601585554
 20
10.94063638808068
 30
0.0
 10
8.113741846614894
 20
11.49140103111581
 30
0.0
 10
8.113348724100243
 20
12.04216567415091
 30
0.0
  0
HATCH
  5
7E
330
79
100
AcDbEntity
  8
Layer 1
 62
    18
420
        0
440
 33554687
100
AcDbHatch
 10
0.0
 20
0.0
 30
0.0
210
0.0
220
0.0
230
1.0
  2
SOLID
 70
     1
 71
     1
 91
        1
 92
        1
 93
        1
 72
     4
 94
        3
 73
     0
 74
     0
 95
       32
 96
       28
 40
0.0
 40
0.0
 40
0.0
 40
0.0
 40
1.0
 40
1.0
 40
1.0
 40
2.0
 40
2.0
 40
2.0
 40
3.0
 40
3.0
 40
3.0
 40
4.0
 40
4.0
 40
4.0
 40
5.0
 40
5.0
 40
5.0
 40
6.0
 40
6.0
 40
6.0
 40
7.0
 40
7.0
 40
7.0
 40
8.0
 40
8.0
 40
8.0
 40
9.0
 40
9.0
 40
9.0
 40
9.0
 10
8.113348724100243
 20
12.04216567415091
 10
8.113741846614894
 20
12.08776788585119
 10
8.128090818399881
 20
12.13160104623549
 10
8.13909824881029
 20
12.17523764536248
 10
8.178410500276021
 20
12.05553183964928
 10
8.161702793403074
 20
11.92894638992955
 10
8.165044334777665
 20
11.80550592032711
 10
8.15875437454315
 20
11.3730711542039
 10
8.177231132732053
 20
10.93985014305136
 10
8.151874730536645
 20
10.50820162195747
 10
8.152464414308647
 20
9.794684257854138
 10
8.151481608021994
 20
9.081363455008146
 10
8.150891924250016
 20
8.367846090904839
 10
8.140867300126249
 20
8.370008264735474
 10
8.1208180518787
 20
8.374529173654018
 10
8.110793427754945
 20
8.376691347484653
 10
8.106272518836375
 20
8.484800039015453
 10
8.118655878048077
 20
8.59251560803159
 10
8.123569909481311
 20
8.699838054533087
 10
8.082881729214275
 20
8.954974566545779
 10
8.148533189162055
 20
9.21148700735979
 10
8.113152162842879
 20
9.46603383560048
 10
8.099785997344547
 20
9.774438448349288
 10
8.149712556706036
 20
10.08244993858342
 10
8.113348724100243
 20
10.39006830630287
 10
8.112955601585554
 20
10.94063638808068
 10
8.113741846614894
 20
11.49140103111581
 10
8.113348724100243
 20
12.04216567415091
 97
        0
 97
        1
330
7D
 75
     2
 76
     1
 98
        1
 10
0.0
 20
0.0
450
        0
451
        0
460
0.0
461
0.0
452
        0
462
0.0
453
        0
470

  0
SPLINE
  5
7F
330
79
100
AcDbEntity
  8
Layer 1
100
AcDbSpline
210
0.0
220
0.0
230
1.0
 70
     9
 71
     3
 72
    41
 73
    37
 74
     0
 42
0.0000000001
 43
0.0000000001
 40
0.0
 40
0.0
 40
0.0
 40
0.0
 40
1.0
 40
1.0
 40
1.0
 40
2.0
 40
2.0
 40
2.0
 40
3.0
 40
3.0
 40
3.0
 40
4.0
 40
4.0
 40
4.0
 40
5.0
 40
5.0
 40
5.0
 40
6.0
 40
6.0
 40
6.0
 40
7.0
 40
7.0
 40
7.0
 40
8.0
 40
8.0
 40
8.0
 40
9.0
 40
9.0
 40
9.0
 40
10.0
 40
10.0
 40
10.0
 40
11.0
 40
11.0
 40
11.0
 40
12.0
 40
12.0
 40
12.0
 40
12.0
 10
9.905790829680983
 20
10.25483416126072
 30
0.0
 10
10.27493287094434
 20
10.41876624987287
 30
0.0
 10
10.687908072592
 20
10.45119885733212
 30
0.0
 10
11.08732054748402
 20
10.43783269183378
 30
0.0
 10
11.52604527384174
 20
10.43979830440707
 30
0.0
 10
11.95317288601707
 20
10.3259893364137
 30
0.0
 10
12.3738139767006
 20
10.21709439985361
 30
0.0
 10
12.37479678298722
 20
9.986134922492357
 30
0.0
 10
12.37735207933249
 20
9.755372006388407
 30
0.0
 10
12.3732242929286
 20
9.524412529027143
 30
0.0
 10
12.31052125184072
 20
9.524019406512479
 30
0.0
 10
12.29322386119581
 20
9.586525886343009
 30
0.0
 10
12.26668809145642
 20
9.630359046727322
 30
0.0
 10
12.06285406760651
 20
10.00343231313727
 30
0.0
 10
11.68408052473405
 20
10.27291779693495
 30
0.0
 10
11.26501192410916
 20
10.34426953334529
 30
0.0
 10
10.82687688152343
 20
10.43311522165791
 30
0.0
 10
10.35041239375857
 20
10.36785688422474
 30
0.0
 10
9.963383278078278
 20
10.13945270320875
 30
0.0
 10
9.579695703772586
 20
9.916552237397947
 30
0.0
 10
9.329080100678437
 20
9.446967393639598
 30
0.0
 10
9.439744088554535
 20
9.004901125907281
 30
0.0
 10
9.527410409323161
 20
8.713007658774118
 30
0.0
 10
9.785691901453118
 20
8.506421777321595
 30
0.0
 10
10.05498082399347
 20
8.38769877789505
 30
0.0
 10
10.05694643656676
 20
8.370008264735474
 30
0.0
 10
10.05930517165473
 20
8.352121190318559
 30
0.0
 10
10.06166390674265
 20
8.334234115901621
 30
0.0
 10
9.830704429381398
 20
8.336199728474916
 30
0.0
 10
9.599744952020133
 20
8.334627238416297
 30
0.0
 10
9.36898203591617
 20
8.334430677158959
 30
0.0
 10
9.039348807375896
 20
8.640279993562469
 30
0.0
 10
8.962296794503041
 20
9.164312305600889
 30
0.0
 10
9.152174969082592
 20
9.565493831808831
 30
0.0
 10
9.295075003160592
 20
9.886281803769342
 30
0.0
 10
9.585002857720484
 20
10.12431748639442
 30
0.0
 10
9.905790829680983
 20
10.25483416126072
 30
0.0
  0
HATCH
  5
80
330
79
100
AcDbEntity
  8
Layer 1
 62
    18
420
        0
440
 33554687
100
AcDbHatch
 10
0.0
 20
0.0
 30
0.0
210
0.0
220
0.0
230
1.0
  2
SOLID
 70
     1
 71
     1
 91
        1
 92
        1
 93
        1
 72
     4
 94
        3
 73
     0
 74
     0
 95
       41
 96
       37
 40
0.0
 40
0.0
 40
0.0
 40
0.0
 40
1.0
 40
1.0
 40
1.0
 40
2.0
 40
2.0
 40
2.0
 40
3.0
 40
3.0
 40
3.0
 40
4.0
 40
4.0
 40
4.0
 40
5.0
 40
5.0
 40
5.0
 40
6.0
 40
6.0
 40
6.0
 40
7.0
 40
7.0
 40
7.0
 40
8.0
 40
8.0
 40
8.0
 40
9.0
 40
9.0
 40
9.0
 40
10.0
 40
10.0
 40
10.0
 40
11.0
 40
11.0
 40
11.0
 40
12.0
 40
12.0
 40
12.0
 40
12.0
 10
9.905790829680983
 20
10.25483416126072
 10
10.27493287094434
 20
10.41876624987287
 10
10.687908072592
 20
10.45119885733212
 10
11.08732054748402
 20
10.43783269183378
 10
11.52604527384174
 20
10.43979830440707
 10
11.95317288601707
 20
10.3259893364137
 10
12.3738139767006
 20
10.21709439985361
 10
12.37479678298722
 20
9.986134922492357
 10
12.37735207933249
 20
9.755372006388407
 10
12.3732242929286
 20
9.524412529027143
 10
12.31052125184072
 20
9.524019406512479
 10
12.29322386119581
 20
9.586525886343009
 10
12.26668809145642
 20
9.630359046727322
 10
12.06285406760651
 20
10.00343231313727
 10
11.68408052473405
 20
10.27291779693495
 10
11.26501192410916
 20
10.34426953334529
 10
10.82687688152343
 20
10.43311522165791
 10
10.35041239375857
 20
10.36785688422474
 10
9.963383278078278
 20
10.13945270320875
 10
9.579695703772586
 20
9.916552237397947
 10
9.329080100678437
 20
9.446967393639598
 10
9.439744088554535
 20
9.004901125907281
 10
9.527410409323161
 20
8.713007658774118
 10
9.785691901453118
 20
8.506421777321595
 10
10.05498082399347
 20
8.38769877789505
 10
10.05694643656676
 20
8.370008264735474
 10
10.05930517165473
 20
8.352121190318559
 10
10.06166390674265
 20
8.334234115901621
 10
9.830704429381398
 20
8.336199728474916
 10
9.599744952020133
 20
8.334627238416297
 10
9.36898203591617
 20
8.334430677158959
 10
9.039348807375896
 20
8.640279993562469
 10
8.962296794503041
 20
9.164312305600889
 10
9.152174969082592
 20
9.565493831808831
 10
9.295075003160592
 20
9.886281803769342
 10
9.585002857720484
 20
10.12431748639442
 10
9.905790829680983
 20
10.25483416126072
 97
        0
 97
        1
330
7F
 75
     2
 76
     1
 98
        1
 10
0.0
 20
0.0
450
        0
451
        0
460
0.0
461
0.0
452
        0
462
0.0
453
        0
470

  0
SPLINE
  5
81
330
79
100
AcDbEntity
  8
Layer 1
100
AcDbSpline
210
0.0
220
0.0
230
1.0
 70
     9
 71
     3
 72
    47
 73
    43
 74
     0
 42
0.0000000001
 43
0.0000000001
 40
0.0
 40
0.0
 40
0.0
 40
0.0
 40
1.0
 40
1.0
 40
1.0
 40
2.0
 40
2.0
 40
2.0
 40
3.0
 40
3.0
 40
3.0
 40
4.0
 40
4.0
 40
4.0
 40
5.0
 40
5.0
 40
5.0
 40
6.0
 40
6.0
 40
6.0
 40
7.0
 40
7.0
 40
7.0
 40
8.0
 40
8.0
 40
8.0
 40
9.0
 40
9.0
 40
9.0
 40
10.0
 40
10.0
 40
10.0
 40
11.0
 40
11.0
 40
11.0
 40
12.0
 40
12.0
 40
12.0
 40
13.0
 40
13.0
 40
13.0
 40
14.0
 40
14.0
 40
14.0
 40
14.0
 10
3.404527243533006
 20
10.34269704328666
 30
0.0
 10
4.623993284000485
 20
10.3368002055668
 30
0.0
 10
5.844049008239935
 20
10.3483973197492
 30
0.0
 10
7.063121926192795
 20
10.3368002055668
 30
0.0
 10
7.072949989059211
 20
10.10898570832281
 30
0.0
 10
7.065480661280717
 20
9.880581527306793
 30
0.0
 10
7.066660028824697
 20
9.652570468805466
 30
0.0
 10
7.05388354709833
 20
9.658663867782655
 30
0.0
 10
7.028527144902934
 20
9.671047226994371
 30
0.0
 10
7.015750663176567
 20
9.677140625971572
 30
0.0
 10
7.003367303964851
 20
9.832817141775914
 30
0.0
 10
6.869312526466627
 20
9.939943027020085
 30
0.0
 10
6.741744270460293
 20
10.00873946708514
 30
0.0
 10
6.439826179203363
 20
10.1691334530654
 30
0.0
 10
6.095450856363387
 20
10.22023937997087
 30
0.0
 10
5.761100157647231
 20
10.26210692778186
 30
0.0
 10
5.542917162012321
 20
10.24933044605552
 30
0.0
 10
5.329844759067971
 20
10.31183692588606
 30
0.0
 10
5.112054885947738
 20
10.30082949547564
 30
0.0
 10
4.852594026273814
 20
10.30141917924762
 30
0.0
 10
4.593133166599892
 20
10.29886388290237
 30
0.0
 10
4.333672306925929
 20
10.30200886301962
 30
0.0
 10
4.314016181193064
 20
10.27566965453755
 30
0.0
 10
4.278438593616556
 20
10.25365479371674
 30
0.0
 10
4.280797328704516
 20
10.21689783859627
 30
0.0
 10
4.277848909844591
 20
9.589670866460272
 30
0.0
 10
4.283549186307134
 20
8.962247333066947
 30
0.0
 10
4.277652348587265
 20
8.334823799673623
 30
0.0
 10
4.133179824450634
 20
8.335610044702926
 30
0.0
 10
3.988903861571334
 20
8.332268503328362
 30
0.0
 10
3.84462789869206
 20
8.336592850989593
 30
0.0
 10
3.841876041089442
 20
8.614923591367073
 30
0.0
 10
3.843645092405413
 20
8.893254331744552
 30
0.0
 10
3.842858847376096
 20
9.171585072122043
 30
0.0
 10
3.803546595910353
 20
9.489817747737294
 30
0.0
 10
3.870573984659434
 20
9.836158683150516
 30
0.0
 10
3.703496915930012
 20
10.1274624665117
 30
0.0
 10
3.648263202620644
 20
10.23655396432915
 30
0.0
 10
3.522070875415598
 20
10.27291779693495
 30
0.0
 10
3.409048152451564
 20
10.2841217886027
 30
0.0
 10
3.408065346164915
 20
10.29866732164502
 30
0.0
 10
3.405706611076974
 20
10.32815151024433
 30
0.0
 10
3.404527243533006
 20
10.34269704328666
 30
0.0
  0
HATCH
  5
82
330
79
100
AcDbEntity
  8
Layer 1
 62
    18
420
        0
440
 33554687
100
AcDbHatch
 10
0.0
 20
0.0
 30
0.0
210
0.0
220
0.0
230
1.0
  2
SOLID
 70
     1
 71
     1
 91
        1
 92
        1
 93
        1
 72
     4
 94
        3
 73
     0
 74
     0
 95
       47
 96
       43
 40
0.0
 40
0.0
 40
0.0
 40
0.0
 40
1.0
 40
1.0
 40
1.0
 40
2.0
 40
2.0
 40
2.0
 40
3.0
 40
3.0
 40
3.0
 40
4.0
 40
4.0
 40
4.0
 40
5.0
 40
5.0
 40
5.0
 40
6.0
 40
6.0
 40
6.0
 40
7.0
 40
7.0
 40
7.0
 40
8.0
 40
8.0
 40
8.0
 40
9.0
 40
9.0
 40
9.0
 40
10.0
 40
10.0
 40
10.0
 40
11.0
 40
11.0
 40
11.0
 40
12.0
 40
12.0
 40
12.0
 40
13.0
 40
13.0
 40
13.0
 40
14.0
 40
14.0
 40
14.0
 40
14.0
 10
3.404527243533006
 20
10.34269704328666
 10
4.623993284000485
 20
10.3368002055668
 10
5.844049008239935
 20
10.3483973197492
 10
7.063121926192795
 20
10.3368002055668
 10
7.072949989059211
 20
10.10898570832281
 10
7.065480661280717
 20
9.880581527306793
 10
7.066660028824697
 20
9.652570468805466
 10
7.05388354709833
 20
9.658663867782655
 10
7.028527144902934
 20
9.671047226994371
 10
7.015750663176567
 20
9.677140625971572
 10
7.003367303964851
 20
9.832817141775914
 10
6.869312526466627
 20
9.939943027020085
 10
6.741744270460293
 20
10.00873946708514
 10
6.439826179203363
 20
10.1691334530654
 10
6.095450856363387
 20
10.22023937997087
 10
5.761100157647231
 20
10.26210692778186
 10
5.542917162012321
 20
10.24933044605552
 10
5.329844759067971
 20
10.31183692588606
 10
5.112054885947738
 20
10.30082949547564
 10
4.852594026273814
 20
10.30141917924762
 10
4.593133166599892
 20
10.29886388290237
 10
4.333672306925929
 20
10.30200886301962
 10
4.314016181193064
 20
10.27566965453755
 10
4.278438593616556
 20
10.25365479371674
 10
4.280797328704516
 20
10.21689783859627
 10
4.277848909844591
 20
9.589670866460272
 10
4.283549186307134
 20
8.962247333066947
 10
4.277652348587265
 20
8.334823799673623
 10
4.133179824450634
 20
8.335610044702926
 10
3.988903861571334
 20
8.332268503328362
 10
3.84462789869206
 20
8.336592850989593
 10
3.841876041089442
 20
8.614923591367073
 10
3.843645092405413
 20
8.893254331744552
 10
3.842858847376096
 20
9.171585072122043
 10
3.803546595910353
 20
9.489817747737294
 10
3.870573984659434
 20
9.836158683150516
 10
3.703496915930012
 20
10.1274624665117
 10
3.648263202620644
 20
10.23655396432915
 10
3.522070875415598
 20
10.27291779693495
 10
3.409048152451564
 20
10.2841217886027
 10
3.408065346164915
 20
10.29866732164502
 10
3.405706611076974
 20
10.32815151024433
 10
3.404527243533006
 20
10.34269704328666
 97
        0
 97
        1
330
81
 75
     2
 76
     1
 98
        1
 10
0.0
 20
0.0
450
        0
451
        0
460
0.0
461
0.0
452
        0
462
0.0
453
        0
470

  0
SPLINE
  5
83
330
79
100
AcDbEntity
  8
Layer 1
100
AcDbSpline
210
0.0
220
0.0
230
1.0
 70
     9
 71
     3
 72
    41
 73
    37
 74
     0
 42
0.0000000001
 43
0.0000000001
 40
0.0
 40
0.0
 40
0.0
 40
0.0
 40
1.0
 40
1.0
 40
1.0
 40
2.0
 40
2.0
 40
2.0
 40
3.0
 40
3.0
 40
3.0
 40
4.0
 40
4.0
 40
4.0
 40
5.0
 40
5.0
 40
5.0
 40
6.0
 40
6.0
 40
6.0
 40
7.0
 40
7.0
 40
7.0
 40
8.0
 40
8.0
 40
8.0
 40
9.0
 40
9.0
 40
9.0
 40
10.0
 40
10.0
 40
10.0
 40
11.0
 40
11.0
 40
11.0
 40
12.0
 40
12.0
 40
12.0
 40
12.0
 10
1.741225884017239
 20
7.922634843055245
 30
0.0
 10
1.859948883443798
 20
7.925779823172521
 30
0.0
 10
1.97867188287035
 20
7.923814210599238
 30
0.0
 10
2.097591443554228
 20
7.924403894371216
 30
0.0
 10
2.097001759782251
 20
7.904944329895682
 30
0.0
 10
2.096805198524912
 20
7.885288204162811
 30
0.0
 10
2.096608637267593
 20
7.865632078429926
 30
0.0
 10
1.996952079801916
 20
7.867401129745871
 30
0.0
 10
1.897295522336252
 20
7.866811445973894
 30
0.0
 10
1.797638964870587
 20
7.866221762201917
 30
0.0
 10
1.797638964870587
 20
7.799980618482132
 30
0.0
 10
1.798228648642565
 20
7.733739474762336
 30
0.0
 10
1.799801138701196
 20
7.667498331042552
 30
0.0
 10
1.891595245873708
 20
7.668481137329195
 30
0.0
 10
1.983389353046239
 20
7.66730176978524
 30
0.0
 10
2.075380021476083
 20
7.668677698586533
 30
0.0
 10
2.076166266505399
 20
7.654525288058859
 30
0.0
 10
2.077935317821356
 20
7.626023905746174
 30
0.0
 10
2.078918124108011
 20
7.611674933961213
 30
0.0
 10
1.984961843104864
 20
7.611478372703875
 30
0.0
 10
1.891005562101731
 20
7.611478372703875
 30
0.0
 10
1.797245842355929
 20
7.611281811446537
 30
0.0
 10
1.797245842355929
 20
7.544057861440111
 30
0.0
 10
1.797835526127913
 20
7.476833911433673
 30
0.0
 10
1.799014893671881
 20
7.409609961427236
 30
0.0
 10
1.895133348505636
 20
7.407644348853964
 30
0.0
 10
1.991251803339385
 20
7.411772135257869
 30
0.0
 10
2.087370258173141
 20
7.409020277655271
 30
0.0
 10
2.125699703352248
 20
7.421010514352347
 30
0.0
 10
2.168550057449913
 20
7.353000319316556
 30
0.0
 10
2.108205751449986
 20
7.356538421948483
 30
0.0
 10
1.985748088134174
 20
7.351231268000648
 30
0.0
 10
1.863093863561042
 20
7.355555615661854
 30
0.0
 10
1.740636200245249
 20
7.354572809375225
 30
0.0
 10
1.726090667202918
 20
7.544450983954801
 30
0.0
 10
1.740046516473259
 20
7.732363545961042
 30
0.0
 10
1.741225884017239
 20
7.922634843055245
 30
0.0
  0
HATCH
  5
84
330
79
100
AcDbEntity
  8
Layer 1
 62
    18
420
        0
440
 33554687
100
AcDbHatch
 10
0.0
 20
0.0
 30
0.0
210
0.0
220
0.0
230
1.0
  2
SOLID
 70
     1
 71
     1
 91
        1
 92
        1
 93
        1
 72
     4
 94
        3
 73
     0
 74
     0
 95
       41
 96
       37
 40
0.0
 40
0.0
 40
0.0
 40
0.0
 40
1.0
 40
1.0
 40
1.0
 40
2.0
 40
2.0
 40
2.0
 40
3.0
 40
3.0
 40
3.0
 40
4.0
 40
4.0
 40
4.0
 40
5.0
 40
5.0
 40
5.0
 40
6.0
 40
6.0
 40
6.0
 40
7.0
 40
7.0
 40
7.0
 40
8.0
 40
8.0
 40
8.0
 40
9.0
 40
9.0
 40
9.0
 40
10.0
 40
10.0
 40
10.0
 40
11.0
 40
11.0
 40
11.0
 40
12.0
 40
12.0
 40
12.0
 40
12.0
 10
1.741225884017239
 20
7.922634843055245
 10
1.859948883443798
 20
7.925779823172521
 10
1.97867188287035
 20
7.923814210599238
 10
2.097591443554228
 20
7.924403894371216
 10
2.097001759782251
 20
7.904944329895682
 10
2.096805198524912
 20
7.885288204162811
 10
2.096608637267593
 20
7.865632078429926
 10
1.996952079801916
 20
7.867401129745871
 10
1.897295522336252
 20
7.866811445973894
 10
1.797638964870587
 20
7.866221762201917
 10
1.797638964870587
 20
7.799980618482132
 10
1.798228648642565
 20
7.733739474762336
 10
1.799801138701196
 20
7.667498331042552
 10
1.891595245873708
 20
7.668481137329195
 10
1.983389353046239
 20
7.66730176978524
 10
2.075380021476083
 20
7.668677698586533
 10
2.076166266505399
 20
7.654525288058859
 10
2.077935317821356
 20
7.626023905746174
 10
2.078918124108011
 20
7.611674933961213
 10
1.984961843104864
 20
7.611478372703875
 10
1.891005562101731
 20
7.611478372703875
 10
1.797245842355929
 20
7.611281811446537
 10
1.797245842355929
 20
7.544057861440111
 10
1.797835526127913
 20
7.476833911433673
 10
1.799014893671881
 20
7.409609961427236
 10
1.895133348505636
 20
7.407644348853964
 10
1.991251803339385
 20
7.411772135257869
 10
2.087370258173141
 20
7.409020277655271
 10
2.125699703352248
 20
7.421010514352347
 10
2.168550057449913
 20
7.353000319316556
 10
2.108205751449986
 20
7.356538421948483
 10
1.985748088134174
 20
7.351231268000648
 10
1.863093863561042
 20
7.355555615661854
 10
1.740636200245249
 20
7.354572809375225
 10
1.726090667202918
 20
7.544450983954801
 10
1.740046516473259
 20
7.732363545961042
 10
1.741225884017239
 20
7.922634843055245
 97
        0
 97
        1
330
83
 75
     2
 76
     1
 98
        1
 10
0.0
 20
0.0
450
        0
451
        0
460
0.0
461
0.0
452
        0
462
0.0
453
        0
470

  0
SPLINE
  5
85
330
79
100
AcDbEntity
  8
Layer 1
100
AcDbSpline
210
0.0
220
0.0
230
1.0
 70
     9
 71
     3
 72
    23
 73
    19
 74
     0
 42
0.0000000001
 43
0.0000000001
 40
0.0
 40
0.0
 40
0.0
 40
0.0
 40
1.0
 40
1.0
 40
1.0
 40
2.0
 40
2.0
 40
2.0
 40
3.0
 40
3.0
 40
3.0
 40
4.0
 40
4.0
 40
4.0
 40
5.0
 40
5.0
 40
5.0
 40
6.0
 40
6.0
 40
6.0
 40
6.0
 10
2.548109845351701
 20
7.921258914253964
 30
0.0
 10
2.558331030732789
 20
7.922438281797932
 30
0.0
 10
2.57877340149497
 20
7.924600455628554
 30
0.0
 10
2.588994586876076
 20
7.925583261915183
 30
0.0
 10
2.621034071820651
 20
7.756344019355146
 30
0.0
 10
2.595874230882575
 20
7.582190745361875
 30
0.0
 10
2.604326364947717
 20
7.41059276771389
 30
0.0
 10
2.706341657501335
 20
7.415113676632472
 30
0.0
 10
2.807570705025631
 20
7.402140633648754
 30
0.0
 10
2.908799752549927
 20
7.393295377068966
 30
0.0
 10
2.906834139976644
 20
7.383467314202536
 30
0.0
 10
2.902902914830058
 20
7.36381118846964
 30
0.0
 10
2.900937302256781
 20
7.353983125603222
 30
0.0
 10
2.783000547859545
 20
7.355359054404528
 30
0.0
 10
2.664867232204964
 20
7.354376248117887
 30
0.0
 10
2.546930477807715
 20
7.354965931889851
 30
0.0
 10
2.549289212895669
 20
7.54366473892546
 30
0.0
 10
2.54516142649177
 20
7.732560107218368
 30
0.0
 10
2.548109845351701
 20
7.921258914253964
 30
0.0
  0
HATCH
  5
86
330
79
100
AcDbEntity
  8
Layer 1
 62
    18
420
        0
440
 33554687
100
AcDbHatch
 10
0.0
 20
0.0
 30
0.0
210
0.0
220
0.0
230
1.0
  2
SOLID
 70
     1
 71
     1
 91
        1
 92
        1
 93
        1
 72
     4
 94
        3
 73
     0
 74
     0
 95
       23
 96
       19
 40
0.0
 40
0.0
 40
0.0
 40
0.0
 40
1.0
 40
1.0
 40
1.0
 40
2.0
 40
2.0
 40
2.0
 40
3.0
 40
3.0
 40
3.0
 40
4.0
 40
4.0
 40
4.0
 40
5.0
 40
5.0
 40
5.0
 40
6.0
 40
6.0
 40
6.0
 40
6.0
 10
2.548109845351701
 20
7.921258914253964
 10
2.558331030732789
 20
7.922438281797932
 10
2.57877340149497
 20
7.924600455628554
 10
2.588994586876076
 20
7.925583261915183
 10
2.621034071820651
 20
7.756344019355146
 10
2.595874230882575
 20
7.582190745361875
 10
2.604326364947717
 20
7.41059276771389
 10
2.706341657501335
 20
7.415113676632472
 10
2.807570705025631
 20
7.402140633648754
 10
2.908799752549927
 20
7.393295377068966
 10
2.906834139976644
 20
7.383467314202536
 10
2.902902914830058
 20
7.36381118846964
 10
2.900937302256781
 20
7.353983125603222
 10
2.783000547859545
 20
7.355359054404528
 10
2.664867232204964
 20
7.354376248117887
 10
2.546930477807715
 20
7.354965931889851
 10
2.549289212895669
 20
7.54366473892546
 10
2.54516142649177
 20
7.732560107218368
 10
2.548109845351701
 20
7.921258914253964
 97
        0
 97
        1
330
85
 75
     2
 76
     1
 98
        1
 10
0.0
 20
0.0
450
        0
451
        0
460
0.0
461
0.0
452
        0
462
0.0
453
        0
470

  0
SPLINE
  5
87
330
79
100
AcDbEntity
  8
Layer 1
100
AcDbSpline
210
0.0
220
0.0
230
1.0
 70
     9
 71
     3
 72
    29
 73
    25
 74
     0
 42
0.0000000001
 43
0.0000000001
 40
0.0
 40
0.0
 40
0.0
 40
0.0
 40
1.0
 40
1.0
 40
1.0
 40
2.0
 40
2.0
 40
2.0
 40
3.0
 40
3.0
 40
3.0
 40
4.0
 40
4.0
 40
4.0
 40
5.0
 40
5.0
 40
5.0
 40
6.0
 40
6.0
 40
6.0
 40
7.0
 40
7.0
 40
7.0
 40
8.0
 40
8.0
 40
8.0
 40
8.0
 10
3.706641896047276
 20
7.92420733311389
 30
0.0
 10
3.856225012874428
 20
7.924797016885854
 30
0.0
 10
4.006004690958926
 20
7.924797016885854
 30
0.0
 10
4.155784369043443
 20
7.923027965569909
 30
0.0
 10
4.155587807786105
 20
7.904551207381005
 30
0.0
 10
4.155587807786105
 20
7.885877887934775
 30
0.0
 10
4.155587807786105
 20
7.86720456848857
 30
0.0
 10
4.090526031610295
 20
7.86720456848857
 30
0.0
 10
4.025267694177147
 20
7.866418323459242
 30
0.0
 10
3.960402479258662
 20
7.865435517172613
 30
0.0
 10
3.958043744170733
 20
7.704255286163035
 30
0.0
 10
3.961581846802636
 20
7.542681932638806
 30
0.0
 10
3.957257499141412
 20
7.38150170162924
 30
0.0
 10
3.944677578672358
 20
7.371477077505485
 30
0.0
 10
3.919910860248945
 20
7.351231268000648
 30
0.0
 10
3.90733093977991
 20
7.341010082619529
 30
0.0
 10
3.897109754398804
 20
7.515359917870126
 30
0.0
 10
3.90477564343463
 20
7.690102875635375
 30
0.0
 10
3.901827224574705
 20
7.864452710885946
 30
0.0
 10
3.836175764626911
 20
7.866614884716555
 30
0.0
 10
3.77072086593645
 20
7.867597691003222
 30
0.0
 10
3.70526596724597
 20
7.866811445973894
 30
0.0
 10
3.705659089760615
 20
7.886074449192139
 30
0.0
 10
3.706052212275285
 20
7.905140891153008
 30
0.0
 10
3.706641896047276
 20
7.92420733311389
 30
0.0
  0
HATCH
  5
88
330
79
100
AcDbEntity
  8
Layer 1
 62
    18
420
        0
440
 33554687
100
AcDbHatch
 10
0.0
 20
0.0
 30
0.0
210
0.0
220
0.0
230
1.0
  2
SOLID
 70
     1
 71
     1
 91
        1
 92
        1
 93
        1
 72
     4
 94
        3
 73
     0
 74
     0
 95
       29
 96
       25
 40
0.0
 40
0.0
 40
0.0
 40
0.0
 40
1.0
 40
1.0
 40
1.0
 40
2.0
 40
2.0
 40
2.0
 40
3.0
 40
3.0
 40
3.0
 40
4.0
 40
4.0
 40
4.0
 40
5.0
 40
5.0
 40
5.0
 40
6.0
 40
6.0
 40
6.0
 40
7.0
 40
7.0
 40
7.0
 40
8.0
 40
8.0
 40
8.0
 40
8.0
 10
3.706641896047276
 20
7.92420733311389
 10
3.856225012874428
 20
7.924797016885854
 10
4.006004690958926
 20
7.924797016885854
 10
4.155784369043443
 20
7.923027965569909
 10
4.155587807786105
 20
7.904551207381005
 10
4.155587807786105
 20
7.885877887934775
 10
4.155587807786105
 20
7.86720456848857
 10
4.090526031610295
 20
7.86720456848857
 10
4.025267694177147
 20
7.866418323459242
 10
3.960402479258662
 20
7.865435517172613
 10
3.958043744170733
 20
7.704255286163035
 10
3.961581846802636
 20
7.542681932638806
 10
3.957257499141412
 20
7.38150170162924
 10
3.944677578672358
 20
7.371477077505485
 10
3.919910860248945
 20
7.351231268000648
 10
3.90733093977991
 20
7.341010082619529
 10
3.897109754398804
 20
7.515359917870126
 10
3.90477564343463
 20
7.690102875635375
 10
3.901827224574705
 20
7.864452710885946
 10
3.836175764626911
 20
7.866614884716555
 10
3.77072086593645
 20
7.867597691003222
 10
3.70526596724597
 20
7.866811445973894
 10
3.705659089760615
 20
7.886074449192139
 10
3.706052212275285
 20
7.905140891153008
 10
3.706641896047276
 20
7.92420733311389
 97
        0
 97
        1
330
87
 75
     2
 76
     1
 98
        1
 10
0.0
 20
0.0
450
        0
451
        0
460
0.0
461
0.0
452
        0
462
0.0
453
        0
470

  0
SPLINE
  5
89
330
79
100
AcDbEntity
  8
Layer 1
100
AcDbSpline
210
0.0
220
0.0
230
1.0
 70
     9
 71
     3
 72
    41
 73
    37
 74
     0
 42
0.0000000001
 43
0.0000000001
 40
0.0
 40
0.0
 40
0.0
 40
0.0
 40
1.0
 40
1.0
 40
1.0
 40
2.0
 40
2.0
 40
2.0
 40
3.0
 40
3.0
 40
3.0
 40
4.0
 40
4.0
 40
4.0
 40
5.0
 40
5.0
 40
5.0
 40
6.0
 40
6.0
 40
6.0
 40
7.0
 40
7.0
 40
7.0
 40
8.0
 40
8.0
 40
8.0
 40
9.0
 40
9.0
 40
9.0
 40
10.0
 40
10.0
 40
10.0
 40
11.0
 40
11.0
 40
11.0
 40
12.0
 40
12.0
 40
12.0
 40
12.0
 10
4.510970561036464
 20
7.906909942468965
 30
0.0
 10
4.627138264117749
 20
7.942290968788129
 30
0.0
 10
4.750578733720197
 20
7.916148321563418
 30
0.0
 10
4.869891416918739
 20
7.925190139400544
 30
0.0
 10
4.868908610632084
 20
7.905337452410334
 30
0.0
 10
4.868122365602794
 20
7.885288204162811
 30
0.0
 10
4.867532681830791
 20
7.865238955915274
 30
0.0
 10
4.76925205316642
 20
7.867597691003222
 30
0.0
 10
4.671167985759368
 20
7.86720456848857
 30
0.0
 10
4.572887357094998
 20
7.864649272143284
 30
0.0
 10
4.572297673323033
 20
7.798801250938153
 30
0.0
 10
4.570725183264395
 20
7.731970423446391
 30
0.0
 10
4.587236328880028
 20
7.667498331042552
 30
0.0
 10
4.673330159590009
 20
7.668677698586533
 30
0.0
 10
4.759423990300003
 20
7.667694892299878
 30
0.0
 10
4.845714382267291
 20
7.668284576071881
 30
0.0
 10
4.847679994840587
 20
7.657277145661459
 30
0.0
 10
4.851611219987161
 20
7.635655407355304
 30
0.0
 10
4.853576832560457
 20
7.62484453820222
 30
0.0
 10
4.759423990300003
 20
7.626417028260864
 30
0.0
 10
4.663698657980881
 20
7.634082917296672
 30
0.0
 10
4.571904550808375
 20
7.609316198873266
 30
0.0
 10
4.572494234580365
 20
7.543468177668121
 30
0.0
 10
4.573083918352343
 20
7.47762015646299
 30
0.0
 10
4.573870163381658
 20
7.411772135257869
 30
0.0
 10
4.684534151257726
 20
7.407054665081974
 30
0.0
 10
4.795394700391157
 20
7.410396206456576
 30
0.0
 10
4.906058688267231
 20
7.409806522684586
 30
0.0
 10
4.906844933296548
 20
7.391329764495708
 30
0.0
 10
4.907827739583189
 20
7.37265644504944
 30
0.0
 10
4.908810545869818
 20
7.353983125603222
 30
0.0
 10
4.776524819687589
 20
7.361845575896381
 30
0.0
 10
4.641880358417393
 20
7.339830715075562
 30
0.0
 10
4.511560244808448
 20
7.368332097388234
 30
0.0
 10
4.511953367323112
 20
7.547792525329352
 30
0.0
 10
4.51352585738175
 20
7.727449514527809
 30
0.0
 10
4.510970561036464
 20
7.906909942468965
 30
0.0
  0
HATCH
  5
8A
330
79
100
AcDbEntity
  8
Layer 1
 62
    18
420
        0
440
 33554687
100
AcDbHatch
 10
0.0
 20
0.0
 30
0.0
210
0.0
220
0.0
230
1.0
  2
SOLID
 70
     1
 71
     1
 91
        1
 92
        1
 93
        1
 72
     4
 94
        3
 73
     0
 74
     0
 95
       41
 96
       37
 40
0.0
 40
0.0
 40
0.0
 40
0.0
 40
1.0
 40
1.0
 40
1.0
 40
2.0
 40
2.0
 40
2.0
 40
3.0
 40
3.0
 40
3.0
 40
4.0
 40
4.0
 40
4.0
 40
5.0
 40
5.0
 40
5.0
 40
6.0
 40
6.0
 40
6.0
 40
7.0
 40
7.0
 40
7.0
 40
8.0
 40
8.0
 40
8.0
 40
9.0
 40
9.0
 40
9.0
 40
10.0
 40
10.0
 40
10.0
 40
11.0
 40
11.0
 40
11.0
 40
12.0
 40
12.0
 40
12.0
 40
12.0
 10
4.510970561036464
 20
7.906909942468965
 10
4.627138264117749
 20
7.942290968788129
 10
4.750578733720197
 20
7.916148321563418
 10
4.869891416918739
 20
7.925190139400544
 10
4.868908610632084
 20
7.905337452410334
 10
4.868122365602794
 20
7.885288204162811
 10
4.867532681830791
 20
7.865238955915274
 10
4.76925205316642
 20
7.867597691003222
 10
4.671167985759368
 20
7.86720456848857
 10
4.572887357094998
 20
7.864649272143284
 10
4.572297673323033
 20
7.798801250938153
 10
4.570725183264395
 20
7.731970423446391
 10
4.587236328880028
 20
7.667498331042552
 10
4.673330159590009
 20
7.668677698586533
 10
4.759423990300003
 20
7.667694892299878
 10
4.845714382267291
 20
7.668284576071881
 10
4.847679994840587
 20
7.657277145661459
 10
4.851611219987161
 20
7.635655407355304
 10
4.853576832560457
 20
7.62484453820222
 10
4.759423990300003
 20
7.626417028260864
 10
4.663698657980881
 20
7.634082917296672
 10
4.571904550808375
 20
7.609316198873266
 10
4.572494234580365
 20
7.543468177668121
 10
4.573083918352343
 20
7.47762015646299
 10
4.573870163381658
 20
7.411772135257869
 10
4.684534151257726
 20
7.407054665081974
 10
4.795394700391157
 20
7.410396206456576
 10
4.906058688267231
 20
7.409806522684586
 10
4.906844933296548
 20
7.391329764495708
 10
4.907827739583189
 20
7.37265644504944
 10
4.908810545869818
 20
7.353983125603222
 10
4.776524819687589
 20
7.361845575896381
 10
4.641880358417393
 20
7.339830715075562
 10
4.511560244808448
 20
7.368332097388234
 10
4.511953367323112
 20
7.547792525329352
 10
4.51352585738175
 20
7.727449514527809
 10
4.510970561036464
 20
7.906909942468965
 97
        0
 97
        1
330
89
 75
     2
 76
     1
 98
        1
 10
0.0
 20
0.0
450
        0
451
        0
460
0.0
461
0.0
452
        0
462
0.0
453
        0
470

  0
SPLINE
  5
8B
330
79
100
AcDbEntity
  8
Layer 1
100
AcDbSpline
210
0.0
220
0.0
230
1.0
 70
     9
 71
     3
 72
    44
 73
    40
 74
     0
 42
0.0000000001
 43
0.0000000001
 40
0.0
 40
0.0
 40
0.0
 40
0.0
 40
1.0
 40
1.0
 40
1.0
 40
2.0
 40
2.0
 40
2.0
 40
3.0
 40
3.0
 40
3.0
 40
4.0
 40
4.0
 40
4.0
 40
5.0
 40
5.0
 40
5.0
 40
6.0
 40
6.0
 40
6.0
 40
7.0
 40
7.0
 40
7.0
 40
8.0
 40
8.0
 40
8.0
 40
9.0
 40
9.0
 40
9.0
 40
10.0
 40
10.0
 40
10.0
 40
11.0
 40
11.0
 40
11.0
 40
12.0
 40
12.0
 40
12.0
 40
13.0
 40
13.0
 40
13.0
 40
13.0
 10
5.767193556624406
 20
7.848138126527676
 30
0.0
 10
5.859184225054264
 20
7.948187806508005
 30
0.0
 10
6.00837421936679
 20
7.937376937354896
 30
0.0
 10
6.127097218793348
 20
7.899833737205122
 30
0.0
 10
6.126704096278658
 20
7.881553540273557
 30
0.0
 10
6.126507535021346
 20
7.863273343341991
 30
0.0
 10
6.12631097376402
 20
7.844796585153087
 30
0.0
 10
6.037661846708766
 20
7.876836070097661
 30
0.0
 10
5.942329636904307
 20
7.867990813517874
 30
0.0
 10
5.850338968474488
 20
7.86248709831265
 30
0.0
 10
5.839528099321392
 20
7.826516388221496
 30
0.0
 10
5.829306913940285
 20
7.790349116873003
 30
0.0
 10
5.820658218617836
 20
7.753592161752534
 30
0.0
 10
5.839331538064066
 20
7.734329158534326
 30
0.0
 10
5.858201418767635
 20
7.714869594058793
 30
0.0
 10
5.877267860728516
 20
7.695213468325909
 30
0.0
 10
5.962968568923833
 20
7.665925840983908
 30
0.0
 10
6.060069830044249
 20
7.655508094345488
 30
0.0
 10
6.132797495255886
 20
7.597522523433528
 30
0.0
 10
6.189014014851876
 20
7.544647545212101
 30
0.0
 10
6.159333264995249
 20
7.464647113479296
 30
0.0
 10
6.138301210461071
 20
7.40253375616343
 30
0.0
 10
6.012698567028008
 20
7.328233600893162
 30
0.0
 10
5.854663316135694
 20
7.339044470046246
 30
0.0
 10
5.737119684253128
 20
7.423762371954921
 30
0.0
 10
5.830093158969614
 20
7.474868298860402
 30
0.0
 10
5.936236237927131
 20
7.352017513029927
 30
0.0
 10
6.044541490715269
 20
7.414327431603155
 30
0.0
 10
6.063214810161499
 20
7.430248893446774
 30
0.0
 10
6.082084690865068
 20
7.446366916547717
 30
0.0
 10
6.101347694083263
 20
7.46189525587671
 30
0.0
 10
6.102133939112579
 20
7.490593199446682
 30
0.0
 10
6.102920184141894
 20
7.519094581759354
 30
0.0
 10
6.103706429171211
 20
7.547399402814688
 30
0.0
 10
6.006801729308145
 20
7.628775763348786
 30
0.0
 10
5.853680509849064
 20
7.602633116124074
 30
0.0
 10
5.773286955601633
 20
7.707793388794938
 30
0.0
 10
5.762476086448537
 20
7.753788723009872
 30
0.0
 10
5.767193556624406
 20
7.801553108540765
 30
0.0
 10
5.767193556624406
 20
7.848138126527676
 30
0.0
  0
HATCH
  5
8C
330
79
100
AcDbEntity
  8
Layer 1
 62
    18
420
        0
440
 33554687
100
AcDbHatch
 10
0.0
 20
0.0
 30
0.0
210
0.0
220
0.0
230
1.0
  2
SOLID
 70
     1
 71
     1
 91
        1
 92
        1
 93
        1
 72
     4
 94
        3
 73
     0
 74
     0
 95
       44
 96
       40
 40
0.0
 40
0.0
 40
0.0
 40
0.0
 40
1.0
 40
1.0
 40
1.0
 40
2.0
 40
2.0
 40
2.0
 40
3.0
 40
3.0
 40
3.0
 40
4.0
 40
4.0
 40
4.0
 40
5.0
 40
5.0
 40
5.0
 40
6.0
 40
6.0
 40
6.0
 40
7.0
 40
7.0
 40
7.0
 40
8.0
 40
8.0
 40
8.0
 40
9.0
 40
9.0
 40
9.0
 40
10.0
 40
10.0
 40
10.0
 40
11.0
 40
11.0
 40
11.0
 40
12.0
 40
12.0
 40
12.0
 40
13.0
 40
13.0
 40
13.0
 40
13.0
 10
5.767193556624406
 20
7.848138126527676
 10
5.859184225054264
 20
7.948187806508005
 10
6.00837421936679
 20
7.937376937354896
 10
6.127097218793348
 20
7.899833737205122
 10
6.126704096278658
 20
7.881553540273557
 10
6.126507535021346
 20
7.863273343341991
 10
6.12631097376402
 20
7.844796585153087
 10
6.037661846708766
 20
7.876836070097661
 10
5.942329636904307
 20
7.867990813517874
 10
5.850338968474488
 20
7.86248709831265
 10
5.839528099321392
 20
7.826516388221496
 10
5.829306913940285
 20
7.790349116873003
 10
5.820658218617836
 20
7.753592161752534
 10
5.839331538064066
 20
7.734329158534326
 10
5.858201418767635
 20
7.714869594058793
 10
5.877267860728516
 20
7.695213468325909
 10
5.962968568923833
 20
7.665925840983908
 10
6.060069830044249
 20
7.655508094345488
 10
6.132797495255886
 20
7.597522523433528
 10
6.189014014851876
 20
7.544647545212101
 10
6.159333264995249
 20
7.464647113479296
 10
6.138301210461071
 20
7.40253375616343
 10
6.012698567028008
 20
7.328233600893162
 10
5.854663316135694
 20
7.339044470046246
 10
5.737119684253128
 20
7.423762371954921
 10
5.830093158969614
 20
7.474868298860402
 10
5.936236237927131
 20
7.352017513029927
 10
6.044541490715269
 20
7.414327431603155
 10
6.063214810161499
 20
7.430248893446774
 10
6.082084690865068
 20
7.446366916547717
 10
6.101347694083263
 20
7.46189525587671
 10
6.102133939112579
 20
7.490593199446682
 10
6.102920184141894
 20
7.519094581759354
 10
6.103706429171211
 20
7.547399402814688
 10
6.006801729308145
 20
7.628775763348786
 10
5.853680509849064
 20
7.602633116124074
 10
5.773286955601633
 20
7.707793388794938
 10
5.762476086448537
 20
7.753788723009872
 10
5.767193556624406
 20
7.801553108540765
 10
5.767193556624406
 20
7.848138126527676
 97
        0
 97
        1
330
8B
 75
     2
 76
     1
 98
        1
 10
0.0
 20
0.0
450
        0
451
        0
460
0.0
461
0.0
452
        0
462
0.0
453
        0
470

  0
SPLINE
  5
8D
330
79
100
AcDbEntity
  8
Layer 1
100
AcDbSpline
210
0.0
220
0.0
230
1.0
 70
     9
 71
     3
 72
    17
 73
    13
 74
     0
 42
0.0000000001
 43
0.0000000001
 40
0.0
 40
0.0
 40
0.0
 40
0.0
 40
1.0
 40
1.0
 40
1.0
 40
2.0
 40
2.0
 40
2.0
 40
3.0
 40
3.0
 40
3.0
 40
4.0
 40
4.0
 40
4.0
 40
4.0
 10
6.591374908603811
 20
7.529512328397774
 30
0.0
 10
6.678058423085783
 20
7.358307473264453
 30
0.0
 10
6.941057385391634
 20
7.3722633225348
 30
0.0
 10
7.030296196218891
 20
7.535016043602985
 30
0.0
 10
7.047003903091838
 20
7.663763667153299
 30
0.0
 10
7.031672125020172
 20
7.797425322136846
 30
0.0
 10
6.907052287873751
 20
7.865435517172613
 30
0.0
 10
6.836879919007401
 20
7.866614884716555
 30
0.0
 10
6.766510988883712
 20
7.866418323459242
 30
0.0
 10
6.6965351812747
 20
7.865042394657936
 30
0.0
 10
6.599630481411622
 20
7.789169749329048
 30
0.0
 10
6.508819180525758
 20
7.647449082795029
 30
0.0
 10
6.591374908603811
 20
7.529512328397774
 30
0.0
  0
SPLINE
  5
8E
330
79
100
AcDbEntity
  8
Layer 1
100
AcDbSpline
210
0.0
220
0.0
230
1.0
 70
     9
 71
     3
 72
    14
 73
    10
 74
     0
 42
0.0000000001
 43
0.0000000001
 40
0.0
 40
0.0
 40
0.0
 40
0.0
 40
1.0
 40
1.0
 40
1.0
 40
2.0
 40
2.0
 40
2.0
 40
3.0
 40
3.0
 40
3.0
 40
3.0
 10
6.750982649554733
 20
7.924010771856551
 30
0.0
 10
6.951475132030067
 20
7.969416422299495
 30
0.0
 10
7.153343543306694
 20
7.783272911609186
 30
0.0
 10
7.100075442570591
 20
7.579045765244611
 30
0.0
 10
7.056242282186265
 20
7.360469647095075
 30
0.0
 10
6.750982649554733
 20
7.271230836267818
 30
0.0
 10
6.596878623809023
 20
7.432607628534709
 30
0.0
 10
6.425280646161038
 20
7.577473275186004
 30
0.0
 10
6.522185346024078
 20
7.904158084866379
 30
0.0
 10
6.750982649554733
 20
7.924010771856551
 30
0.0
  0
HATCH
  5
8F
330
79
100
AcDbEntity
  8
Layer 1
 62
    18
420
        0
440
 33554687
100
AcDbHatch
 10
0.0
 20
0.0
 30
0.0
210
0.0
220
0.0
230
1.0
  2
SOLID
 70
     1
 71
     1
 91
        2
 92
        1
 93
        1
 72
     4
 94
        3
 73
     0
 74
     0
 95
       17
 96
       13
 40
0.0
 40
0.0
 40
0.0
 40
0.0
 40
1.0
 40
1.0
 40
1.0
 40
2.0
 40
2.0
 40
2.0
 40
3.0
 40
3.0
 40
3.0
 40
4.0
 40
4.0
 40
4.0
 40
4.0
 10
6.591374908603811
 20
7.529512328397774
 10
6.678058423085783
 20
7.358307473264453
 10
6.941057385391634
 20
7.3722633225348
 10
7.030296196218891
 20
7.535016043602985
 10
7.047003903091838
 20
7.663763667153299
 10
7.031672125020172
 20
7.797425322136846
 10
6.907052287873751
 20
7.865435517172613
 10
6.836879919007401
 20
7.866614884716555
 10
6.766510988883712
 20
7.866418323459242
 10
6.6965351812747
 20
7.865042394657936
 10
6.599630481411622
 20
7.789169749329048
 10
6.508819180525758
 20
7.647449082795029
 10
6.591374908603811
 20
7.529512328397774
 97
        0
 97
        1
330
8D
 92
        1
 93
        1
 72
     4
 94
        3
 73
     0
 74
     0
 95
       14
 96
       10
 40
0.0
 40
0.0
 40
0.0
 40
0.0
 40
1.0
 40
1.0
 40
1.0
 40
2.0
 40
2.0
 40
2.0
 40
3.0
 40
3.0
 40
3.0
 40
3.0
 10
6.750982649554733
 20
7.924010771856551
 10
6.951475132030067
 20
7.969416422299495
 10
7.153343543306694
 20
7.783272911609186
 10
7.100075442570591
 20
7.579045765244611
 10
7.056242282186265
 20
7.360469647095075
 10
6.750982649554733
 20
7.271230836267818
 10
6.596878623809023
 20
7.432607628534709
 10
6.425280646161038
 20
7.577473275186004
 10
6.522185346024078
 20
7.904158084866379
 10
6.750982649554733
 20
7.924010771856551
 97
        0
 97
        1
330
8E
 75
     2
 76
     1
 98
        1
 10
0.0
 20
0.0
450
        0
451
        0
460
0.0
461
0.0
452
        0
462
0.0
453
        0
470

  0
SPLINE
  5
90
330
79
100
AcDbEntity
  8
Layer 1
100
AcDbSpline
210
0.0
220
0.0
230
1.0
 70
     9
 71
     3
 72
    29
 73
    25
 74
     0
 42
0.0000000001
 43
0.0000000001
 40
0.0
 40
0.0
 40
0.0
 40
0.0
 40
1.0
 40
1.0
 40
1.0
 40
2.0
 40
2.0
 40
2.0
 40
3.0
 40
3.0
 40
3.0
 40
4.0
 40
4.0
 40
4.0
 40
5.0
 40
5.0
 40
5.0
 40
6.0
 40
6.0
 40
6.0
 40
7.0
 40
7.0
 40
7.0
 40
8.0
 40
8.0
 40
8.0
 40
8.0
 10
7.571429337644897
 20
7.872315161179105
 30
0.0
 10
7.677572416602426
 20
7.945632510162718
 30
0.0
 10
7.823027747025674
 20
7.941897846273491
 30
0.0
 10
7.934281418673712
 20
7.881553540273557
 30
0.0
 10
7.934477979931076
 20
7.860718046996717
 30
0.0
 10
7.934674541188402
 20
7.839882553719866
 30
0.0
 10
7.935067663703054
 20
7.818850499185676
 30
0.0
 10
7.850939445566356
 20
7.879784488957587
 30
0.0
 10
7.744206682836836
 20
7.873494528723072
 30
0.0
 10
7.646712299201781
 20
7.859342118195399
 30
0.0
 10
7.499094794947924
 20
7.79251129070365
 30
0.0
 10
7.469807167605924
 20
7.569217702378169
 30
0.0
 10
7.593444198465704
 20
7.466219603537941
 30
0.0
 10
7.685631428152898
 20
7.372853006306778
 30
0.0
 10
7.839735453898621
 20
7.399192214788841
 30
0.0
 10
7.937426398791002
 20
7.470347389941833
 30
0.0
 10
7.936050469989695
 20
7.446956600319733
 30
0.0
 10
7.934871102445716
 20
7.423172688182944
 30
0.0
 10
7.933888296159087
 20
7.399388776046166
 30
0.0
 10
7.827548655944231
 20
7.343958501479467
 30
0.0
 10
7.69015233707143
 20
7.328037039635823
 30
0.0
 10
7.587940483260505
 20
7.400764704847473
 30
0.0
 10
7.418504679443129
 20
7.492558812019991
 30
0.0
 10
7.414180331781911
 20
7.766958327250904
 30
0.0
 10
7.571429337644897
 20
7.872315161179105
 30
0.0
  0
HATCH
  5
91
330
79
100
AcDbEntity
  8
Layer 1
 62
    18
420
        0
440
 33554687
100
AcDbHatch
 10
0.0
 20
0.0
 30
0.0
210
0.0
220
0.0
230
1.0
  2
SOLID
 70
     1
 71
     1
 91
        1
 92
        1
 93
        1
 72
     4
 94
        3
 73
     0
 74
     0
 95
       29
 96
       25
 40
0.0
 40
0.0
 40
0.0
 40
0.0
 40
1.0
 40
1.0
 40
1.0
 40
2.0
 40
2.0
 40
2.0
 40
3.0
 40
3.0
 40
3.0
 40
4.0
 40
4.0
 40
4.0
 40
5.0
 40
5.0
 40
5.0
 40
6.0
 40
6.0
 40
6.0
 40
7.0
 40
7.0
 40
7.0
 40
8.0
 40
8.0
 40
8.0
 40
8.0
 10
7.571429337644897
 20
7.872315161179105
 10
7.677572416602426
 20
7.945632510162718
 10
7.823027747025674
 20
7.941897846273491
 10
7.934281418673712
 20
7.881553540273557
 10
7.934477979931076
 20
7.860718046996717
 10
7.934674541188402
 20
7.839882553719866
 10
7.935067663703054
 20
7.818850499185676
 10
7.850939445566356
 20
7.879784488957587
 10
7.744206682836836
 20
7.873494528723072
 10
7.646712299201781
 20
7.859342118195399
 10
7.499094794947924
 20
7.79251129070365
 10
7.469807167605924
 20
7.569217702378169
 10
7.593444198465704
 20
7.466219603537941
 10
7.685631428152898
 20
7.372853006306778
 10
7.839735453898621
 20
7.399192214788841
 10
7.937426398791002
 20
7.470347389941833
 10
7.936050469989695
 20
7.446956600319733
 10
7.934871102445716
 20
7.423172688182944
 10
7.933888296159087
 20
7.399388776046166
 10
7.827548655944231
 20
7.343958501479467
 10
7.69015233707143
 20
7.328037039635823
 10
7.587940483260505
 20
7.400764704847473
 10
7.418504679443129
 20
7.492558812019991
 10
7.414180331781911
 20
7.766958327250904
 10
7.571429337644897
 20
7.872315161179105
 97
        0
 97
        1
330
90
 75
     2
 76
     1
 98
        1
 10
0.0
 20
0.0
450
        0
451
        0
460
0.0
461
0.0
452
        0
462
0.0
453
        0
470

  0
SPLINE
  5
92
330
79
100
AcDbEntity
  8
Layer 1
100
AcDbSpline
210
0.0
220
0.0
230
1.0
 70
     9
 71
     3
 72
    32
 73
    28
 74
     0
 42
0.0000000001
 43
0.0000000001
 40
0.0
 40
0.0
 40
0.0
 40
0.0
 40
1.0
 40
1.0
 40
1.0
 40
2.0
 40
2.0
 40
2.0
 40
3.0
 40
3.0
 40
3.0
 40
4.0
 40
4.0
 40
4.0
 40
5.0
 40
5.0
 40
5.0
 40
6.0
 40
6.0
 40
6.0
 40
7.0
 40
7.0
 40
7.0
 40
8.0
 40
8.0
 40
8.0
 40
9.0
 40
9.0
 40
9.0
 40
9.0
 10
8.317575870464768
 20
7.737474138651577
 30
0.0
 10
8.370254287428881
 20
7.941897846273491
 30
0.0
 10
8.686324789213484
 20
7.999293733413448
 30
0.0
 10
8.808782452529309
 20
7.829857929596085
 30
0.0
 10
8.785981346679148
 20
7.827695755765476
 30
0.0
 10
8.763376802086352
 20
7.825533581934867
 30
0.0
 10
8.74077225749353
 20
7.823567969361583
 30
0.0
 10
8.725440479421902
 20
7.837720379889256
 30
0.0
 10
8.710108701350261
 20
7.851676229159579
 30
0.0
 10
8.69477692327862
 20
7.865435517172613
 30
0.0
 10
8.625194238184235
 20
7.867401129745871
 30
0.0
 10
8.5558081143472
 20
7.866811445973894
 30
0.0
 10
8.486225429252828
 20
7.865042394657936
 30
0.0
 10
8.358657173246468
 20
7.781700421550554
 30
0.0
 10
8.309909981428972
 20
7.585532286736476
 30
0.0
 10
8.425881123252906
 20
7.473099247544432
 30
0.0
 10
8.518264914197414
 20
7.373049567564104
 30
0.0
 10
8.672565501200487
 20
7.401550949876776
 30
0.0
 10
8.779494825187295
 20
7.460519327075378
 30
0.0
 10
8.779887947701972
 20
7.446366916547717
 30
0.0
 10
8.780674192731275
 20
7.417865534235046
 30
0.0
 10
8.780870753988601
 20
7.403516562450059
 30
0.0
 10
8.693597555734628
 20
7.355555615661854
 30
0.0
 10
8.587454476777136
 20
7.333344193583696
 30
0.0
 10
8.491336021943373
 20
7.366956168586928
 30
0.0
 10
8.349025671637377
 20
7.418455218007048
 30
0.0
 10
8.249762236686352
 20
7.594574104573602
 30
0.0
 10
8.317575870464768
 20
7.737474138651577
 30
0.0
  0
HATCH
  5
93
330
79
100
AcDbEntity
  8
Layer 1
 62
    18
420
        0
440
 33554687
100
AcDbHatch
 10
0.0
 20
0.0
 30
0.0
210
0.0
220
0.0
230
1.0
  2
SOLID
 70
     1
 71
     1
 91
        1
 92
        1
 93
        1
 72
     4
 94
        3
 73
     0
 74
     0
 95
       32
 96
       28
 40
0.0
 40
0.0
 40
0.0
 40
0.0
 40
1.0
 40
1.0
 40
1.0
 40
2.0
 40
2.0
 40
2.0
 40
3.0
 40
3.0
 40
3.0
 40
4.0
 40
4.0
 40
4.0
 40
5.0
 40
5.0
 40
5.0
 40
6.0
 40
6.0
 40
6.0
 40
7.0
 40
7.0
 40
7.0
 40
8.0
 40
8.0
 40
8.0
 40
9.0
 40
9.0
 40
9.0
 40
9.0
 10
8.317575870464768
 20
7.737474138651577
 10
8.370254287428881
 20
7.941897846273491
 10
8.686324789213484
 20
7.999293733413448
 10
8.808782452529309
 20
7.829857929596085
 10
8.785981346679148
 20
7.827695755765476
 10
8.763376802086352
 20
7.825533581934867
 10
8.74077225749353
 20
7.823567969361583
 10
8.725440479421902
 20
7.837720379889256
 10
8.710108701350261
 20
7.851676229159579
 10
8.69477692327862
 20
7.865435517172613
 10
8.625194238184235
 20
7.867401129745871
 10
8.5558081143472
 20
7.866811445973894
 10
8.486225429252828
 20
7.865042394657936
 10
8.358657173246468
 20
7.781700421550554
 10
8.309909981428972
 20
7.585532286736476
 10
8.425881123252906
 20
7.473099247544432
 10
8.518264914197414
 20
7.373049567564104
 10
8.672565501200487
 20
7.401550949876776
 10
8.779494825187295
 20
7.460519327075378
 10
8.779887947701972
 20
7.446366916547717
 10
8.780674192731275
 20
7.417865534235046
 10
8.780870753988601
 20
7.403516562450059
 10
8.693597555734628
 20
7.355555615661854
 10
8.587454476777136
 20
7.333344193583696
 10
8.491336021943373
 20
7.366956168586928
 10
8.349025671637377
 20
7.418455218007048
 10
8.249762236686352
 20
7.594574104573602
 10
8.317575870464768
 20
7.737474138651577
 97
        0
 97
        1
330
92
 75
     2
 76
     1
 98
        1
 10
0.0
 20
0.0
450
        0
451
        0
460
0.0
461
0.0
452
        0
462
0.0
453
        0
470

  0
SPLINE
  5
94
330
79
100
AcDbEntity
  8
Layer 1
100
AcDbSpline
210
0.0
220
0.0
230
1.0
 70
     9
 71
     3
 72
    35
 73
    31
 74
     0
 42
0.0000000001
 43
0.0000000001
 40
0.0
 40
0.0
 40
0.0
 40
0.0
 40
1.0
 40
1.0
 40
1.0
 40
2.0
 40
2.0
 40
2.0
 40
3.0
 40
3.0
 40
3.0
 40
4.0
 40
4.0
 40
4.0
 40
5.0
 40
5.0
 40
5.0
 40
6.0
 40
6.0
 40
6.0
 40
7.0
 40
7.0
 40
7.0
 40
8.0
 40
8.0
 40
8.0
 40
9.0
 40
9.0
 40
9.0
 40
10.0
 40
10.0
 40
10.0
 40
10.0
 10
9.209177733707923
 20
7.924600455628554
 30
0.0
 10
9.334190693368997
 20
7.923814210599238
 30
0.0
 10
9.459203653030082
 20
7.924600455628554
 30
0.0
 10
9.584413173948455
 20
7.924600455628554
 30
0.0
 10
9.584020051433828
 20
7.905337452410334
 30
0.0
 10
9.58382349017649
 20
7.885877887934775
 30
0.0
 10
9.58382349017649
 20
7.866221762201917
 30
0.0
 10
9.477876972476298
 20
7.867597691003222
 30
0.0
 10
9.371930454776133
 20
7.866418323459242
 30
0.0
 10
9.266180498333255
 20
7.866221762201917
 30
0.0
 10
9.2445587600271
 20
7.800570302254122
 30
0.0
 10
9.252421210320258
 20
7.731970423446391
 30
0.0
 10
9.271094529766475
 20
7.666712086013236
 30
0.0
 10
9.36957171968816
 20
7.658849635720078
 30
0.0
 10
9.480432268821573
 20
7.694820345811244
 30
0.0
 10
9.567508905818232
 20
7.635655407355304
 30
0.0
 10
9.465100490749945
 20
7.611871495218514
 30
0.0
 10
9.360333340593708
 20
7.608726515101276
 30
0.0
 10
9.255762751694847
 20
7.61069212767456
 30
0.0
 10
9.24888310768833
 20
7.543075055153457
 30
0.0
 10
9.253993700378877
 20
7.475064860117741
 30
0.0
 10
9.269522039707869
 20
7.408823716397932
 30
0.0
 10
9.387458794105087
 20
7.402926878678082
 30
0.0
 10
9.510899263707528
 20
7.428283280873491
 30
0.0
 10
9.623921986671549
 20
7.38327075294521
 30
0.0
 10
9.495764046893238
 20
7.323712691974592
 30
0.0
 10
9.346967175095363
 20
7.368332097388234
 30
0.0
 10
9.210160539994577
 20
7.354769370632525
 30
0.0
 10
9.207015559877314
 20
7.544844106469427
 30
0.0
 10
9.208981172450597
 20
7.734722281048978
 30
0.0
 10
9.209177733707923
 20
7.924600455628554
 30
0.0
  0
HATCH
  5
95
330
79
100
AcDbEntity
  8
Layer 1
 62
    18
420
        0
440
 33554687
100
AcDbHatch
 10
0.0
 20
0.0
 30
0.0
210
0.0
220
0.0
230
1.0
  2
SOLID
 70
     1
 71
     1
 91
        1
 92
        1
 93
        1
 72
     4
 94
        3
 73
     0
 74
     0
 95
       35
 96
       31
 40
0.0
 40
0.0
 40
0.0
 40
0.0
 40
1.0
 40
1.0
 40
1.0
 40
2.0
 40
2.0
 40
2.0
 40
3.0
 40
3.0
 40
3.0
 40
4.0
 40
4.0
 40
4.0
 40
5.0
 40
5.0
 40
5.0
 40
6.0
 40
6.0
 40
6.0
 40
7.0
 40
7.0
 40
7.0
 40
8.0
 40
8.0
 40
8.0
 40
9.0
 40
9.0
 40
9.0
 40
10.0
 40
10.0
 40
10.0
 40
10.0
 10
9.209177733707923
 20
7.924600455628554
 10
9.334190693368997
 20
7.923814210599238
 10
9.459203653030082
 20
7.924600455628554
 10
9.584413173948455
 20
7.924600455628554
 10
9.584020051433828
 20
7.905337452410334
 10
9.58382349017649
 20
7.885877887934775
 10
9.58382349017649
 20
7.866221762201917
 10
9.477876972476298
 20
7.867597691003222
 10
9.371930454776133
 20
7.866418323459242
 10
9.266180498333255
 20
7.866221762201917
 10
9.2445587600271
 20
7.800570302254122
 10
9.252421210320258
 20
7.731970423446391
 10
9.271094529766475
 20
7.666712086013236
 10
9.36957171968816
 20
7.658849635720078
 10
9.480432268821573
 20
7.694820345811244
 10
9.567508905818232
 20
7.635655407355304
 10
9.465100490749945
 20
7.611871495218514
 10
9.360333340593708
 20
7.608726515101276
 10
9.255762751694847
 20
7.61069212767456
 10
9.24888310768833
 20
7.543075055153457
 10
9.253993700378877
 20
7.475064860117741
 10
9.269522039707869
 20
7.408823716397932
 10
9.387458794105087
 20
7.402926878678082
 10
9.510899263707528
 20
7.428283280873491
 10
9.623921986671549
 20
7.38327075294521
 10
9.495764046893238
 20
7.323712691974592
 10
9.346967175095363
 20
7.368332097388234
 10
9.210160539994577
 20
7.354769370632525
 10
9.207015559877314
 20
7.544844106469427
 10
9.208981172450597
 20
7.734722281048978
 10
9.209177733707923
 20
7.924600455628554
 97
        0
 97
        1
330
94
 75
     2
 76
     1
 98
        1
 10
0.0
 20
0.0
450
        0
451
        0
460
0.0
461
0.0
452
        0
462
0.0
453
        0
470

  0
SPLINE
  5
96
330
79
100
AcDbEntity
  8
Layer 1
100
AcDbSpline
210
0.0
220
0.0
230
1.0
 70
     9
 71
     3
 72
    14
 73
    10
 74
     0
 42
0.0000000001
 43
0.0000000001
 40
0.0
 40
0.0
 40
0.0
 40
0.0
 40
1.0
 40
1.0
 40
1.0
 40
2.0
 40
2.0
 40
2.0
 40
3.0
 40
3.0
 40
3.0
 40
3.0
 10
10.0573395590814
 20
7.865435517172613
 30
0.0
 10
10.0573395590814
 20
7.772855164970766
 30
0.0
 10
10.04928054753096
 20
7.679095445224939
 30
0.0
 10
10.06932979577848
 20
7.587891021824424
 30
0.0
 10
10.20593986962194
 20
7.571183314951465
 30
0.0
 10
10.42628503908746
 20
7.589070389368379
 30
0.0
 10
10.39326274785623
 20
7.782879789094534
 30
0.0
 10
10.31778322504198
 20
7.898654369661143
 30
0.0
 10
10.17429350719202
 20
7.862683659569988
 30
0.0
 10
10.0573395590814
 20
7.865435517172613
 30
0.0
  0
SPLINE
  5
97
330
79
100
AcDbEntity
  8
Layer 1
100
AcDbSpline
210
0.0
220
0.0
230
1.0
 70
     9
 71
     3
 72
    32
 73
    28
 74
     0
 42
0.0000000001
 43
0.0000000001
 40
0.0
 40
0.0
 40
0.0
 40
0.0
 40
1.0
 40
1.0
 40
1.0
 40
2.0
 40
2.0
 40
2.0
 40
3.0
 40
3.0
 40
3.0
 40
4.0
 40
4.0
 40
4.0
 40
5.0
 40
5.0
 40
5.0
 40
6.0
 40
6.0
 40
6.0
 40
7.0
 40
7.0
 40
7.0
 40
8.0
 40
8.0
 40
8.0
 40
9.0
 40
9.0
 40
9.0
 40
9.0
 10
10.01645481755705
 20
7.924797016885854
 30
0.0
 10
10.13340876566764
 20
7.915165515276775
 30
0.0
 10
10.26648073687919
 20
7.953101837941213
 30
0.0
 10
10.37065820326342
 20
7.884698520390795
 30
0.0
 10
10.48682590634472
 20
7.807253385003301
 30
0.0
 10
10.46481104552389
 20
7.617964894195715
 30
0.0
 10
10.34372931100938
 20
7.556834343166491
 30
0.0
 10
10.34490867855336
 20
7.491772566990675
 30
0.0
 10
10.39188681905492
 20
7.444794426489086
 30
0.0
 10
10.43198531555
 20
7.398799092274177
 30
0.0
 10
10.43041282549135
 20
7.384450120489177
 30
0.0
 10
10.42707128411678
 20
7.355555615661854
 30
0.0
 10
10.42549879405813
 20
7.341206643876867
 30
0.0
 10
10.36220606919831
 20
7.396047234671577
 30
0.0
 10
10.31070701977816
 20
7.462484939648675
 30
0.0
 10
10.26412200179124
 20
7.531674502228408
 30
0.0
 10
10.19532556172618
 20
7.531477940971083
 30
0.0
 10
10.12652912166112
 20
7.531674502228408
 30
0.0
 10
10.05792924285339
 20
7.53088825719908
 30
0.0
 10
10.05792924285339
 20
7.467792093596572
 30
0.0
 10
10.05773268159607
 20
7.404302807479388
 30
0.0
 10
10.05144272136157
 20
7.341403205134181
 30
0.0
 10
9.975176953518017
 20
7.371673638762823
 30
0.0
 10
10.00348177457333
 20
7.457177785700814
 30
0.0
 10
9.99915742691212
 20
7.520667071817986
 30
0.0
 10
10.00485770337464
 20
7.655311533088163
 30
0.0
 10
9.98539813889911
 20
7.792314729446299
 30
0.0
 10
10.01645481755705
 20
7.924797016885854
 30
0.0
  0
HATCH
  5
98
330
79
100
AcDbEntity
  8
Layer 1
 62
    18
420
        0
440
 33554687
100
AcDbHatch
 10
0.0
 20
0.0
 30
0.0
210
0.0
220
0.0
230
1.0
  2
SOLID
 70
     1
 71
     1
 91
        2
 92
        1
 93
        1
 72
     4
 94
        3
 73
     0
 74
     0
 95
       14
 96
       10
 40
0.0
 40
0.0
 40
0.0
 40
0.0
 40
1.0
 40
1.0
 40
1.0
 40
2.0
 40
2.0
 40
2.0
 40
3.0
 40
3.0
 40
3.0
 40
3.0
 10
10.0573395590814
 20
7.865435517172613
 10
10.0573395590814
 20
7.772855164970766
 10
10.04928054753096
 20
7.679095445224939
 10
10.06932979577848
 20
7.587891021824424
 10
10.20593986962194
 20
7.571183314951465
 10
10.42628503908746
 20
7.589070389368379
 10
10.39326274785623
 20
7.782879789094534
 10
10.31778322504198
 20
7.898654369661143
 10
10.17429350719202
 20
7.862683659569988
 10
10.0573395590814
 20
7.865435517172613
 97
        0
 97
        1
330
96
 92
        1
 93
        1
 72
     4
 94
        3
 73
     0
 74
     0
 95
       32
 96
       28
 40
0.0
 40
0.0
 40
0.0
 40
0.0
 40
1.0
 40
1.0
 40
1.0
 40
2.0
 40
2.0
 40
2.0
 40
3.0
 40
3.0
 40
3.0
 40
4.0
 40
4.0
 40
4.0
 40
5.0
 40
5.0
 40
5.0
 40
6.0
 40
6.0
 40
6.0
 40
7.0
 40
7.0
 40
7.0
 40
8.0
 40
8.0
 40
8.0
 40
9.0
 40
9.0
 40
9.0
 40
9.0
 10
10.01645481755705
 20
7.924797016885854
 10
10.13340876566764
 20
7.915165515276775
 10
10.26648073687919
 20
7.953101837941213
 10
10.37065820326342
 20
7.884698520390795
 10
10.48682590634472
 20
7.807253385003301
 10
10.46481104552389
 20
7.617964894195715
 10
10.34372931100938
 20
7.556834343166491
 10
10.34490867855336
 20
7.491772566990675
 10
10.39188681905492
 20
7.444794426489086
 10
10.43198531555
 20
7.398799092274177
 10
10.43041282549135
 20
7.384450120489177
 10
10.42707128411678
 20
7.355555615661854
 10
10.42549879405813
 20
7.341206643876867
 10
10.36220606919831
 20
7.396047234671577
 10
10.31070701977816
 20
7.462484939648675
 10
10.26412200179124
 20
7.531674502228408
 10
10.19532556172618
 20
7.531477940971083
 10
10.12652912166112
 20
7.531674502228408
 10
10.05792924285339
 20
7.53088825719908
 10
10.05792924285339
 20
7.467792093596572
 10
10.05773268159607
 20
7.404302807479388
 10
10.05144272136157
 20
7.341403205134181
 10
9.975176953518017
 20
7.371673638762823
 10
10.00348177457333
 20
7.457177785700814
 10
9.99915742691212
 20
7.520667071817986
 10
10.00485770337464
 20
7.655311533088163
 10
9.98539813889911
 20
7.792314729446299
 10
10.01645481755705
 20
7.924797016885854
 97
        0
 97
        1
330
97
 75
     2
 76
     1
 98
        1
 10
0.0
 20
0.0
450
        0
451
        0
460
0.0
461
0.0
452
        0
462
0.0
453
        0
470

  0
SPLINE
  5
99
330
79
100
AcDbEntity
  8
Layer 1
100
AcDbSpline
210
0.0
220
0.0
230
1.0
 70
     9
 71
     3
 72
    26
 73
    22
 74
     0
 42
0.0000000001
 43
0.0000000001
 40
0.0
 40
0.0
 40
0.0
 40
0.0
 40
1.0
 40
1.0
 40
1.0
 40
2.0
 40
2.0
 40
2.0
 40
3.0
 40
3.0
 40
3.0
 40
4.0
 40
4.0
 40
4.0
 40
5.0
 40
5.0
 40
5.0
 40
6.0
 40
6.0
 40
6.0
 40
7.0
 40
7.0
 40
7.0
 40
7.0
 10
11.30766571694951
 20
7.519684265531357
 30
0.0
 10
11.21115413960111
 20
7.686171650488795
 30
0.0
 10
11.3528748061351
 20
7.922241720540606
 30
0.0
 10
11.54294954197202
 20
7.925190139400544
 30
0.0
 10
11.63670926171784
 20
7.937573498612247
 30
0.0
 10
11.74344202444733
 20
7.915362076534101
 30
0.0
 10
11.78530957225836
 20
7.820226427986981
 30
0.0
 10
11.68565301479269
 20
7.860521485739379
 30
0.0
 10
11.58009961960715
 20
7.876639508840336
 30
0.0
 10
11.47297373436297
 20
7.865828639687239
 30
0.0
 10
11.38157274970513
 20
7.793494096990279
 30
0.0
 10
11.28918895876063
 20
7.671429556189145
 30
0.0
 10
11.35346448990711
 20
7.551723750475944
 30
0.0
 10
11.41302255087772
 20
7.396636918443542
 30
0.0
 10
11.62019811610221
 20
7.367938974873557
 30
0.0
 10
11.74639044330728
 20
7.45796403073013
 30
0.0
 10
11.74698012707924
 20
7.43732509871063
 30
0.0
 10
11.74776637210856
 20
7.416489605433765
 30
0.0
 10
11.74874917839521
 20
7.395654112156913
 30
0.0
 10
11.60054199036934
 20
7.307398107616298
 30
0.0
 10
11.37862433084521
 20
7.354572809375225
 30
0.0
 10
11.30766571694951
 20
7.519684265531357
 30
0.0
  0
HATCH
  5
9A
330
79
100
AcDbEntity
  8
Layer 1
 62
    18
420
        0
440
 33554687
100
AcDbHatch
 10
0.0
 20
0.0
 30
0.0
210
0.0
220
0.0
230
1.0
  2
SOLID
 70
     1
 71
     1
 91
        1
 92
        1
 93
        1
 72
     4
 94
        3
 73
     0
 74
     0
 95
       26
 96
       22
 40
0.0
 40
0.0
 40
0.0
 40
0.0
 40
1.0
 40
1.0
 40
1.0
 40
2.0
 40
2.0
 40
2.0
 40
3.0
 40
3.0
 40
3.0
 40
4.0
 40
4.0
 40
4.0
 40
5.0
 40
5.0
 40
5.0
 40
6.0
 40
6.0
 40
6.0
 40
7.0
 40
7.0
 40
7.0
 40
7.0
 10
11.30766571694951
 20
7.519684265531357
 10
11.21115413960111
 20
7.686171650488795
 10
11.3528748061351
 20
7.922241720540606
 10
11.54294954197202
 20
7.925190139400544
 10
11.63670926171784
 20
7.937573498612247
 10
11.74344202444733
 20
7.915362076534101
 10
11.78530957225836
 20
7.820226427986981
 10
11.68565301479269
 20
7.860521485739379
 10
11.58009961960715
 20
7.876639508840336
 10
11.47297373436297
 20
7.865828639687239
 10
11.38157274970513
 20
7.793494096990279
 10
11.28918895876063
 20
7.671429556189145
 10
11.35346448990711
 20
7.551723750475944
 10
11.41302255087772
 20
7.396636918443542
 10
11.62019811610221
 20
7.367938974873557
 10
11.74639044330728
 20
7.45796403073013
 10
11.74698012707924
 20
7.43732509871063
 10
11.74776637210856
 20
7.416489605433765
 10
11.74874917839521
 20
7.395654112156913
 10
11.60054199036934
 20
7.307398107616298
 10
11.37862433084521
 20
7.354572809375225
 10
11.30766571694951
 20
7.519684265531357
 97
        0
 97
        1
330
99
 75
     2
 76
     1
 98
        1
 10
0.0
 20
0.0
450
        0
451
        0
460
0.0
461
0.0
452
        0
462
0.0
453
        0
470

  0
SPLINE
  5
9B
330
79
100
AcDbEntity
  8
Layer 1
100
AcDbSpline
210
0.0
220
0.0
230
1.0
 70
     9
 71
     3
 72
    17
 73
    13
 74
     0
 42
0.0000000001
 43
0.0000000001
 40
0.0
 40
0.0
 40
0.0
 40
0.0
 40
1.0
 40
1.0
 40
1.0
 40
2.0
 40
2.0
 40
2.0
 40
3.0
 40
3.0
 40
3.0
 40
4.0
 40
4.0
 40
4.0
 40
4.0
 10
12.34334698181462
 20
7.811774293921845
 30
0.0
 10
12.31366623195799
 20
7.730397933387759
 30
0.0
 10
12.27356773546293
 20
7.653345920514892
 30
0.0
 10
12.24408354686362
 20
7.571969559980793
 30
0.0
 10
12.3301773775736
 20
7.55329624053455
 30
0.0
 10
12.42039899468751
 20
7.541109442580199
 30
0.0
 10
12.50551001911084
 20
7.57255924375277
 30
0.0
 10
12.46659089015973
 20
7.647252521537691
 30
0.0
 10
12.42924425126729
 20
7.723125166866603
 30
0.0
 10
12.40585346164516
 20
7.804304966143376
 30
0.0
 10
12.38482140711099
 20
7.80705682374595
 30
0.0
 10
12.36398591383416
 20
7.809415558833897
 30
0.0
 10
12.34334698181462
 20
7.811774293921845
 30
0.0
  0
SPLINE
  5
9C
330
79
100
AcDbEntity
  8
Layer 1
100
AcDbSpline
210
0.0
220
0.0
230
1.0
 70
     9
 71
     3
 72
    29
 73
    25
 74
     0
 42
0.0000000001
 43
0.0000000001
 40
0.0
 40
0.0
 40
0.0
 40
0.0
 40
1.0
 40
1.0
 40
1.0
 40
2.0
 40
2.0
 40
2.0
 40
3.0
 40
3.0
 40
3.0
 40
4.0
 40
4.0
 40
4.0
 40
5.0
 40
5.0
 40
5.0
 40
6.0
 40
6.0
 40
6.0
 40
7.0
 40
7.0
 40
7.0
 40
8.0
 40
8.0
 40
8.0
 40
8.0
 10
12.34177449175601
 20
7.923027965569909
 30
0.0
 10
12.3622168625182
 20
7.922831404312583
 30
0.0
 10
12.38324891705235
 20
7.922241720540606
 30
0.0
 10
12.40428097158653
 20
7.921455475511278
 30
0.0
 10
12.48329859703271
 20
7.735705087335619
 30
0.0
 10
12.57273396911728
 20
7.554279046821205
 30
0.0
 10
12.6572553097686
 20
7.370690832476169
 30
0.0
 10
12.63583013271978
 20
7.369904587446853
 30
0.0
 10
12.61440495567098
 20
7.368725219902873
 30
0.0
 10
12.59337290113678
 20
7.367545852358918
 30
0.0
 10
12.57371677540389
 20
7.416686166691091
 30
0.0
 10
12.55111223081108
 20
7.464450552221983
 30
0.0
 10
12.52791800244631
 20
7.512018376495537
 30
0.0
 10
12.42491990360604
 20
7.51221493775285
 30
0.0
 10
12.32211836602314
 20
7.511232131466208
 30
0.0
 10
12.21912026718285
 20
7.511821815238211
 30
0.0
 10
12.18924295606888
 20
7.463467745935341
 30
0.0
 10
12.16408311513083
 20
7.412165257772534
 30
0.0
 10
12.14816165328718
 20
7.357324666977824
 30
0.0
 10
12.12830896629697
 20
7.356734983205846
 30
0.0
 10
12.10845627930679
 20
7.356341860691145
 30
0.0
 10
12.08880015357393
 20
7.355555615661854
 30
0.0
 10
12.16133125752823
 20
7.549561576645323
 30
0.0
 10
12.25961188619259
 20
7.732953229733033
 30
0.0
 10
12.34177449175601
 20
7.923027965569909
 30
0.0
  0
HATCH
  5
9D
330
79
100
AcDbEntity
  8
Layer 1
 62
    18
420
        0
440
 33554687
100
AcDbHatch
 10
0.0
 20
0.0
 30
0.0
210
0.0
220
0.0
230
1.0
  2
SOLID
 70
     1
 71
     1
 91
        2
 92
        1
 93
        1
 72
     4
 94
        3
 73
     0
 74
     0
 95
       17
 96
       13
 40
0.0
 40
0.0
 40
0.0
 40
0.0
 40
1.0
 40
1.0
 40
1.0
 40
2.0
 40
2.0
 40
2.0
 40
3.0
 40
3.0
 40
3.0
 40
4.0
 40
4.0
 40
4.0
 40
4.0
 10
12.34334698181462
 20
7.811774293921845
 10
12.31366623195799
 20
7.730397933387759
 10
12.27356773546293
 20
7.653345920514892
 10
12.24408354686362
 20
7.571969559980793
 10
12.3301773775736
 20
7.55329624053455
 10
12.42039899468751
 20
7.541109442580199
 10
12.50551001911084
 20
7.57255924375277
 10
12.46659089015973
 20
7.647252521537691
 10
12.42924425126729
 20
7.723125166866603
 10
12.40585346164516
 20
7.804304966143376
 10
12.38482140711099
 20
7.80705682374595
 10
12.36398591383416
 20
7.809415558833897
 10
12.34334698181462
 20
7.811774293921845
 97
        0
 97
        1
330
9B
 92
        1
 93
        1
 72
     4
 94
        3
 73
     0
 74
     0
 95
       29
 96
       25
 40
0.0
 40
0.0
 40
0.0
 40
0.0
 40
1.0
 40
1.0
 40
1.0
 40
2.0
 40
2.0
 40
2.0
 40
3.0
 40
3.0
 40
3.0
 40
4.0
 40
4.0
 40
4.0
 40
5.0
 40
5.0
 40
5.0
 40
6.0
 40
6.0
 40
6.0
 40
7.0
 40
7.0
 40
7.0
 40
8.0
 40
8.0
 40
8.0
 40
8.0
 10
12.34177449175601
 20
7.923027965569909
 10
12.3622168625182
 20
7.922831404312583
 10
12.38324891705235
 20
7.922241720540606
 10
12.40428097158653
 20
7.921455475511278
 10
12.48329859703271
 20
7.735705087335619
 10
12.57273396911728
 20
7.554279046821205
 10
12.6572553097686
 20
7.370690832476169
 10
12.63583013271978
 20
7.369904587446853
 10
12.61440495567098
 20
7.368725219902873
 10
12.59337290113678
 20
7.367545852358918
 10
12.57371677540389
 20
7.416686166691091
 10
12.55111223081108
 20
7.464450552221983
 10
12.52791800244631
 20
7.512018376495537
 10
12.42491990360604
 20
7.51221493775285
 10
12.32211836602314
 20
7.511232131466208
 10
12.21912026718285
 20
7.511821815238211
 10
12.18924295606888
 20
7.463467745935341
 10
12.16408311513083
 20
7.412165257772534
 10
12.14816165328718
 20
7.357324666977824
 10
12.12830896629697
 20
7.356734983205846
 10
12.10845627930679
 20
7.356341860691145
 10
12.08880015357393
 20
7.355555615661854
 10
12.16133125752823
 20
7.549561576645323
 10
12.25961188619259
 20
7.732953229733033
 10
12.34177449175601
 20
7.923027965569909
 97
        0
 97
        1
330
9C
 75
     2
 76
     1
 98
        1
 10
0.0
 20
0.0
450
        0
451
        0
460
0.0
461
0.0
452
        0
462
0.0
453
        0
470

  0
SPLINE
  5
9E
330
79
100
AcDbEntity
  8
Layer 1
100
AcDbSpline
210
0.0
220
0.0
230
1.0
 70
     9
 71
     3
 72
    38
 73
    34
 74
     0
 42
0.0000000001
 43
0.0000000001
 40
0.0
 40
0.0
 40
0.0
 40
0.0
 40
1.0
 40
1.0
 40
1.0
 40
2.0
 40
2.0
 40
2.0
 40
3.0
 40
3.0
 40
3.0
 40
4.0
 40
4.0
 40
4.0
 40
5.0
 40
5.0
 40
5.0
 40
6.0
 40
6.0
 40
6.0
 40
7.0
 40
7.0
 40
7.0
 40
8.0
 40
8.0
 40
8.0
 40
9.0
 40
9.0
 40
9.0
 40
10.0
 40
10.0
 40
10.0
 40
11.0
 40
11.0
 40
11.0
 40
11.0
 10
13.02266268714274
 20
7.904944329895682
 30
0.0
 10
13.03878071024371
 20
7.91319990270348
 30
0.0
 10
13.05489873334467
 20
7.921258914253964
 30
0.0
 10
13.07140987896026
 20
7.929121364547123
 30
0.0
 10
13.15396560703834
 20
7.788776626814384
 30
0.0
 10
13.23573509008709
 20
7.647449082795029
 30
0.0
 10
13.32576014594364
 20
7.511821815238211
 30
0.0
 10
13.41676800808687
 20
7.652363114228251
 30
0.0
 10
13.49303377593042
 20
7.801946231055403
 30
0.0
 10
13.58600725064689
 20
7.941111601244149
 30
0.0
 10
13.64772748544813
 20
7.757523386899126
 30
0.0
 10
13.59819404860127
 20
7.549954699159974
 30
0.0
 10
13.61254302038628
 20
7.35693154446316
 30
0.0
 10
13.59367313968272
 20
7.356341860691145
 30
0.0
 10
13.57480325897917
 20
7.35575217691918
 30
0.0
 10
13.55612993953293
 20
7.354769370632525
 30
0.0
 10
13.55278839815835
 20
7.492755373277317
 30
0.0
 10
13.56084740970882
 20
7.630741375922083
 30
0.0
 10
13.55062622432773
 20
7.768334256052185
 30
0.0
 10
13.45824243338322
 20
7.663763667153299
 30
0.0
 10
13.40635026144842
 20
7.531871063485734
 30
0.0
 10
13.32418765588502
 20
7.420224269322993
 30
0.0
 10
13.23868350894703
 20
7.532264186000398
 30
0.0
 10
13.17480110031518
 20
7.658653074462752
 30
0.0
 10
13.10679090527944
 20
7.781700421550554
 30
0.0
 10
13.05981276477789
 20
7.642338490104482
 30
0.0
 10
13.09440754606775
 20
7.492755373277317
 30
0.0
 10
13.08281043188534
 20
7.348479410398024
 30
0.0
 10
13.06315430615247
 20
7.358700595779118
 30
0.0
 10
13.02285924840007
 20
7.352803758059255
 30
0.0
 10
13.02561110600268
 20
7.384253559231852
 30
0.0
 10
13.0197142682828
 20
7.55781714945312
 30
0.0
 10
13.02482486097339
 20
7.731577300931714
 30
0.0
 10
13.02266268714274
 20
7.904944329895682
 30
0.0
  0
HATCH
  5
9F
330
79
100
AcDbEntity
  8
Layer 1
 62
    18
420
        0
440
 33554687
100
AcDbHatch
 10
0.0
 20
0.0
 30
0.0
210
0.0
220
0.0
230
1.0
  2
SOLID
 70
     1
 71
     1
 91
        1
 92
        1
 93
        1
 72
     4
 94
        3
 73
     0
 74
     0
 95
       38
 96
       34
 40
0.0
 40
0.0
 40
0.0
 40
0.0
 40
1.0
 40
1.0
 40
1.0
 40
2.0
 40
2.0
 40
2.0
 40
3.0
 40
3.0
 40
3.0
 40
4.0
 40
4.0
 40
4.0
 40
5.0
 40
5.0
 40
5.0
 40
6.0
 40
6.0
 40
6.0
 40
7.0
 40
7.0
 40
7.0
 40
8.0
 40
8.0
 40
8.0
 40
9.0
 40
9.0
 40
9.0
 40
10.0
 40
10.0
 40
10.0
 40
11.0
 40
11.0
 40
11.0
 40
11.0
 10
13.02266268714274
 20
7.904944329895682
 10
13.03878071024371
 20
7.91319990270348
 10
13.05489873334467
 20
7.921258914253964
 10
13.07140987896026
 20
7.929121364547123
 10
13.15396560703834
 20
7.788776626814384
 10
13.23573509008709
 20
7.647449082795029
 10
13.32576014594364
 20
7.511821815238211
 10
13.41676800808687
 20
7.652363114228251
 10
13.49303377593042
 20
7.801946231055403
 10
13.58600725064689
 20
7.941111601244149
 10
13.64772748544813
 20
7.757523386899126
 10
13.59819404860127
 20
7.549954699159974
 10
13.61254302038628
 20
7.35693154446316
 10
13.59367313968272
 20
7.356341860691145
 10
13.57480325897917
 20
7.35575217691918
 10
13.55612993953293
 20
7.354769370632525
 10
13.55278839815835
 20
7.492755373277317
 10
13.56084740970882
 20
7.630741375922083
 10
13.55062622432773
 20
7.768334256052185
 10
13.45824243338322
 20
7.663763667153299
 10
13.40635026144842
 20
7.531871063485734
 10
13.32418765588502
 20
7.420224269322993
 10
13.23868350894703
 20
7.532264186000398
 10
13.17480110031518
 20
7.658653074462752
 10
13.10679090527944
 20
7.781700421550554
 10
13.05981276477789
 20
7.642338490104482
 10
13.09440754606775
 20
7.492755373277317
 10
13.08281043188534
 20
7.348479410398024
 10
13.06315430615247
 20
7.358700595779118
 10
13.02285924840007
 20
7.352803758059255
 10
13.02561110600268
 20
7.384253559231852
 10
13.0197142682828
 20
7.55781714945312
 10
13.02482486097339
 20
7.731577300931714
 10
13.02266268714274
 20
7.904944329895682
 97
        0
 97
        1
330
9E
 75
     2
 76
     1
 98
        1
 10
0.0
 20
0.0
450
        0
451
        0
460
0.0
461
0.0
452
        0
462
0.0
453
        0
470

  0
SPLINE
  5
A0
330
79
100
AcDbEntity
  8
Layer 1
100
AcDbSpline
210
0.0
220
0.0
230
1.0
 70
     9
 71
     3
 72
    17
 73
    13
 74
     0
 42
0.0000000001
 43
0.0000000001
 40
0.0
 40
0.0
 40
0.0
 40
0.0
 40
1.0
 40
1.0
 40
1.0
 40
2.0
 40
2.0
 40
2.0
 40
3.0
 40
3.0
 40
3.0
 40
4.0
 40
4.0
 40
4.0
 40
4.0
 10
14.13225098476344
 20
7.5939844208016
 30
0.0
 10
14.23269378725844
 20
7.584156357935171
 30
0.0
 10
14.35888611446349
 20
7.570790192436826
 30
0.0
 10
14.42964816710183
 20
7.659242758234768
 30
0.0
 10
14.46443950964902
 20
7.735115403563642
 30
0.0
 10
14.43475875979238
 20
7.831626980912043
 30
0.0
 10
14.35318583800096
 20
7.861700853283347
 30
0.0
 10
14.27672350890009
 20
7.871528916149777
 30
0.0
 10
14.19947493476989
 20
7.866614884716555
 30
0.0
 10
14.12301260566902
 20
7.865238955915274
 30
0.0
 10
14.14089968008592
 20
7.775213900058702
 30
0.0
 10
14.08311067043127
 20
7.674181413791743
 30
0.0
 10
14.13225098476344
 20
7.5939844208016
 30
0.0
  0
SPLINE
  5
A1
330
79
100
AcDbEntity
  8
Layer 1
100
AcDbSpline
210
0.0
220
0.0
230
1.0
 70
     9
 71
     3
 72
    20
 73
    16
 74
     0
 42
0.0000000001
 43
0.0000000001
 40
0.0
 40
0.0
 40
0.0
 40
0.0
 40
1.0
 40
1.0
 40
1.0
 40
2.0
 40
2.0
 40
2.0
 40
3.0
 40
3.0
 40
3.0
 40
4.0
 40
4.0
 40
4.0
 40
5.0
 40
5.0
 40
5.0
 40
5.0
 10
14.06384766721306
 20
7.923814210599238
 30
0.0
 10
14.2297453683985
 20
7.930693854605729
 30
0.0
 10
14.47682286886073
 20
7.955657134286499
 30
0.0
 10
14.51593855906915
 20
7.739439751224873
 30
0.0
 10
14.49136840190307
 20
7.685188844202141
 30
0.0
 10
14.48114721652195
 20
7.618751139225031
 30
0.0
 10
14.43200690218978
 20
7.579635449016627
 30
0.0
 10
14.33903342747329
 20
7.522632684391295
 30
0.0
 10
14.22660038828125
 20
7.529315767140448
 30
0.0
 10
14.12202979938236
 20
7.531281379713732
 30
0.0
 10
14.12045730932372
 20
7.46327118467799
 30
0.0
 10
14.14129280260058
 20
7.378356721511989
 30
0.0
 10
14.06876169864628
 20
7.337865102502266
 30
0.0
 10
14.05578865566259
 20
7.532853869772376
 30
0.0
 10
14.06345454469839
 20
7.728628882071789
 30
0.0
 10
14.06384766721306
 20
7.923814210599238
 30
0.0
  0
HATCH
  5
A2
330
79
100
AcDbEntity
  8
Layer 1
 62
    18
420
        0
440
 33554687
100
AcDbHatch
 10
0.0
 20
0.0
 30
0.0
210
0.0
220
0.0
230
1.0
  2
SOLID
 70
     1
 71
     1
 91
        2
 92
        1
 93
        1
 72
     4
 94
        3
 73
     0
 74
     0
 95
       17
 96
       13
 40
0.0
 40
0.0
 40
0.0
 40
0.0
 40
1.0
 40
1.0
 40
1.0
 40
2.0
 40
2.0
 40
2.0
 40
3.0
 40
3.0
 40
3.0
 40
4.0
 40
4.0
 40
4.0
 40
4.0
 10
14.13225098476344
 20
7.5939844208016
 10
14.23269378725844
 20
7.584156357935171
 10
14.35888611446349
 20
7.570790192436826
 10
14.42964816710183
 20
7.659242758234768
 10
14.46443950964902
 20
7.735115403563642
 10
14.43475875979238
 20
7.831626980912043
 10
14.35318583800096
 20
7.861700853283347
 10
14.27672350890009
 20
7.871528916149777
 10
14.19947493476989
 20
7.866614884716555
 10
14.12301260566902
 20
7.865238955915274
 10
14.14089968008592
 20
7.775213900058702
 10
14.08311067043127
 20
7.674181413791743
 10
14.13225098476344
 20
7.5939844208016
 97
        0
 97
        1
330
A0
 92
        1
 93
        1
 72
     4
 94
        3
 73
     0
 74
     0
 95
       20
 96
       16
 40
0.0
 40
0.0
 40
0.0
 40
0.0
 40
1.0
 40
1.0
 40
1.0
 40
2.0
 40
2.0
 40
2.0
 40
3.0
 40
3.0
 40
3.0
 40
4.0
 40
4.0
 40
4.0
 40
5.0
 40
5.0
 40
5.0
 40
5.0
 10
14.06384766721306
 20
7.923814210599238
 10
14.2297453683985
 20
7.930693854605729
 10
14.47682286886073
 20
7.955657134286499
 10
14.51593855906915
 20
7.739439751224873
 10
14.49136840190307
 20
7.685188844202141
 10
14.48114721652195
 20
7.618751139225031
 10
14.43200690218978
 20
7.579635449016627
 10
14.33903342747329
 20
7.522632684391295
 10
14.22660038828125
 20
7.529315767140448
 10
14.12202979938236
 20
7.531281379713732
 10
14.12045730932372
 20
7.46327118467799
 10
14.14129280260058
 20
7.378356721511989
 10
14.06876169864628
 20
7.337865102502266
 10
14.05578865566259
 20
7.532853869772376
 10
14.06345454469839
 20
7.728628882071789
 10
14.06384766721306
 20
7.923814210599238
 97
        0
 97
        1
330
A1
 75
     2
 76
     1
 98
        1
 10
0.0
 20
0.0
450
        0
451
        0
460
0.0
461
0.0
452
        0
462
0.0
453
        0
470

  0
SPLINE
  5
A3
330
79
100
AcDbEntity
  8
Layer 1
100
AcDbSpline
210
0.0
220
0.0
230
1.0
 70
     9
 71
     3
 72
    17
 73
    13
 74
     0
 42
0.0000000001
 43
0.0000000001
 40
0.0
 40
0.0
 40
0.0
 40
0.0
 40
1.0
 40
1.0
 40
1.0
 40
2.0
 40
2.0
 40
2.0
 40
3.0
 40
3.0
 40
3.0
 40
4.0
 40
4.0
 40
4.0
 40
4.0
 10
3.275779619982674
 20
7.905730574924985
 30
0.0
 10
3.290914836796995
 20
7.90553401366766
 30
0.0
 10
3.320988709168299
 20
7.904944329895682
 30
0.0
 10
3.336123925982595
 20
7.904747768638344
 30
0.0
 10
3.316074677735065
 20
7.726073585726516
 30
0.0
 10
3.37052214601513
 20
7.546809719042723
 30
0.0
 10
3.335927364725269
 20
7.370494271218831
 30
0.0
 10
3.315288432705756
 20
7.370297709961517
 30
0.0
 10
3.294846061943574
 20
7.369904587446853
 30
0.0
 10
3.274403691181387
 20
7.369314903674876
 30
0.0
 10
3.276369303754664
 20
7.548185647844004
 30
0.0
 10
3.275583058725354
 20
7.726859830755844
 30
0.0
 10
3.275779619982674
 20
7.905730574924985
 30
0.0
  0
HATCH
  5
A4
330
79
100
AcDbEntity
  8
Layer 1
 62
    18
420
        0
440
 33554687
100
AcDbHatch
 10
0.0
 20
0.0
 30
0.0
210
0.0
220
0.0
230
1.0
  2
SOLID
 70
     1
 71
     1
 91
        1
 92
        1
 93
        1
 72
     4
 94
        3
 73
     0
 74
     0
 95
       17
 96
       13
 40
0.0
 40
0.0
 40
0.0
 40
0.0
 40
1.0
 40
1.0
 40
1.0
 40
2.0
 40
2.0
 40
2.0
 40
3.0
 40
3.0
 40
3.0
 40
4.0
 40
4.0
 40
4.0
 40
4.0
 10
3.275779619982674
 20
7.905730574924985
 10
3.290914836796995
 20
7.90553401366766
 10
3.320988709168299
 20
7.904944329895682
 10
3.336123925982595
 20
7.904747768638344
 10
3.316074677735065
 20
7.726073585726516
 10
3.37052214601513
 20
7.546809719042723
 10
3.335927364725269
 20
7.370494271218831
 10
3.315288432705756
 20
7.370297709961517
 10
3.294846061943574
 20
7.369904587446853
 10
3.274403691181387
 20
7.369314903674876
 10
3.276369303754664
 20
7.548185647844004
 10
3.275583058725354
 20
7.726859830755844
 10
3.275779619982674
 20
7.905730574924985
 97
        0
 97
        1
330
A3
 75
     2
 76
     1
 98
        1
 10
0.0
 20
0.0
450
        0
451
        0
460
0.0
461
0.0
452
        0
462
0.0
453
        0
470

  0
SPLINE
  5
A5
330
79
100
AcDbEntity
  8
Layer 1
100
AcDbSpline
210
0.0
220
0.0
230
1.0
 70
     9
 71
     3
 72
    41
 73
    37
 74
     0
 42
0.0000000001
 43
0.0000000001
 40
0.0
 40
0.0
 40
0.0
 40
0.0
 40
1.0
 40
1.0
 40
1.0
 40
2.0
 40
2.0
 40
2.0
 40
3.0
 40
3.0
 40
3.0
 40
4.0
 40
4.0
 40
4.0
 40
5.0
 40
5.0
 40
5.0
 40
6.0
 40
6.0
 40
6.0
 40
7.0
 40
7.0
 40
7.0
 40
8.0
 40
8.0
 40
8.0
 40
9.0
 40
9.0
 40
9.0
 40
10.0
 40
10.0
 40
10.0
 40
11.0
 40
11.0
 40
11.0
 40
12.0
 40
12.0
 40
12.0
 40
12.0
 10
3.843645092405413
 20
6.921548359479995
 30
0.0
 10
3.988707300314015
 20
6.92508646211191
 30
0.0
 10
4.133769508222599
 20
6.923710533310617
 30
0.0
 10
4.27883171613122
 20
6.923317410795966
 30
0.0
 10
4.28138701247648
 20
6.460612211044108
 30
0.0
 10
4.279421399903222
 20
5.997907011292277
 30
0.0
 10
4.280011083675193
 20
5.53520181154042
 30
0.0
 10
4.28138701247648
 20
5.42709312000962
 30
0.0
 10
4.271558949610051
 20
5.317608499677513
 30
0.0
 10
4.296129106776137
 20
5.211268859462683
 30
0.0
 10
4.795787822905796
 20
5.211858543234661
 30
0.0
 10
5.297608712866058
 20
5.200457990309587
 30
0.0
 10
5.792549958819815
 20
5.273775339293213
 30
0.0
 10
6.174665043066903
 20
5.334119645293134
 30
0.0
 10
6.60139953272758
 20
5.398002053924983
 30
0.0
 10
6.88267869196501
 20
5.690681766087436
 30
0.0
 10
6.984104300746606
 20
5.782082750745328
 30
0.0
 10
6.999042956303608
 20
5.923017172250006
 30
0.0
 10
7.044055484231888
 20
6.044295468021851
 30
0.0
 10
7.097323584967991
 20
5.758495399865851
 30
0.0
 10
7.05270417955435
 20
5.45991884998351
 30
0.0
 10
7.068035957626003
 20
5.169008189136989
 30
0.0
 10
5.835400312917499
 20
5.169204750394315
 30
0.0
 10
4.602764668208976
 20
5.165863209019726
 30
0.0
 10
3.370129023500485
 20
5.170580679195621
 30
0.0
 10
3.37052214601513
 20
5.179425935775409
 30
0.0
 10
3.37111182978712
 20
5.197116448934997
 30
0.0
 10
3.371504952301771
 20
5.205961705514773
 30
0.0
 10
3.49258668681629
 20
5.233087159026139
 30
0.0
 10
3.63823857849687
 20
5.254905458589632
 30
0.0
 10
3.701531303356729
 20
5.377363121905457
 30
0.0
 10
3.829689243135059
 20
5.595939240055018
 30
0.0
 10
3.827330508047124
 20
5.859527886132847
 30
0.0
 10
3.826740824275121
 20
6.105229457793749
 30
0.0
 10
3.857011257903738
 20
6.376090870392746
 30
0.0
 10
3.837355132170885
 20
6.64950757933703
 30
0.0
 10
3.843645092405413
 20
6.921548359479995
 30
0.0
  0
HATCH
  5
A6
330
79
100
AcDbEntity
  8
Layer 1
 62
    18
420
        0
440
 33554687
100
AcDbHatch
 10
0.0
 20
0.0
 30
0.0
210
0.0
220
0.0
230
1.0
  2
SOLID
 70
     1
 71
     1
 91
        1
 92
        1
 93
        1
 72
     4
 94
        3
 73
     0
 74
     0
 95
       41
 96
       37
 40
0.0
 40
0.0
 40
0.0
 40
0.0
 40
1.0
 40
1.0
 40
1.0
 40
2.0
 40
2.0
 40
2.0
 40
3.0
 40
3.0
 40
3.0
 40
4.0
 40
4.0
 40
4.0
 40
5.0
 40
5.0
 40
5.0
 40
6.0
 40
6.0
 40
6.0
 40
7.0
 40
7.0
 40
7.0
 40
8.0
 40
8.0
 40
8.0
 40
9.0
 40
9.0
 40
9.0
 40
10.0
 40
10.0
 40
10.0
 40
11.0
 40
11.0
 40
11.0
 40
12.0
 40
12.0
 40
12.0
 40
12.0
 10
3.843645092405413
 20
6.921548359479995
 10
3.988707300314015
 20
6.92508646211191
 10
4.133769508222599
 20
6.923710533310617
 10
4.27883171613122
 20
6.923317410795966
 10
4.28138701247648
 20
6.460612211044108
 10
4.279421399903222
 20
5.997907011292277
 10
4.280011083675193
 20
5.53520181154042
 10
4.28138701247648
 20
5.42709312000962
 10
4.271558949610051
 20
5.317608499677513
 10
4.296129106776137
 20
5.211268859462683
 10
4.795787822905796
 20
5.211858543234661
 10
5.297608712866058
 20
5.200457990309587
 10
5.792549958819815
 20
5.273775339293213
 10
6.174665043066903
 20
5.334119645293134
 10
6.60139953272758
 20
5.398002053924983
 10
6.88267869196501
 20
5.690681766087436
 10
6.984104300746606
 20
5.782082750745328
 10
6.999042956303608
 20
5.923017172250006
 10
7.044055484231888
 20
6.044295468021851
 10
7.097323584967991
 20
5.758495399865851
 10
7.05270417955435
 20
5.45991884998351
 10
7.068035957626003
 20
5.169008189136989
 10
5.835400312917499
 20
5.169204750394315
 10
4.602764668208976
 20
5.165863209019726
 10
3.370129023500485
 20
5.170580679195621
 10
3.37052214601513
 20
5.179425935775409
 10
3.37111182978712
 20
5.197116448934997
 10
3.371504952301771
 20
5.205961705514773
 10
3.49258668681629
 20
5.233087159026139
 10
3.63823857849687
 20
5.254905458589632
 10
3.701531303356729
 20
5.377363121905457
 10
3.829689243135059
 20
5.595939240055018
 10
3.827330508047124
 20
5.859527886132847
 10
3.826740824275121
 20
6.105229457793749
 10
3.857011257903738
 20
6.376090870392746
 10
3.837355132170885
 20
6.64950757933703
 10
3.843645092405413
 20
6.921548359479995
 97
        0
 97
        1
330
A5
 75
     2
 76
     1
 98
        1
 10
0.0
 20
0.0
450
        0
451
        0
460
0.0
461
0.0
452
        0
462
0.0
453
        0
470

  0
SPLINE
  5
A7
330
79
100
AcDbEntity
  8
Layer 1
100
AcDbSpline
210
0.0
220
0.0
230
1.0
 70
     9
 71
     3
 72
    20
 73
    16
 74
     0
 42
0.0000000001
 43
0.0000000001
 40
0.0
 40
0.0
 40
0.0
 40
0.0
 40
1.0
 40
1.0
 40
1.0
 40
2.0
 40
2.0
 40
2.0
 40
3.0
 40
3.0
 40
3.0
 40
4.0
 40
4.0
 40
4.0
 40
5.0
 40
5.0
 40
5.0
 40
5.0
 10
8.142439790184893
 20
6.939435433896909
 30
0.0
 10
8.157181884484543
 20
5.787586465950513
 30
0.0
 10
8.143422596471522
 20
4.63455813046015
 30
0.0
 10
8.147353821618075
 20
3.482316039999103
 30
0.0
 10
8.127304573370553
 20
3.482316039999103
 30
0.0
 10
8.107451886380355
 20
3.482119478741765
 30
0.0
 10
8.087795760647496
 20
3.4815297949698
 30
0.0
 10
8.101161926145827
 20
3.522611097751488
 30
0.0
 10
8.112365917813564
 20
3.564871768077157
 30
0.0
 10
8.110400305240279
 20
3.608115244689504
 30
0.0
 10
8.109810621468316
 20
4.68291219976302
 30
0.0
 10
8.110203743982941
 20
5.757709154836535
 30
0.0
 10
8.110596866497619
 20
6.832309548652737
 30
0.0
 10
8.110007182725642
 20
6.870638993831852
 30
0.0
 10
8.1296633084585
 20
6.904644091349736
 30
0.0
 10
8.142439790184893
 20
6.939435433896909
 30
0.0
  0
HATCH
  5
A8
330
79
100
AcDbEntity
  8
Layer 1
 62
    18
420
        0
440
 33554687
100
AcDbHatch
 10
0.0
 20
0.0
 30
0.0
210
0.0
220
0.0
230
1.0
  2
SOLID
 70
     1
 71
     1
 91
        1
 92
        1
 93
        1
 72
     4
 94
        3
 73
     0
 74
     0
 95
       20
 96
       16
 40
0.0
 40
0.0
 40
0.0
 40
0.0
 40
1.0
 40
1.0
 40
1.0
 40
2.0
 40
2.0
 40
2.0
 40
3.0
 40
3.0
 40
3.0
 40
4.0
 40
4.0
 40
4.0
 40
5.0
 40
5.0
 40
5.0
 40
5.0
 10
8.142439790184893
 20
6.939435433896909
 10
8.157181884484543
 20
5.787586465950513
 10
8.143422596471522
 20
4.63455813046015
 10
8.147353821618075
 20
3.482316039999103
 10
8.127304573370553
 20
3.482316039999103
 10
8.107451886380355
 20
3.482119478741765
 10
8.087795760647496
 20
3.4815297949698
 10
8.101161926145827
 20
3.522611097751488
 10
8.112365917813564
 20
3.564871768077157
 10
8.110400305240279
 20
3.608115244689504
 10
8.109810621468316
 20
4.68291219976302
 10
8.110203743982941
 20
5.757709154836535
 10
8.110596866497619
 20
6.832309548652737
 10
8.110007182725642
 20
6.870638993831852
 10
8.1296633084585
 20
6.904644091349736
 10
8.142439790184893
 20
6.939435433896909
 97
        0
 97
        1
330
A7
 75
     2
 76
     1
 98
        1
 10
0.0
 20
0.0
450
        0
451
        0
460
0.0
461
0.0
452
        0
462
0.0
453
        0
470

  0
SPLINE
  5
A9
330
79
100
AcDbEntity
  8
Layer 1
100
AcDbSpline
210
0.0
220
0.0
230
1.0
 70
     9
 71
     3
 72
    41
 73
    37
 74
     0
 42
0.0000000001
 43
0.0000000001
 40
0.0
 40
0.0
 40
0.0
 40
0.0
 40
1.0
 40
1.0
 40
1.0
 40
2.0
 40
2.0
 40
2.0
 40
3.0
 40
3.0
 40
3.0
 40
4.0
 40
4.0
 40
4.0
 40
5.0
 40
5.0
 40
5.0
 40
6.0
 40
6.0
 40
6.0
 40
7.0
 40
7.0
 40
7.0
 40
8.0
 40
8.0
 40
8.0
 40
9.0
 40
9.0
 40
9.0
 40
10.0
 40
10.0
 40
10.0
 40
11.0
 40
11.0
 40
11.0
 40
12.0
 40
12.0
 40
12.0
 40
12.0
 10
12.1638865538735
 20
6.922138043252011
 30
0.0
 10
12.29794133137169
 20
6.922924288281301
 30
0.0
 10
12.43199610886989
 20
6.925872707141226
 30
0.0
 10
12.5660508863681
 20
6.922138043252011
 30
0.0
 10
12.60536313783382
 20
6.927641758457184
 30
0.0
 10
12.62560894733868
 20
6.888132945734102
 30
0.0
 10
12.63130922380123
 20
6.855307215760212
 30
0.0
 10
12.6898844784852
 20
6.683316115597575
 30
0.0
 10
12.6708180365243
 20
6.498941656223223
 30
0.0
 10
12.66786961766436
 20
6.320660595826072
 30
0.0
 10
12.59848349382733
 20
5.9186928245888
 30
0.0
 10
12.30914532303944
 20
5.58414556461528
 30
0.0
 10
11.9677184190594
 20
5.378345928192098
 30
0.0
 10
11.50579946433687
 20
5.094118350094744
 30
0.0
 10
10.94265146209006
 20
5.028860012661589
 30
0.0
 10
10.41272231233178
 20
5.088221512374881
 30
0.0
 10
9.923481342840533
 20
5.169204750394315
 30
0.0
 10
9.469817960925814
 20
5.398198615182283
 30
0.0
 10
9.075122956209725
 20
5.692647378660757
 30
0.0
 10
9.084557896561515
 20
5.928914009969869
 30
0.0
 10
9.043083471265124
 20
6.175991510432102
 30
0.0
 10
9.098317184574511
 20
6.404788813962745
 30
0.0
 10
9.422250136652273
 20
5.903557607774486
 30
0.0
 10
9.866085455700549
 20
5.45284264471968
 30
0.0
 10
10.4408305721298
 20
5.253136407273674
 30
0.0
 10
10.66196198662462
 20
5.18551933475261
 30
0.0
 10
10.89528019907383
 20
5.143848348198907
 30
0.0
 10
11.12702592146441
 20
5.160556055071828
 30
0.0
 10
11.67602151318359
 20
5.18492965098062
 30
0.0
 10
12.23071738136526
 20
5.558002917390568
 30
0.0
 10
12.36889994526739
 20
6.106015702823078
 30
0.0
 10
12.38089018196442
 20
6.277023996699085
 30
0.0
 10
12.39288041866147
 20
6.456680985897529
 30
0.0
 10
12.32074243722182
 20
6.617271533135104
 30
0.0
 10
12.28732702347594
 20
6.729114888555159
 30
0.0
 10
12.1933707424728
 20
6.80931188154529
 30
0.0
 10
12.1638865538735
 20
6.922138043252011
 30
0.0
  0
HATCH
  5
AA
330
79
100
AcDbEntity
  8
Layer 1
 62
    18
420
        0
440
 33554687
100
AcDbHatch
 10
0.0
 20
0.0
 30
0.0
210
0.0
220
0.0
230
1.0
  2
SOLID
 70
     1
 71
     1
 91
        1
 92
        1
 93
        1
 72
     4
 94
        3
 73
     0
 74
     0
 95
       41
 96
       37
 40
0.0
 40
0.0
 40
0.0
 40
0.0
 40
1.0
 40
1.0
 40
1.0
 40
2.0
 40
2.0
 40
2.0
 40
3.0
 40
3.0
 40
3.0
 40
4.0
 40
4.0
 40
4.0
 40
5.0
 40
5.0
 40
5.0
 40
6.0
 40
6.0
 40
6.0
 40
7.0
 40
7.0
 40
7.0
 40
8.0
 40
8.0
 40
8.0
 40
9.0
 40
9.0
 40
9.0
 40
10.0
 40
10.0
 40
10.0
 40
11.0
 40
11.0
 40
11.0
 40
12.0
 40
12.0
 40
12.0
 40
12.0
 10
12.1638865538735
 20
6.922138043252011
 10
12.29794133137169
 20
6.922924288281301
 10
12.43199610886989
 20
6.925872707141226
 10
12.5660508863681
 20
6.922138043252011
 10
12.60536313783382
 20
6.927641758457184
 10
12.62560894733868
 20
6.888132945734102
 10
12.63130922380123
 20
6.855307215760212
 10
12.6898844784852
 20
6.683316115597575
 10
12.6708180365243
 20
6.498941656223223
 10
12.66786961766436
 20
6.320660595826072
 10
12.59848349382733
 20
5.9186928245888
 10
12.30914532303944
 20
5.58414556461528
 10
11.9677184190594
 20
5.378345928192098
 10
11.50579946433687
 20
5.094118350094744
 10
10.94265146209006
 20
5.028860012661589
 10
10.41272231233178
 20
5.088221512374881
 10
9.923481342840533
 20
5.169204750394315
 10
9.469817960925814
 20
5.398198615182283
 10
9.075122956209725
 20
5.692647378660757
 10
9.084557896561515
 20
5.928914009969869
 10
9.043083471265124
 20
6.175991510432102
 10
9.098317184574511
 20
6.404788813962745
 10
9.422250136652273
 20
5.903557607774486
 10
9.866085455700549
 20
5.45284264471968
 10
10.4408305721298
 20
5.253136407273674
 10
10.66196198662462
 20
5.18551933475261
 10
10.89528019907383
 20
5.143848348198907
 10
11.12702592146441
 20
5.160556055071828
 10
11.67602151318359
 20
5.18492965098062
 10
12.23071738136526
 20
5.558002917390568
 10
12.36889994526739
 20
6.106015702823078
 10
12.38089018196442
 20
6.277023996699085
 10
12.39288041866147
 20
6.456680985897529
 10
12.32074243722182
 20
6.617271533135104
 10
12.28732702347594
 20
6.729114888555159
 10
12.1933707424728
 20
6.80931188154529
 10
12.1638865538735
 20
6.922138043252011
 97
        0
 97
        1
330
A9
 75
     2
 76
     1
 98
        1
 10
0.0
 20
0.0
450
        0
451
        0
460
0.0
461
0.0
452
        0
462
0.0
453
        0
470

  0
ENDBLK
  5
7C
330
79
100
AcDbEntity
  8
0
100
AcDbBlockEnd
  0
ENDSEC
  0
SECTION
  2
ENTITIES
  0
INSERT
  5
7A
330
70
100
AcDbEntity
  8
Layer 1
100
AcDbBlockReference
  2
Block_0
 10
0.0
 20
0.0
 30
0.0
  0
CIRCLE
  5
AB
330
70
100
AcDbEntity
  8
Layer 1
 62
    18
420
        0
370
   158
100
AcDbCircle
 10
8.125000000000015
 20
7.596806702830664
 30
0.0
 40
7.419400118203328
  0
ENDSEC
  0
SECTION
  2
OBJECTS
  0
DICTIONARY
  5
C
330
0
100
AcDbDictionary
281
     1
  3
ACAD_COLOR
350
63
  3
ACAD_DETAILVIEWSTYLE
350
6A
  3
ACAD_GROUP
350
D
  3
ACAD_LAYOUT
350
62
  3
ACAD_MATERIAL
350
10
  3
ACAD_MLEADERSTYLE
350
66
  3
ACAD_MLINESTYLE
350
5F
  3
ACAD_PLOTSETTINGS
350
61
  3
ACAD_PLOTSTYLENAME
350
E
  3
ACAD_SCALELIST
350
42
  3
ACAD_SECTIONVIEWSTYLE
350
68
  3
ACAD_TABLESTYLE
350
64
  3
ACAD_VISUALSTYLE
350
29
  3
ACDB_RECOMPOSE_DATA
350
B4
  3
AcDbVariableDictionary
350
AC
  0
DICTIONARY
  5
63
102
{ACAD_REACTORS
330
C
102
}
330
C
100
AcDbDictionary
281
     1
  0
DICTIONARY
  5
6A
102
{ACAD_REACTORS
330
C
102
}
330
C
100
AcDbDictionary
281
     1
  3
Imperial24
350
6B
  0
DICTIONARY
  5
D
102
{ACAD_REACTORS
330
C
102
}
330
C
100
AcDbDictionary
281
     1
  0
DICTIONARY
  5
62
102
{ACAD_REACTORS
330
C
102
}
330
C
100
AcDbDictionary
281
     1
  3
Layout1
350
6F
  3
Layout2
350
77
  3
Model
350
73
  0
DICTIONARY
  5
10
102
{ACAD_REACTORS
330
C
102
}
330
C
100
AcDbDictionary
281
     1
  3
ByBlock
350
19
  3
ByLayer
350
11
  3
Global
350
21
  0
DICTIONARY
  5
66
102
{ACAD_REACTORS
330
C
102
}
330
C
100
AcDbDictionary
281
     1
  3
Standard
350
67
  0
DICTIONARY
  5
5F
102
{ACAD_REACTORS
330
C
102
}
330
C
100
AcDbDictionary
281
     1
  3
Standard
350
60
  0
DICTIONARY
  5
61
102
{ACAD_REACTORS
330
C
102
}
330
C
100
AcDbDictionary
281
     1
  0
ACDBDICTIONARYWDFLT
  5
E
102
{ACAD_REACTORS
330
C
102
}
330
C
100
AcDbDictionary
281
     1
  3
Normal
350
F
100
AcDbDictionaryWithDefault
340
F
  0
DICTIONARY
  5
42
102
{ACAD_REACTORS
330
C
102
}
330
C
100
AcDbDictionary
281
     1
  3
A0
350
43
  3
A1
350
44
  3
A2
350
45
  3
A3
350
46
  3
A4
350
47
  3
A5
350
48
  3
A6
350
49
  3
A7
350
4A
  3
A8
350
4B
  3
A9
350
4C
  3
B0
350
4D
  3
B1
350
4E
  3
B2
350
4F
  3
B3
350
50
  3
B4
350
51
  3
B5
350
52
  3
B6
350
53
  0
DICTIONARY
  5
68
102
{ACAD_REACTORS
330
C
102
}
330
C
100
AcDbDictionary
281
     1
  3
Imperial24
350
69
  0
DICTIONARY
  5
64
102
{ACAD_REACTORS
330
C
102
}
330
C
100
AcDbDictionary
281
     1
  3
Standard
350
65
  0
DICTIONARY
  5
29
102
{ACAD_REACTORS
330
C
102
}
330
C
100
AcDbDictionary
281
     1
  3
2dWireframe
350
2F
  3
Basic
350
2E
  3
Brighten
350
35
  3
ColorChange
350
39
  3
Conceptual
350
32
  3
Dim
350
34
  3
EdgeColorOff
350
41
  3
Facepattern
350
38
  3
Flat
350
2A
  3
FlatWithEdges
350
2B
  3
Gouraud
350
2C
  3
GouraudWithEdges
350
2D
  3
Hidden
350
31
  3
JitterOff
350
3F
  3
Linepattern
350
37
  3
OverhangOff
350
40
  3
Realistic
350
33
  3
Shaded
350
3E
  3
Shaded with edges
350
3D
  3
Shades of Gray
350
3A
  3
Sketchy
350
3B
  3
Thicken
350
36
  3
Wireframe
350
30
  3
X-Ray
350
3C
  0
XRECORD
  5
B4
102
{ACAD_REACTORS
330
C
102
}
330
C
100
AcDbXrecord
280
     1
 90
        1
330
65
  0
DICTIONARY
  5
AC
102
{ACAD_REACTORS
330
C
102
}
330
C
100
AcDbDictionary
281
     1
  3
CANNOSCALE
350
B1
  3
CMLEADERSTYLE
350
AE
  3
CTABLESTYLE
350
AD
  3
CVIEWDETAILSTYLE
350
AF
  3
CVIEWSECTIONSTYLE
350
B0
  0
ACDBDETAILVIEWSTYLE
  5
6B
102
{ACAD_REACTORS
330
6A
102
}
330
6A
100
AcDbModelDocViewStyle
 70
     0
  3
Imperial24
290
     1
300
Imperial24
 90
        0
100
AcDbDetailViewStyle
 70
     0
 71
     0
 90
        3
 71
     1
340
55
 62
   256
 40
0.24
340
0
 62
   256
 40
0.24
300

 40
0.36
280
     3
 71
     2
340
5D
 90
       25
 62
   256
 71
     3
340
55
 62
   256
 40
0.24
 90
        1
 40
0.75
 90
        1
300
%<\AcVar ViewType \f "%tc1">% %<\AcVar ViewDetailId>%\PSCALE %<\AcVar ViewScale \f "%sn">%
 71
     4
340
5D
 90
       25
 62
   256
340
5D
 90
       25
 62
   256
280
     0
  0
LAYOUT
  5
6F
102
{ACAD_REACTORS
330
62
102
}
330
62
100
AcDbPlotSettings
  1

  2

  4

  6

 40
0.0
 41
0.0
 42
0.0
 43
0.0
 44
0.0
 45
0.0
 46
0.0
 47
0.0
 48
0.0
 49
0.0
140
0.0
141
0.0
142
1.0
143
1.0
 70
   688
 72
     0
 73
     0
 74
     5
  7

 75
    16
147
1.0
 76
     0
 77
     2
 78
   300
148
0.0
149
0.0
100
AcDbLayout
  1
Layout1
 70
     1
 71
     1
 10
0.0
 20
0.0
 11
12.0
 21
9.0
 12
0.0
 22
0.0
 32
0.0
 14
0.0
 24
0.0
 34
0.0
 15
0.0
 25
0.0
 35
0.0
146
0.0
 13
0.0
 23
0.0
 33
0.0
 16
1.0
 26
0.0
 36
0.0
 17
0.0
 27
1.0
 37
0.0
 76
     0
330
6C
  0
LAYOUT
  5
77
102
{ACAD_REACTORS
330
62
102
}
330
62
100
AcDbPlotSettings
  1

  2

  4

  6

 40
0.0
 41
0.0
 42
0.0
 43
0.0
 44
0.0
 45
0.0
 46
0.0
 47
0.0
 48
0.0
 49
0.0
140
0.0
141
0.0
142
1.0
143
1.0
 70
   688
 72
     0
 73
     0
 74
     5
  7

 75
    16
147
1.0
 76
     0
 77
     2
 78
   300
148
0.0
149
0.0
100
AcDbLayout
  1
Layout2
 70
     1
 71
     2
 10
0.0
 20
0.0
 11
12.0
 21
9.0
 12
0.0
 22
0.0
 32
0.0
 14
0.0
 24
0.0
 34
0.0
 15
0.0
 25
0.0
 35
0.0
146
0.0
 13
0.0
 23
0.0
 33
0.0
 16
1.0
 26
0.0
 36
0.0
 17
0.0
 27
1.0
 37
0.0
 76
     0
330
74
  0
LAYOUT
  5
73
102
{ACAD_REACTORS
330
62
102
}
330
62
100
AcDbPlotSettings
  1

  2

  4

  6

 40
0.0
 41
0.0
 42
0.0
 43
0.0
 44
0.0
 45
0.0
 46
0.0
 47
0.0
 48
0.0
 49
0.0
140
0.0
141
0.0
142
1.0
143
1.0
 70
  1712
 72
     0
 73
     0
 74
     0
  7

 75
     0
147
1.0
 76
     0
 77
     2
 78
   300
148
0.0
149
0.0
100
AcDbLayout
  1
Model
 70
     1
 71
     0
 10
0.0
 20
0.0
 11
12.0
 21
9.0
 12
0.0
 22
0.0
 32
0.0
 14
0.0
 24
0.0
 34
0.0
 15
0.0
 25
0.0
 35
0.0
146
0.0
 13
0.0
 23
0.0
 33
0.0
 16
1.0
 26
0.0
 36
0.0
 17
0.0
 27
1.0
 37
0.0
 76
     0
330
70
  0
MATERIAL
  5
19
102
{ACAD_XDICTIONARY
360
1A
102
}
102
{ACAD_REACTORS
330
10
102
}
330
10
100
AcDbMaterial
  1
ByBlock
 72
     0
 43
0.0208333333333333
 43
0.0
 43
0.0
 43
0.0
 43
0.0
 43
0.0208333333333333
 43
0.0
 43
0.0
 43
0.0
 43
0.0
 43
1.0
 43
0.0
 43
0.0
 43
0.0
 43
0.0
 43
1.0
 77
     0
 47
0.0208333333333333
 47
0.0
 47
0.0
 47
0.0
 47
0.0
 47
0.0208333333333333
 47
0.0
 47
0.0
 47
0.0
 47
0.0
 47
1.0
 47
0.0
 47
0.0
 47
0.0
 47
0.0
 47
1.0
171
     0
 49
0.0208333333333333
 49
0.0
 49
0.0
 49
0.0
 49
0.0
 49
0.0208333333333333
 49
0.0
 49
0.0
 49
0.0
 49
0.0
 49
1.0
 49
0.0
 49
0.0
 49
0.0
 49
0.0
 49
1.0
175
     0
142
0.0208333333333333
142
0.0
142
0.0
142
0.0
142
0.0
142
0.0208333333333333
142
0.0
142
0.0
142
0.0
142
0.0
142
1.0
142
0.0
142
0.0
142
0.0
142
0.0
142
1.0
179
     0
144
0.0208333333333333
144
0.0
144
0.0
144
0.0
144
0.0
144
0.0208333333333333
144
0.0
144
0.0
144
0.0
144
0.0
144
1.0
144
0.0
144
0.0
144
0.0
144
0.0
144
1.0
147
0.0208333333333333
147
0.0
147
0.0
147
0.0
147
0.0
147
0.0208333333333333
147
0.0
147
0.0
147
0.0
147
0.0
147
1.0
147
0.0
147
0.0
147
0.0
147
0.0
147
1.0
  0
MATERIAL
  5
11
102
{ACAD_XDICTIONARY
360
12
102
}
102
{ACAD_REACTORS
330
10
102
}
330
10
100
AcDbMaterial
  1
ByLayer
 72
     0
 43
0.0208333333333333
 43
0.0
 43
0.0
 43
0.0
 43
0.0
 43
0.0208333333333333
 43
0.0
 43
0.0
 43
0.0
 43
0.0
 43
1.0
 43
0.0
 43
0.0
 43
0.0
 43
0.0
 43
1.0
 77
     0
 47
0.0208333333333333
 47
0.0
 47
0.0
 47
0.0
 47
0.0
 47
0.0208333333333333
 47
0.0
 47
0.0
 47
0.0
 47
0.0
 47
1.0
 47
0.0
 47
0.0
 47
0.0
 47
0.0
 47
1.0
171
     0
 49
0.0208333333333333
 49
0.0
 49
0.0
 49
0.0
 49
0.0
 49
0.0208333333333333
 49
0.0
 49
0.0
 49
0.0
 49
0.0
 49
1.0
 49
0.0
 49
0.0
 49
0.0
 49
0.0
 49
1.0
175
     0
142
0.0208333333333333
142
0.0
142
0.0
142
0.0
142
0.0
142
0.0208333333333333
142
0.0
142
0.0
142
0.0
142
0.0
142
1.0
142
0.0
142
0.0
142
0.0
142
0.0
142
1.0
179
     0
144
0.0208333333333333
144
0.0
144
0.0
144
0.0
144
0.0
144
0.0208333333333333
144
0.0
144
0.0
144
0.0
144
0.0
144
1.0
144
0.0
144
0.0
144
0.0
144
0.0
144
1.0
147
0.0208333333333333
147
0.0
147
0.0
147
0.0
147
0.0
147
0.0208333333333333
147
0.0
147
0.0
147
0.0
147
0.0
147
1.0
147
0.0
147
0.0
147
0.0
147
0.0
147
1.0
  0
MATERIAL
  5
21
102
{ACAD_XDICTIONARY
360
22
102
}
102
{ACAD_REACTORS
330
10
102
}
330
10
100
AcDbMaterial
  1
Global
 72
     0
 43
0.0208333333333333
 43
0.0
 43
0.0
 43
0.0
 43
0.0
 43
0.0208333333333333
 43
0.0
 43
0.0
 43
0.0
 43
0.0
 43
1.0
 43
0.0
 43
0.0
 43
0.0
 43
0.0
 43
1.0
 77
     0
 47
0.0208333333333333
 47
0.0
 47
0.0
 47
0.0
 47
0.0
 47
0.0208333333333333
 47
0.0
 47
0.0
 47
0.0
 47
0.0
 47
1.0
 47
0.0
 47
0.0
 47
0.0
 47
0.0
 47
1.0
171
     0
 49
0.0208333333333333
 49
0.0
 49
0.0
 49
0.0
 49
0.0
 49
0.0208333333333333
 49
0.0
 49
0.0
 49
0.0
 49
0.0
 49
1.0
 49
0.0
 49
0.0
 49
0.0
 49
0.0
 49
1.0
175
     0
142
0.0208333333333333
142
0.0
142
0.0
142
0.0
142
0.0
142
0.0208333333333333
142
0.0
142
0.0
142
0.0
142
0.0
142
1.0
142
0.0
142
0.0
142
0.0
142
0.0
142
1.0
179
     0
144
0.0208333333333333
144
0.0
144
0.0
144
0.0
144
0.0
144
0.0208333333333333
144
0.0
144
0.0
144
0.0
144
0.0
144
1.0
144
0.0
144
0.0
144
0.0
144
0.0
144
1.0
147
0.0208333333333333
147
0.0
147
0.0
147
0.0
147
0.0
147
0.0208333333333333
147
0.0
147
0.0
147
0.0
147
0.0
147
1.0
147
0.0
147
0.0
147
0.0
147
0.0
147
1.0
  0
MLEADERSTYLE
  5
67
102
{ACAD_REACTORS
330
66
102
}
330
66
100
AcDbMLeaderStyle
179
     2
170
     2
171
     1
172
     0
 90
        2
 40
0.0
 41
0.0
173
     1
 91
-1056964608
340
5B
 92
       -2
290
     1
 42
0.09
291
     1
 43
0.36
  3
Standard
 44
0.18
300

342
55
174
     1
178
     6
175
     1
176
     0
 93
-1056964608
 45
0.18
292
     0
297
     0
 46
0.18
 94
-1056964608
 47
1.0
 49
1.0
140
1.0
293
     1
141
0.0
294
     1
177
     0
142
1.0
295
     1
296
     0
143
0.125
271
     0
272
     9
273
     9
298
     1
  0
MLINESTYLE
  5
60
102
{ACAD_REACTORS
330
5F
102
}
330
5F
100
AcDbMlineStyle
  2
STANDARD
 70
     0
  3

 62
   256
 51
90.0
 52
90.0
 71
     2
 49
0.5
 62
   256
  6
BYLAYER
 49
-0.5
 62
   256
  6
BYLAYER
  0
ACDBPLACEHOLDER
  5
F
102
{ACAD_REACTORS
330
E
102
}
330
E
  0
SCALE
  5
43
102
{ACAD_REACTORS
330
42
102
}
330
42
100
AcDbScale
 70
     0
300
1:1
140
1.0
141
1.0
290
     1
  0
SCALE
  5
44
102
{ACAD_REACTORS
330
42
102
}
330
42
100
AcDbScale
 70
     0
300
1/128" = 1'-0"
140
0.0078125
141
12.0
290
     0
  0
SCALE
  5
45
102
{ACAD_REACTORS
330
42
102
}
330
42
100
AcDbScale
 70
     0
300
1/64" = 1'-0"
140
0.015625
141
12.0
290
     0
  0
SCALE
  5
46
102
{ACAD_REACTORS
330
42
102
}
330
42
100
AcDbScale
 70
     0
300
1/32" = 1'-0"
140
0.03125
141
12.0
290
     0
  0
SCALE
  5
47
102
{ACAD_REACTORS
330
42
102
}
330
42
100
AcDbScale
 70
     0
300
1/16" = 1'-0"
140
0.0625
141
12.0
290
     0
  0
SCALE
  5
48
102
{ACAD_REACTORS
330
42
102
}
330
42
100
AcDbScale
 70
     0
300
3/32" = 1'-0"
140
0.09375
141
12.0
290
     0
  0
SCALE
  5
49
102
{ACAD_REACTORS
330
42
102
}
330
42
100
AcDbScale
 70
     0
300
1/8" = 1'-0"
140
0.125
141
12.0
290
     0
  0
SCALE
  5
4A
102
{ACAD_REACTORS
330
42
102
}
330
42
100
AcDbScale
 70
     0
300
3/16" = 1'-0"
140
0.1875
141
12.0
290
     0
  0
SCALE
  5
4B
102
{ACAD_REACTORS
330
42
102
}
330
42
100
AcDbScale
 70
     0
300
1/4" = 1'-0"
140
0.25
141
12.0
290
     0
  0
SCALE
  5
4C
102
{ACAD_REACTORS
330
42
102
}
330
42
100
AcDbScale
 70
     0
300
3/8" = 1'-0"
140
0.375
141
12.0
290
     0
  0
SCALE
  5
4D
102
{ACAD_REACTORS
330
42
102
}
330
42
100
AcDbScale
 70
     0
300
1/2" = 1'-0"
140
0.5
141
12.0
290
     0
  0
SCALE
  5
4E
102
{ACAD_REACTORS
330
42
102
}
330
42
100
AcDbScale
 70
     0
300
3/4" = 1'-0"
140
0.75
141
12.0
290
     0
  0
SCALE
  5
4F
102
{ACAD_REACTORS
330
42
102
}
330
42
100
AcDbScale
 70
     0
300
1" = 1'-0"
140
1.0
141
12.0
290
     0
  0
SCALE
  5
50
102
{ACAD_REACTORS
330
42
102
}
330
42
100
AcDbScale
 70
     0
300
1-1/2" = 1'-0"
140
1.5
141
12.0
290
     0
  0
SCALE
  5
51
102
{ACAD_REACTORS
330
42
102
}
330
42
100
AcDbScale
 70
     0
300
3" = 1'-0"
140
3.0
141
12.0
290
     0
  0
SCALE
  5
52
102
{ACAD_REACTORS
330
42
102
}
330
42
100
AcDbScale
 70
     0
300
6" = 1'-0"
140
6.0
141
12.0
290
     0
  0
SCALE
  5
53
102
{ACAD_REACTORS
330
42
102
}
330
42
100
AcDbScale
 70
     0
300
1'-0" = 1'-0"
140
12.0
141
12.0
290
     0
  0
ACDBSECTIONVIEWSTYLE
  5
69
102
{ACAD_REACTORS
330
68
102
}
330
68
100
AcDbModelDocViewStyle
 70
     0
  3
Imperial24
290
     1
300
Imperial24
 90
        0
100
AcDbSectionViewStyle
 70
     0
 71
     0
 90
       78
 71
     1
340
55
 62
   256
 40
0.24
340
0
340
0
 62
   256
 40
0.24
300
I, O, Q, S, X, Z
 40
0.48
 90
        3
 40
0.18
 90
        1
 71
     2
340
5D
 90
       25
 62
   256
340
5D
 90
       50
 62
   256
 40
0.24
 40
0.0
 40
0.24
 71
     3
340
55
 62
   256
 40
0.24
 90
        1
 40
0.75
 90
        1
300
%<\AcVar ViewType \f "%tc1">% %<\AcVar ViewSectionStartId>%-%<\AcVar ViewSectionEndId>%\PSCALE %<\AcVar ViewScale \f "%sn">%
 71
     4
 62
   256
 62
   257
300
ANSI31
 40
1.0
 90
        0
290
     0
290
     0
 90
        6
 40
0.0
 40
1.570796326794896
 40
0.2617993877991494
 40
1.308996938995747
 40
-0.2617993877991494
 40
1.832595714594046
  0
TABLESTYLE
  5
65
102
{ACAD_XDICTIONARY
360
B2
102
}
102
{ACAD_REACTORS
330
64
102
}
330
64
100
AcDbTableStyle
280
     0
  3
Standard
 70
     0
 71
     0
 40
0.06
 41
0.06
280
     0
281
     0
  7
Standard
140
0.18
170
     2
 62
     0
 63
     7
283
     0
 90
      512
 91
        0
  1

274
    -2
284
     1
 64
     0
275
    -2
285
     1
 65
     0
276
    -2
286
     1
 66
     0
277
    -2
287
     1
 67
     0
278
    -2
288
     1
 68
     0
279
    -2
289
     1
 69
     0
  7
Standard
140
0.25
170
     5
 62
     0
 63
     7
283
     0
 90
      512
 91
        0
  1

274
    -2
284
     1
 64
     0
275
    -2
285
     1
 65
     0
276
    -2
286
     1
 66
     0
277
    -2
287
     1
 67
     0
278
    -2
288
     1
 68
     0
279
    -2
289
     1
 69
     0
  7
Standard
140
0.18
170
     5
 62
     0
 63
     7
283
     0
 90
      512
 91
        0
  1

274
    -2
284
     1
 64
     0
275
    -2
285
     1
 65
     0
276
    -2
286
     1
 66
     0
277
    -2
287
     1
 67
     0
278
    -2
288
     1
 68
     0
279
    -2
289
     1
 69
     0
  0
VISUALSTYLE
  5
2F
102
{ACAD_REACTORS
330
29
102
}
330
29
100
AcDbVisualStyle
  2
2dWireframe
 70
     4
177
     3
291
     0
 70
    58
 90
        0
176
     1
 90
        2
176
     1
 90
        0
176
     1
 90
        0
176
     1
 40
0.6
176
     1
 40
30.0
176
     1
 62
     7
420
 16777215
176
     1
 90
        1
176
     1
 90
        4
176
     1
 62
     7
176
     1
 62
   257
176
     1
 90
        1
176
     1
 90
        1
176
     1
 40
1.0
176
     1
 90
        0
176
     1
 62
   257
176
     1
 40
1.0
176
     1
 90
        1
176
     1
 90
        6
176
     1
 90
        2
176
     1
 62
     7
176
     1
 90
        5
176
     1
 90
        0
176
     1
 90
        0
176
     1
290
     0
176
     1
 90
        1
176
     1
 40
0.0
176
     1
 90
        0
176
     1
290
     1
176
     1
290
     1
176
     1
290
     0
176
     1
290
     0
176
     1
290
     0
176
     1
290
     0
176
     1
290
     0
176
     1
290
     0
176
     1
290
     0
176
     1
 90
       50
176
     1
 40
0.0
176
     1
 40
1.0
176
     1
 90
        0
176
     1
 62
    18
420
        0
176
     1
 90
       50
176
     1
 90
        3
176
     1
 62
     5
420
      255
176
     1
290
     0
176
     1
 90
       50
176
     1
 90
       50
176
     1
 90
       50
176
     1
290
     0
176
     1
 90
       50
176
     1
 62
   256
176
     0
 40
1.0
176
     0
 90
        2
176
     1
  1
strokes_ogs.tif
176
     1
290
     0
176
     1
 40
1.0
176
     1
 40
1.0
176
     1
  0
VISUALSTYLE
  5
2E
102
{ACAD_REACTORS
330
29
102
}
330
29
100
AcDbVisualStyle
  2
Basic
 70
     7
177
     3
291
     1
 70
    58
 90
        1
176
     1
 90
        0
176
     1
 90
        1
176
     1
 90
        0
176
     1
 40
0.6
176
     1
 40
30.0
176
     1
 62
     7
420
 16777215
176
     1
 90
        0
176
     1
 90
        4
176
     1
 62
     7
176
     1
 62
   257
176
     1
 90
        1
176
     1
 90
        1
176
     1
 40
1.0
176
     1
 90
        8
176
     1
 62
     7
176
     1
 40
1.0
176
     1
 90
        1
176
     1
 90
        6
176
     1
 90
        2
176
     1
 62
     7
176
     1
 90
        5
176
     1
 90
        0
176
     1
 90
        0
176
     1
290
     0
176
     1
 90
        1
176
     1
 40
0.0
176
     1
 90
        0
176
     1
290
     0
176
     1
290
     1
176
     1
290
     1
176
     1
290
     0
176
     1
290
     0
176
     1
290
     0
176
     1
290
     0
176
     1
290
     0
176
     1
290
     0
176
     1
 90
       50
176
     1
 40
0.0
176
     1
 40
1.0
176
     1
 90
        0
176
     1
 62
    18
420
        0
176
     1
 90
       50
176
     1
 90
        3
176
     1
 62
     5
420
      255
176
     1
290
     0
176
     1
 90
       50
176
     1
 90
       50
176
     1
 90
       50
176
     1
290
     0
176
     1
 90
       50
176
     1
 62
   256
176
     0
 40
1.0
176
     0
 90
        2
176
     1
  1
strokes_ogs.tif
176
     1
290
     0
176
     1
 40
1.0
176
     1
 40
1.0
176
     1
  0
VISUALSTYLE
  5
35
102
{ACAD_REACTORS
330
29
102
}
330
29
100
AcDbVisualStyle
  2
Brighten
 70
    12
177
     3
291
     1
 70
    58
 90
        2
176
     1
 90
        2
176
     1
 90
        0
176
     1
 90
        0
176
     1
 40
0.6
176
     1
 40
30.0
176
     1
 62
     7
420
 16777215
176
     1
 90
        1
176
     1
 90
        4
176
     1
 62
     7
176
     1
 62
   257
176
     1
 90
        1
176
     1
 90
        1
176
     1
 40
1.0
176
     1
 90
        8
176
     1
 62
     7
176
     1
 40
1.0
176
     1
 90
        1
176
     1
 90
        6
176
     1
 90
        2
176
     1
 62
     7
176
     1
 90
        5
176
     1
 90
        0
176
     1
 90
        0
176
     1
290
     0
176
     1
 90
        1
176
     1
 40
50.0
176
     1
 90
        0
176
     1
290
     0
176
     1
290
     1
176
     1
290
     1
176
     1
290
     0
176
     1
290
     0
176
     1
290
     0
176
     1
290
     0
176
     1
290
     0
176
     1
290
     0
176
     1
 90
       50
176
     1
 40
0.0
176
     1
 40
1.0
176
     1
 90
        0
176
     1
 62
    18
420
        0
176
     1
 90
       50
176
     1
 90
        3
176
     1
 62
     5
420
      255
176
     1
290
     0
176
     1
 90
       50
176
     1
 90
       50
176
     1
 90
       50
176
     1
290
     0
176
     1
 90
       50
176
     1
 62
   256
176
     0
 40
1.0
176
     0
 90
        2
176
     1
  1
strokes_ogs.tif
176
     1
290
     0
176
     1
 40
1.0
176
     1
 40
1.0
176
     1
  0
VISUALSTYLE
  5
39
102
{ACAD_REACTORS
330
29
102
}
330
29
100
AcDbVisualStyle
  2
ColorChange
 70
    16
177
     3
291
     1
 70
    58
 90
        2
176
     1
 90
        2
176
     1
 90
        3
176
     1
 90
        0
176
     1
 40
0.6
176
     1
 40
30.0
176
     1
 62
     8
420
  8421504
176
     1
 90
        1
176
     1
 90
        4
176
     1
 62
     7
176
     1
 62
   257
176
     1
 90
        1
176
     1
 90
        1
176
     1
 40
1.0
176
     1
 90
        8
176
     1
 62
     8
420
  8421504
176
     1
 40
1.0
176
     1
 90
        1
176
     1
 90
        6
176
     1
 90
        2
176
     1
 62
     7
176
     1
 90
        5
176
     1
 90
        0
176
     1
 90
        0
176
     1
290
     0
176
     1
 90
        1
176
     1
 40
0.0
176
     1
 90
        0
176
     1
290
     0
176
     1
290
     1
176
     1
290
     1
176
     1
290
     0
176
     1
290
     0
176
     1
290
     0
176
     1
290
     0
176
     1
290
     0
176
     1
290
     0
176
     1
 90
       50
176
     1
 40
0.0
176
     1
 40
1.0
176
     1
 90
        0
176
     1
 62
    18
420
        0
176
     1
 90
       50
176
     1
 90
        3
176
     1
 62
     5
420
      255
176
     1
290
     0
176
     1
 90
       50
176
     1
 90
       50
176
     1
 90
       50
176
     1
290
     0
176
     1
 90
       50
176
     1
 62
   256
176
     0
 40
1.0
176
     0
 90
        2
176
     1
  1
strokes_ogs.tif
176
     1
290
     0
176
     1
 40
1.0
176
     1
 40
1.0
176
     1
  0
VISUALSTYLE
  5
32
102
{ACAD_REACTORS
330
29
102
}
330
29
100
AcDbVisualStyle
  2
Conceptual
 70
     9
177
     3
291
     0
 70
    58
 90
        3
176
     1
 90
        2
176
     1
 90
        0
176
     1
 90
        0
176
     1
 40
0.6
176
     1
 40
30.0
176
     1
 62
     7
420
 16777215
176
     1
 90
        2
176
     1
 90
        2
176
     1
 62
     7
176
     1
 62
   257
176
     1
 90
        1
176
     1
 90
        1
176
     1
 40
179.0
176
     1
 90
        8
176
     1
 62
     7
176
     1
 40
1.0
176
     1
 90
        1
176
     1
 90
        6
176
     1
 90
        2
176
     1
 62
     7
176
     1
 90
        3
176
     1
 90
        0
176
     1
 90
        0
176
     1
290
     0
176
     1
 90
        1
176
     1
 40
0.0
176
     1
 90
        0
176
     1
290
     0
176
     1
290
     1
176
     1
290
     1
176
     1
290
     0
176
     1
290
     0
176
     1
290
     0
176
     1
290
     0
176
     1
290
     0
176
     1
290
     0
176
     1
 90
       50
176
     1
 40
0.0
176
     1
 40
1.0
176
     1
 90
        0
176
     1
 62
    18
420
        0
176
     1
 90
       50
176
     1
 90
        3
176
     1
 62
     5
420
      255
176
     1
290
     0
176
     1
 90
       50
176
     1
 90
       50
176
     1
 90
       50
176
     1
290
     0
176
     1
 90
       50
176
     1
 62
   256
176
     0
 40
1.0
176
     0
 90
        2
176
     1
  1
strokes_ogs.tif
176
     1
290
     0
176
     1
 40
1.0
176
     1
 40
1.0
176
     1
  0
VISUALSTYLE
  5
34
102
{ACAD_REACTORS
330
29
102
}
330
29
100
AcDbVisualStyle
  2
Dim
 70
    11
177
     3
291
     1
 70
    58
 90
        2
176
     1
 90
        2
176
     1
 90
        0
176
     1
 90
        0
176
     1
 40
0.6
176
     1
 40
30.0
176
     1
 62
     7
420
 16777215
176
     1
 90
        1
176
     1
 90
        4
176
     1
 62
     7
176
     1
 62
   257
176
     1
 90
        1
176
     1
 90
        1
176
     1
 40
1.0
176
     1
 90
        8
176
     1
 62
     7
176
     1
 40
1.0
176
     1
 90
        1
176
     1
 90
        6
176
     1
 90
        2
176
     1
 62
     7
176
     1
 90
        5
176
     1
 90
        0
176
     1
 90
        0
176
     1
290
     0
176
     1
 90
        1
176
     1
 40
-50.0
176
     1
 90
        0
176
     1
290
     0
176
     1
290
     1
176
     1
290
     1
176
     1
290
     0
176
     1
290
     0
176
     1
290
     0
176
     1
290
     0
176
     1
290
     0
176
     1
290
     0
176
     1
 90
       50
176
     1
 40
0.0
176
     1
 40
1.0
176
     1
 90
        0
176
     1
 62
    18
420
        0
176
     1
 90
       50
176
     1
 90
        3
176
     1
 62
     5
420
      255
176
     1
290
     0
176
     1
 90
       50
176
     1
 90
       50
176
     1
 90
       50
176
     1
290
     0
176
     1
 90
       50
176
     1
 62
   256
176
     0
 40
1.0
176
     0
 90
        2
176
     1
  1
strokes_ogs.tif
176
     1
290
     0
176
     1
 40
1.0
176
     1
 40
1.0
176
     1
  0
VISUALSTYLE
  5
41
102
{ACAD_REACTORS
330
29
102
}
330
29
100
AcDbVisualStyle
  2
EdgeColorOff
 70
    22
177
     3
291
     1
 70
    58
 90
        2
176
     0
 90
        2
176
     0
 90
        0
176
     0
 90
        0
176
     0
 40
0.6
176
     0
 40
30.0
176
     0
 62
     7
420
 16777215
176
     0
 90
        1
176
     0
 90
        4
176
     0
 62
     7
176
     0
 62
   257
176
     0
 90
        1
176
     0
 90
        1
176
     0
 40
1.0
176
     0
 90
        8
176
     2
 62
     7
176
     0
 40
1.0
176
     0
 90
        1
176
     0
 90
        6
176
     0
 90
        2
176
     0
 62
     7
176
     0
 90
        5
176
     0
 90
        0
176
     0
 90
        0
176
     0
290
     0
176
     0
 90
        1
176
     0
 40
0.0
176
     0
 90
        0
176
     0
290
     0
176
     0
290
     1
176
     0
290
     1
176
     0
290
     0
176
     0
290
     0
176
     0
290
     0
176
     0
290
     0
176
     0
290
     0
176
     0
290
     0
176
     0
 90
       50
176
     0
 40
0.0
176
     0
 40
1.0
176
     0
 90
        0
176
     0
 62
    18
420
        0
176
     0
 90
       50
176
     0
 90
        3
176
     0
 62
     5
420
      255
176
     0
290
     0
176
     0
 90
       50
176
     0
 90
       50
176
     0
 90
       50
176
     0
290
     0
176
     0
 90
       50
176
     0
 62
   256
176
     0
 40
1.0
176
     0
 90
        2
176
     0
  1
strokes_ogs.tif
176
     0
290
     0
176
     0
 40
1.0
176
     0
 40
1.0
176
     0
  0
VISUALSTYLE
  5
38
102
{ACAD_REACTORS
330
29
102
}
330
29
100
AcDbVisualStyle
  2
Facepattern
 70
    15
177
     3
291
     1
 70
    58
 90
        2
176
     1
 90
        2
176
     1
 90
        0
176
     1
 90
        0
176
     1
 40
0.6
176
     1
 40
30.0
176
     1
 62
     7
420
 16777215
176
     1
 90
        1
176
     1
 90
        4
176
     1
 62
     7
176
     1
 62
   257
176
     1
 90
        1
176
     1
 90
        1
176
     1
 40
1.0
176
     1
 90
        8
176
     1
 62
     7
176
     1
 40
1.0
176
     1
 90
        1
176
     1
 90
        6
176
     1
 90
        2
176
     1
 62
     7
176
     1
 90
        5
176
     1
 90
        0
176
     1
 90
        0
176
     1
290
     0
176
     1
 90
        1
176
     1
 40
0.0
176
     1
 90
        0
176
     1
290
     0
176
     1
290
     1
176
     1
290
     1
176
     1
290
     0
176
     1
290
     0
176
     1
290
     0
176
     1
290
     0
176
     1
290
     0
176
     1
290
     0
176
     1
 90
       50
176
     1
 40
0.0
176
     1
 40
1.0
176
     1
 90
        0
176
     1
 62
    18
420
        0
176
     1
 90
       50
176
     1
 90
        3
176
     1
 62
     5
420
      255
176
     1
290
     0
176
     1
 90
       50
176
     1
 90
       50
176
     1
 90
       50
176
     1
290
     0
176
     1
 90
       50
176
     1
 62
   256
176
     0
 40
1.0
176
     0
 90
        2
176
     1
  1
strokes_ogs.tif
176
     1
290
     0
176
     1
 40
1.0
176
     1
 40
1.0
176
     1
  0
VISUALSTYLE
  5
2A
102
{ACAD_REACTORS
330
29
102
}
330
29
100
AcDbVisualStyle
  2
Flat
 70
     0
177
     3
291
     1
 70
    58
 90
        2
176
     1
 90
        1
176
     1
 90
        1
176
     1
 90
        2
176
     1
 40
0.6
176
     1
 40
30.0
176
     1
 62
     7
420
 16777215
176
     1
 90
        0
176
     1
 90
        0
176
     1
 62
     7
176
     1
 62
   257
176
     1
 90
        1
176
     1
 90
        1
176
     1
 40
1.0
176
     1
 90
        8
176
     1
 62
     7
176
     1
 40
1.0
176
     1
 90
        1
176
     1
 90
        6
176
     1
 90
        2
176
     1
 62
     7
176
     1
 90
        5
176
     1
 90
        0
176
     1
 90
        0
176
     1
290
     0
176
     1
 90
       13
176
     1
 40
0.0
176
     1
 90
        0
176
     1
290
     0
176
     1
290
     1
176
     1
290
     1
176
     1
290
     0
176
     1
290
     0
176
     1
290
     0
176
     1
290
     0
176
     1
290
     0
176
     1
290
     0
176
     1
 90
       50
176
     1
 40
0.0
176
     1
 40
1.0
176
     1
 90
        0
176
     1
 62
    18
420
        0
176
     1
 90
       50
176
     1
 90
        3
176
     1
 62
     5
420
      255
176
     1
290
     0
176
     1
 90
       50
176
     1
 90
       50
176
     1
 90
       50
176
     1
290
     0
176
     1
 90
       50
176
     1
 62
   256
176
     0
 40
1.0
176
     0
 90
        2
176
     1
  1
strokes_ogs.tif
176
     1
290
     0
176
     1
 40
1.0
176
     1
 40
1.0
176
     1
  0
VISUALSTYLE
  5
2B
102
{ACAD_REACTORS
330
29
102
}
330
29
100
AcDbVisualStyle
  2
FlatWithEdges
 70
     1
177
     3
291
     1
 70
    58
 90
        2
176
     1
 90
        1
176
     1
 90
        1
176
     1
 90
        2
176
     1
 40
0.6
176
     1
 40
30.0
176
     1
 62
     7
420
 16777215
176
     1
 90
        1
176
     1
 90
        0
176
     1
 62
     7
176
     1
 62
   257
176
     1
 90
        1
176
     1
 90
        1
176
     1
 40
1.0
176
     1
 90
        0
176
     1
 62
   257
176
     1
 40
1.0
176
     1
 90
        1
176
     1
 90
        6
176
     1
 90
        2
176
     1
 62
     7
176
     1
 90
        5
176
     1
 90
        0
176
     1
 90
        0
176
     1
290
     0
176
     1
 90
       13
176
     1
 40
0.0
176
     1
 90
        0
176
     1
290
     0
176
     1
290
     1
176
     1
290
     1
176
     1
290
     0
176
     1
290
     0
176
     1
290
     0
176
     1
290
     0
176
     1
290
     0
176
     1
290
     0
176
     1
 90
       50
176
     1
 40
0.0
176
     1
 40
1.0
176
     1
 90
        0
176
     1
 62
    18
420
        0
176
     1
 90
       50
176
     1
 90
        3
176
     1
 62
     5
420
      255
176
     1
290
     0
176
     1
 90
       50
176
     1
 90
       50
176
     1
 90
       50
176
     1
290
     0
176
     1
 90
       50
176
     1
 62
   256
176
     0
 40
1.0
176
     0
 90
        2
176
     1
  1
strokes_ogs.tif
176
     1
290
     0
176
     1
 40
1.0
176
     1
 40
1.0
176
     1
  0
VISUALSTYLE
  5
2C
102
{ACAD_REACTORS
330
29
102
}
330
29
100
AcDbVisualStyle
  2
Gouraud
 70
     2
177
     3
291
     1
 70
    58
 90
        2
176
     1
 90
        2
176
     1
 90
        1
176
     1
 90
        2
176
     1
 40
0.6
176
     1
 40
30.0
176
     1
 62
     7
420
 16777215
176
     1
 90
        0
176
     1
 90
        0
176
     1
 62
     7
176
     1
 62
   257
176
     1
 90
        1
176
     1
 90
        1
176
     1
 40
1.0
176
     1
 90
        0
176
     1
 62
     7
176
     1
 40
1.0
176
     1
 90
        1
176
     1
 90
        6
176
     1
 90
        2
176
     1
 62
     7
176
     1
 90
        5
176
     1
 90
        0
176
     1
 90
        0
176
     1
290
     0
176
     1
 90
       13
176
     1
 40
0.0
176
     1
 90
        0
176
     1
290
     0
176
     1
290
     1
176
     1
290
     1
176
     1
290
     0
176
     1
290
     0
176
     1
290
     0
176
     1
290
     0
176
     1
290
     0
176
     1
290
     0
176
     1
 90
       50
176
     1
 40
0.0
176
     1
 40
1.0
176
     1
 90
        0
176
     1
 62
    18
420
        0
176
     1
 90
       50
176
     1
 90
        3
176
     1
 62
     5
420
      255
176
     1
290
     0
176
     1
 90
       50
176
     1
 90
       50
176
     1
 90
       50
176
     1
290
     0
176
     1
 90
       50
176
     1
 62
   256
176
     0
 40
1.0
176
     0
 90
        2
176
     1
  1
strokes_ogs.tif
176
     1
290
     0
176
     1
 40
1.0
176
     1
 40
1.0
176
     1
  0
VISUALSTYLE
  5
2D
102
{ACAD_REACTORS
330
29
102
}
330
29
100
AcDbVisualStyle
  2
GouraudWithEdges
 70
     3
177
     3
291
     1
 70
    58
 90
        2
176
     1
 90
        2
176
     1
 90
        1
176
     1
 90
        2
176
     1
 40
0.6
176
     1
 40
30.0
176
     1
 62
     7
420
 16777215
176
     1
 90
        1
176
     1
 90
        0
176
     1
 62
     7
176
     1
 62
   257
176
     1
 90
        1
176
     1
 90
        1
176
     1
 40
1.0
176
     1
 90
        0
176
     1
 62
   257
176
     1
 40
1.0
176
     1
 90
        1
176
     1
 90
        6
176
     1
 90
        2
176
     1
 62
     7
176
     1
 90
        5
176
     1
 90
        0
176
     1
 90
        0
176
     1
290
     0
176
     1
 90
       13
176
     1
 40
0.0
176
     1
 90
        0
176
     1
290
     0
176
     1
290
     1
176
     1
290
     1
176
     1
290
     0
176
     1
290
     0
176
     1
290
     0
176
     1
290
     0
176
     1
290
     0
176
     1
290
     0
176
     1
 90
       50
176
     1
 40
0.0
176
     1
 40
1.0
176
     1
 90
        0
176
     1
 62
    18
420
        0
176
     1
 90
       50
176
     1
 90
        3
176
     1
 62
     5
420
      255
176
     1
290
     0
176
     1
 90
       50
176
     1
 90
       50
176
     1
 90
       50
176
     1
290
     0
176
     1
 90
       50
176
     1
 62
   256
176
     0
 40
1.0
176
     0
 90
        2
176
     1
  1
strokes_ogs.tif
176
     1
290
     0
176
     1
 40
1.0
176
     1
 40
1.0
176
     1
  0
VISUALSTYLE
  5
31
102
{ACAD_REACTORS
330
29
102
}
330
29
100
AcDbVisualStyle
  2
Hidden
 70
     6
177
     3
291
     0
 70
    58
 90
        1
176
     1
 90
        2
176
     1
 90
        2
176
     1
 90
        0
176
     1
 40
0.6
176
     1
 40
30.0
176
     1
 62
     7
420
 16777215
176
     1
 90
        2
176
     1
 90
        2
176
     1
 62
     7
176
     1
 62
   257
176
     1
 90
        2
176
     1
 90
        1
176
     1
 40
40.0
176
     1
 90
        0
176
     1
 62
   257
176
     1
 40
1.0
176
     1
 90
        1
176
     1
 90
        6
176
     1
 90
        2
176
     1
 62
     7
176
     1
 90
        3
176
     1
 90
        0
176
     1
 90
        0
176
     1
290
     0
176
     1
 90
        1
176
     1
 40
0.0
176
     1
 90
        0
176
     1
290
     0
176
     1
290
     1
176
     1
290
     1
176
     1
290
     0
176
     1
290
     0
176
     1
290
     0
176
     1
290
     0
176
     1
290
     0
176
     1
290
     0
176
     1
 90
       50
176
     1
 40
0.0
176
     1
 40
1.0
176
     1
 90
        0
176
     1
 62
    18
420
        0
176
     1
 90
       50
176
     1
 90
        3
176
     1
 62
     5
420
      255
176
     1
290
     0
176
     1
 90
       50
176
     1
 90
       50
176
     1
 90
       50
176
     1
290
     0
176
     1
 90
       50
176
     1
 62
   256
176
     0
 40
1.0
176
     0
 90
        2
176
     1
  1
strokes_ogs.tif
176
     1
290
     0
176
     1
 40
1.0
176
     1
 40
1.0
176
     1
  0
VISUALSTYLE
  5
3F
102
{ACAD_REACTORS
330
29
102
}
330
29
100
AcDbVisualStyle
  2
JitterOff
 70
    20
177
     3
291
     1
 70
    58
 90
        2
176
     0
 90
        2
176
     0
 90
        0
176
     0
 90
        0
176
     0
 40
0.6
176
     0
 40
30.0
176
     0
 62
     7
420
 16777215
176
     0
 90
        1
176
     0
 90
        4
176
     0
 62
     7
176
     0
 62
   257
176
     0
 90
        1
176
     0
 90
        1
176
     0
 40
1.0
176
     0
 90
       10
176
     2
 62
     7
176
     0
 40
1.0
176
     0
 90
        1
176
     0
 90
        6
176
     0
 90
        2
176
     0
 62
     7
176
     0
 90
        5
176
     0
 90
        0
176
     0
 90
        0
176
     0
290
     0
176
     0
 90
        1
176
     0
 40
0.0
176
     0
 90
        0
176
     0
290
     0
176
     0
290
     1
176
     0
290
     1
176
     0
290
     0
176
     0
290
     0
176
     0
290
     0
176
     0
290
     0
176
     0
290
     0
176
     0
290
     0
176
     0
 90
       50
176
     0
 40
0.0
176
     0
 40
1.0
176
     0
 90
        0
176
     0
 62
    18
420
        0
176
     0
 90
       50
176
     0
 90
        3
176
     0
 62
     5
420
      255
176
     0
290
     0
176
     0
 90
       50
176
     0
 90
       50
176
     0
 90
       50
176
     0
290
     0
176
     0
 90
       50
176
     0
 62
   256
176
     0
 40
1.0
176
     0
 90
        2
176
     0
  1
strokes_ogs.tif
176
     0
290
     0
176
     0
 40
1.0
176
     0
 40
1.0
176
     0
  0
VISUALSTYLE
  5
37
102
{ACAD_REACTORS
330
29
102
}
330
29
100
AcDbVisualStyle
  2
Linepattern
 70
    14
177
     3
291
     1
 70
    58
 90
        2
176
     1
 90
        2
176
     1
 90
        0
176
     1
 90
        0
176
     1
 40
0.6
176
     1
 40
30.0
176
     1
 62
     7
420
 16777215
176
     1
 90
        1
176
     1
 90
        4
176
     1
 62
     7
176
     1
 62
   257
176
     1
 90
        7
176
     1
 90
        7
176
     1
 40
1.0
176
     1
 90
        8
176
     1
 62
     7
176
     1
 40
1.0
176
     1
 90
        1
176
     1
 90
        6
176
     1
 90
        2
176
     1
 62
     7
176
     1
 90
        5
176
     1
 90
        0
176
     1
 90
        0
176
     1
290
     0
176
     1
 90
        1
176
     1
 40
0.0
176
     1
 90
        0
176
     1
290
     0
176
     1
290
     1
176
     1
290
     1
176
     1
290
     0
176
     1
290
     0
176
     1
290
     0
176
     1
290
     0
176
     1
290
     0
176
     1
290
     0
176
     1
 90
       50
176
     1
 40
0.0
176
     1
 40
1.0
176
     1
 90
        0
176
     1
 62
    18
420
        0
176
     1
 90
       50
176
     1
 90
        3
176
     1
 62
     5
420
      255
176
     1
290
     0
176
     1
 90
       50
176
     1
 90
       50
176
     1
 90
       50
176
     1
290
     0
176
     1
 90
       50
176
     1
 62
   256
176
     0
 40
1.0
176
     0
 90
        2
176
     1
  1
strokes_ogs.tif
176
     1
290
     0
176
     1
 40
1.0
176
     1
 40
1.0
176
     1
  0
VISUALSTYLE
  5
40
102
{ACAD_REACTORS
330
29
102
}
330
29
100
AcDbVisualStyle
  2
OverhangOff
 70
    21
177
     3
291
     1
 70
    58
 90
        2
176
     0
 90
        2
176
     0
 90
        0
176
     0
 90
        0
176
     0
 40
0.6
176
     0
 40
30.0
176
     0
 62
     7
420
 16777215
176
     0
 90
        1
176
     0
 90
        4
176
     0
 62
     7
176
     0
 62
   257
176
     0
 90
        1
176
     0
 90
        1
176
     0
 40
1.0
176
     0
 90
        9
176
     2
 62
     7
176
     0
 40
1.0
176
     0
 90
        1
176
     0
 90
        6
176
     0
 90
        2
176
     0
 62
     7
176
     0
 90
        5
176
     0
 90
        0
176
     0
 90
        0
176
     0
290
     0
176
     0
 90
        1
176
     0
 40
0.0
176
     0
 90
        0
176
     0
290
     0
176
     0
290
     1
176
     0
290
     1
176
     0
290
     0
176
     0
290
     0
176
     0
290
     0
176
     0
290
     0
176
     0
290
     0
176
     0
290
     0
176
     0
 90
       50
176
     0
 40
0.0
176
     0
 40
1.0
176
     0
 90
        0
176
     0
 62
    18
420
        0
176
     0
 90
       50
176
     0
 90
        3
176
     0
 62
     5
420
      255
176
     0
290
     0
176
     0
 90
       50
176
     0
 90
       50
176
     0
 90
       50
176
     0
290
     0
176
     0
 90
       50
176
     0
 62
   256
176
     0
 40
1.0
176
     0
 90
        2
176
     0
  1
strokes_ogs.tif
176
     0
290
     0
176
     0
 40
1.0
176
     0
 40
1.0
176
     0
  0
VISUALSTYLE
  5
33
102
{ACAD_REACTORS
330
29
102
}
330
29
100
AcDbVisualStyle
  2
Realistic
 70
     8
177
     3
291
     0
 70
    58
 90
        2
176
     1
 90
        3
176
     1
 90
        0
176
     1
 90
        2
176
     1
 40
0.6
176
     1
 40
30.0
176
     1
 62
     7
420
 16777215
176
     1
 90
        0
176
     1
 90
        0
176
     1
 62
     7
176
     1
 62
   257
176
     1
 90
        1
176
     1
 90
        1
176
     1
 40
1.0
176
     1
 90
        8
176
     1
 62
   257
176
     1
 40
1.0
176
     1
 90
        1
176
     1
 90
        6
176
     1
 90
        2
176
     1
 62
     7
176
     1
 90
        3
176
     1
 90
        0
176
     1
 90
        0
176
     1
290
     0
176
     1
 90
       13
176
     1
 40
0.0
176
     1
 90
        0
176
     1
290
     0
176
     1
290
     1
176
     1
290
     1
176
     1
290
     0
176
     1
290
     0
176
     1
290
     0
176
     1
290
     0
176
     1
290
     0
176
     1
290
     0
176
     1
 90
       50
176
     1
 40
0.0
176
     1
 40
1.0
176
     1
 90
        0
176
     1
 62
    18
420
        0
176
     1
 90
       50
176
     1
 90
        3
176
     1
 62
     5
420
      255
176
     1
290
     0
176
     1
 90
       50
176
     1
 90
       50
176
     1
 90
       50
176
     1
290
     0
176
     1
 90
       50
176
     1
 62
   256
176
     0
 40
1.0
176
     0
 90
        2
176
     1
  1
strokes_ogs.tif
176
     1
290
     0
176
     1
 40
1.0
176
     1
 40
1.0
176
     1
  0
VISUALSTYLE
  5
3E
102
{ACAD_REACTORS
330
29
102
}
330
29
100
AcDbVisualStyle
  2
Shaded
 70
    27
177
     3
291
     0
 70
    58
 90
        2
176
     1
 90
        2
176
     1
 90
        1
176
     1
 90
        2
176
     1
 40
0.6
176
     1
 40
30.0
176
     1
 62
     7
420
 16777215
176
     1
 90
        0
176
     1
 90
        4
176
     1
 62
     7
176
     1
 62
   257
176
     1
 90
        1
176
     1
 90
        1
176
     1
 40
1.0
176
     1
 90
        8
176
     1
 62
   257
176
     1
 40
1.0
176
     1
 90
        1
176
     1
 90
        6
176
     1
 90
        2
176
     1
 62
     8
420
  7895160
176
     1
 90
        3
176
     1
 90
        0
176
     1
 90
        0
176
     1
290
     0
176
     1
 90
        5
176
     1
 40
0.0
176
     1
 90
        0
176
     1
290
     0
176
     1
290
     1
176
     1
290
     1
176
     1
290
     0
176
     1
290
     0
176
     1
290
     0
176
     1
290
     0
176
     1
290
     0
176
     1
290
     0
176
     1
 90
       50
176
     1
 40
0.0
176
     1
 40
1.0
176
     1
 90
        0
176
     1
 62
    18
420
        0
176
     1
 90
       50
176
     1
 90
        3
176
     1
 62
     5
420
      255
176
     1
290
     0
176
     1
 90
       50
176
     1
 90
       50
176
     1
 90
       50
176
     1
290
     0
176
     1
 90
       50
176
     1
 62
   256
176
     0
 40
1.0
176
     0
 90
        2
176
     1
  1
strokes_ogs.tif
176
     1
290
     0
176
     1
 40
1.0
176
     1
 40
1.0
176
     1
  0
VISUALSTYLE
  5
3D
102
{ACAD_REACTORS
330
29
102
}
330
29
100
AcDbVisualStyle
  2
Shaded with edges
 70
    26
177
     3
291
     0
 70
    58
 90
        2
176
     1
 90
        2
176
     1
 90
        1
176
     1
 90
        2
176
     1
 40
0.6
176
     1
 40
30.0
176
     1
 62
     7
420
 16777215
176
     1
 90
        1
176
     1
 90
        2
176
     1
 62
     7
176
     1
 62
   257
176
     1
 90
        2
176
     1
 90
        1
176
     1
 40
1.0
176
     1
 90
        8
176
     1
 62
   257
176
     1
 40
1.0
176
     1
 90
        1
176
     1
 90
        6
176
     1
 90
        2
176
     1
 62
     7
176
     1
 90
        3
176
     1
 90
        0
176
     1
 90
        0
176
     1
290
     0
176
     1
 90
        5
176
     1
 40
0.0
176
     1
 90
        0
176
     1
290
     0
176
     1
290
     1
176
     1
290
     1
176
     1
290
     0
176
     1
290
     0
176
     1
290
     0
176
     1
290
     0
176
     1
290
     0
176
     1
290
     0
176
     1
 90
       50
176
     1
 40
0.0
176
     1
 40
1.0
176
     1
 90
        0
176
     1
 62
    18
420
        0
176
     1
 90
       50
176
     1
 90
        3
176
     1
 62
     5
420
      255
176
     1
290
     0
176
     1
 90
       50
176
     1
 90
       50
176
     1
 90
       50
176
     1
290
     0
176
     1
 90
       50
176
     1
 62
   256
176
     0
 40
1.0
176
     0
 90
        2
176
     1
  1
strokes_ogs.tif
176
     1
290
     0
176
     1
 40
1.0
176
     1
 40
1.0
176
     1
  0
VISUALSTYLE
  5
3A
102
{ACAD_REACTORS
330
29
102
}
330
29
100
AcDbVisualStyle
  2
Shades of Gray
 70
    23
177
     3
291
     0
 70
    58
 90
        2
176
     1
 90
        2
176
     1
 90
        3
176
     1
 90
        0
176
     1
 40
0.6
176
     1
 40
30.0
176
     1
 62
     7
420
 16777215
176
     1
 90
        2
176
     1
 90
        2
176
     1
 62
     7
176
     1
 62
     7
176
     1
 90
        1
176
     1
 90
        1
176
     1
 40
40.0
176
     1
 90
        8
176
     1
 62
     7
176
     1
 40
1.0
176
     1
 90
        1
176
     1
 90
        6
176
     1
 90
        2
176
     1
 62
     7
176
     1
 90
        3
176
     1
 90
        0
176
     1
 90
        0
176
     1
290
     0
176
     1
 90
        1
176
     1
 40
0.0
176
     1
 90
        0
176
     1
290
     0
176
     1
290
     1
176
     1
290
     1
176
     1
290
     0
176
     1
290
     0
176
     1
290
     0
176
     1
290
     0
176
     1
290
     0
176
     1
290
     0
176
     1
 90
       50
176
     1
 40
0.0
176
     1
 40
1.0
176
     1
 90
        0
176
     1
 62
    18
420
        0
176
     1
 90
       50
176
     1
 90
        3
176
     1
 62
     5
420
      255
176
     1
290
     0
176
     1
 90
       50
176
     1
 90
       50
176
     1
 90
       50
176
     1
290
     0
176
     1
 90
       50
176
     1
 62
   256
176
     0
 40
1.0
176
     0
 90
        2
176
     1
  1
strokes_ogs.tif
176
     1
290
     0
176
     1
 40
1.0
176
     1
 40
1.0
176
     1
  0
VISUALSTYLE
  5
3B
102
{ACAD_REACTORS
330
29
102
}
330
29
100
AcDbVisualStyle
  2
Sketchy
 70
    24
177
     3
291
     0
 70
    58
 90
        1
176
     1
 90
        2
176
     1
 90
        2
176
     1
 90
        0
176
     1
 40
0.6
176
     1
 40
30.0
176
     1
 62
     7
420
 16777215
176
     1
 90
        2
176
     1
 90
        2
176
     1
 62
     7
176
     1
 62
     7
176
     1
 90
        1
176
     1
 90
        1
176
     1
 40
40.0
176
     1
 90
       11
176
     1
 62
     7
176
     1
 40
1.0
176
     1
 90
        1
176
     1
 90
        6
176
     1
 90
        2
176
     1
 62
     7
176
     1
 90
        6
176
     1
 90
        0
176
     1
 90
        0
176
     1
290
     0
176
     1
 90
        1
176
     1
 40
0.0
176
     1
 90
        0
176
     1
290
     0
176
     1
290
     1
176
     1
290
     1
176
     1
290
     0
176
     1
290
     0
176
     1
290
     0
176
     1
290
     0
176
     1
290
     0
176
     1
290
     0
176
     1
 90
       50
176
     1
 40
0.0
176
     1
 40
1.0
176
     1
 90
        0
176
     1
 62
    18
420
        0
176
     1
 90
       50
176
     1
 90
        3
176
     1
 62
     5
420
      255
176
     1
290
     0
176
     1
 90
       50
176
     1
 90
       50
176
     1
 90
       50
176
     1
290
     0
176
     1
 90
       50
176
     1
 62
   256
176
     0
 40
1.0
176
     0
 90
        2
176
     1
  1
strokes_ogs.tif
176
     1
290
     0
176
     1
 40
1.0
176
     1
 40
1.0
176
     1
  0
VISUALSTYLE
  5
36
102
{ACAD_REACTORS
330
29
102
}
330
29
100
AcDbVisualStyle
  2
Thicken
 70
    13
177
     3
291
     1
 70
    58
 90
        2
176
     1
 90
        2
176
     1
 90
        0
176
     1
 90
        0
176
     1
 40
0.6
176
     1
 40
30.0
176
     1
 62
     7
420
 16777215
176
     1
 90
        1
176
     1
 90
        4
176
     1
 62
     7
176
     1
 62
   257
176
     1
 90
        1
176
     1
 90
        1
176
     1
 40
1.0
176
     1
 90
       12
176
     1
 62
     7
176
     1
 40
1.0
176
     1
 90
        1
176
     1
 90
        6
176
     1
 90
        2
176
     1
 62
     7
176
     1
 90
        5
176
     1
 90
        0
176
     1
 90
        0
176
     1
290
     0
176
     1
 90
        1
176
     1
 40
0.0
176
     1
 90
        0
176
     1
290
     0
176
     1
290
     1
176
     1
290
     1
176
     1
290
     0
176
     1
290
     0
176
     1
290
     0
176
     1
290
     0
176
     1
290
     0
176
     1
290
     0
176
     1
 90
       50
176
     1
 40
0.0
176
     1
 40
1.0
176
     1
 90
        0
176
     1
 62
    18
420
        0
176
     1
 90
       50
176
     1
 90
        3
176
     1
 62
     5
420
      255
176
     1
290
     0
176
     1
 90
       50
176
     1
 90
       50
176
     1
 90
       50
176
     1
290
     0
176
     1
 90
       50
176
     1
 62
   256
176
     0
 40
1.0
176
     0
 90
        2
176
     1
  1
strokes_ogs.tif
176
     1
290
     0
176
     1
 40
1.0
176
     1
 40
1.0
176
     1
  0
VISUALSTYLE
  5
30
102
{ACAD_REACTORS
330
29
102
}
330
29
100
AcDbVisualStyle
  2
Wireframe
 70
     5
177
     3
291
     0
 70
    58
 90
        0
176
     1
 90
        2
176
     1
 90
        0
176
     1
 90
        0
176
     1
 40
0.6
176
     1
 40
30.0
176
     1
 62
     7
420
 16777215
176
     1
 90
        1
176
     1
 90
        4
176
     1
 62
     7
176
     1
 62
   257
176
     1
 90
        1
176
     1
 90
        1
176
     1
 40
1.0
176
     1
 90
        0
176
     1
 62
   257
176
     1
 40
1.0
176
     1
 90
        1
176
     1
 90
        6
176
     1
 90
        2
176
     1
 62
     7
176
     1
 90
        3
176
     1
 90
        0
176
     1
 90
        0
176
     1
290
     0
176
     1
 90
        1
176
     1
 40
0.0
176
     1
 90
        0
176
     1
290
     0
176
     1
290
     1
176
     1
290
     1
176
     1
290
     0
176
     1
290
     0
176
     1
290
     0
176
     1
290
     0
176
     1
290
     0
176
     1
290
     0
176
     1
 90
       50
176
     1
 40
0.0
176
     1
 40
1.0
176
     1
 90
        0
176
     1
 62
    18
420
        0
176
     1
 90
       50
176
     1
 90
        3
176
     1
 62
     5
420
      255
176
     1
290
     0
176
     1
 90
       50
176
     1
 90
       50
176
     1
 90
       50
176
     1
290
     0
176
     1
 90
       50
176
     1
 62
   256
176
     0
 40
1.0
176
     0
 90
        2
176
     1
  1
strokes_ogs.tif
176
     1
290
     0
176
     1
 40
1.0
176
     1
 40
1.0
176
     1
  0
VISUALSTYLE
  5
3C
102
{ACAD_REACTORS
330
29
102
}
330
29
100
AcDbVisualStyle
  2
X-Ray
 70
    25
177
     3
291
     0
 70
    58
 90
        2
176
     1
 90
        2
176
     1
 90
        1
176
     1
 90
        1
176
     1
 40
0.5
176
     1
 40
30.0
176
     1
 62
     7
420
 16777215
176
     1
 90
        1
176
     1
 90
        0
176
     1
 62
     7
176
     1
 62
   257
176
     1
 90
        1
176
     1
 90
        1
176
     1
 40
1.0
176
     1
 90
        8
176
     1
 62
     7
176
     1
 40
1.0
176
     1
 90
        1
176
     1
 90
        6
176
     1
 90
        2
176
     1
 62
     7
176
     1
 90
        3
176
     1
 90
        0
176
     1
 90
        0
176
     1
290
     0
176
     1
 90
       13
176
     1
 40
0.0
176
     1
 90
        0
176
     1
290
     0
176
     1
290
     1
176
     1
290
     1
176
     1
290
     0
176
     1
290
     0
176
     1
290
     0
176
     1
290
     0
176
     1
290
     0
176
     1
290
     0
176
     1
 90
       50
176
     1
 40
0.0
176
     1
 40
1.0
176
     1
 90
        0
176
     1
 62
    18
420
        0
176
     1
 90
       50
176
     1
 90
        3
176
     1
 62
     5
420
      255
176
     1
290
     0
176
     1
 90
       50
176
     1
 90
       50
176
     1
 90
       50
176
     1
290
     0
176
     1
 90
       50
176
     1
 62
   256
176
     0
 40
1.0
176
     0
 90
        2
176
     1
  1
strokes_ogs.tif
176
     1
290
     0
176
     1
 40
1.0
176
     1
 40
1.0
176
     1
  0
DICTIONARYVAR
  5
B1
102
{ACAD_REACTORS
330
AC
102
}
330
AC
100
DictionaryVariables
280
     0
  1
1:1
  0
DICTIONARYVAR
  5
AE
102
{ACAD_REACTORS
330
AC
102
}
330
AC
100
DictionaryVariables
280
     0
  1
STANDARD
  0
DICTIONARYVAR
  5
AD
102
{ACAD_REACTORS
330
AC
102
}
330
AC
100
DictionaryVariables
280
     0
  1
STANDARD
  0
DICTIONARYVAR
  5
AF
102
{ACAD_REACTORS
330
AC
102
}
330
AC
100
DictionaryVariables
280
     0
  1
Imperial24
  0
DICTIONARYVAR
  5
B0
102
{ACAD_REACTORS
330
AC
102
}
330
AC
100
DictionaryVariables
280
     0
  1
Imperial24
  0
DICTIONARY
  5
1A
330
19
100
AcDbDictionary
280
     1
281
     1
  3
BUMPTILE
360
1C
  3
DIFFUSETILE
360
1B
  3
OPACITYTILE
360
1F
  3
REFLECTIONTILE
360
1E
  3
REFRACTIONTILE
360
20
  3
SPECULARTILE
360
1D
  0
DICTIONARY
  5
12
330
11
100
AcDbDictionary
280
     1
281
     1
  3
BUMPTILE
360
14
  3
DIFFUSETILE
360
13
  3
OPACITYTILE
360
17
  3
REFLECTIONTILE
360
16
  3
REFRACTIONTILE
360
18
  3
SPECULARTILE
360
15
  0
DICTIONARY
  5
22
330
21
100
AcDbDictionary
280
     1
281
     1
  3
BUMPTILE
360
24
  3
DIFFUSETILE
360
23
  3
OPACITYTILE
360
27
  3
REFLECTIONTILE
360
26
  3
REFRACTIONTILE
360
28
  3
SPECULARTILE
360
25
  0
DICTIONARY
  5
B2
330
65
100
AcDbDictionary
280
     1
281
     1
  3
ACAD_ROUNDTRIP_2008_TABLESTYLE_CELLSTYLEMAP
360
B3
  0
XRECORD
  5
1C
102
{ACAD_REACTORS
330
1A
102
}
330
1A
100
AcDbXrecord
280
     1
270
     1
271
     1
  0
XRECORD
  5
1B
102
{ACAD_REACTORS
330
1A
102
}
330
1A
100
AcDbXrecord
280
     1
270
     1
271
     1
  0
XRECORD
  5
1F
102
{ACAD_REACTORS
330
1A
102
}
330
1A
100
AcDbXrecord
280
     1
270
     1
271
     1
  0
XRECORD
  5
1E
102
{ACAD_REACTORS
330
1A
102
}
330
1A
100
AcDbXrecord
280
     1
270
     1
271
     1
  0
XRECORD
  5
20
102
{ACAD_REACTORS
330
1A
102
}
330
1A
100
AcDbXrecord
280
     1
270
     1
271
     1
  0
XRECORD
  5
1D
102
{ACAD_REACTORS
330
1A
102
}
330
1A
100
AcDbXrecord
280
     1
270
     1
271
     1
  0
XRECORD
  5
14
102
{ACAD_REACTORS
330
12
102
}
330
12
100
AcDbXrecord
280
     1
270
     1
271
     1
  0
XRECORD
  5
13
102
{ACAD_REACTORS
330
12
102
}
330
12
100
AcDbXrecord
280
     1
270
     1
271
     1
  0
XRECORD
  5
17
102
{ACAD_REACTORS
330
12
102
}
330
12
100
AcDbXrecord
280
     1
270
     1
271
     1
  0
XRECORD
  5
16
102
{ACAD_REACTORS
330
12
102
}
330
12
100
AcDbXrecord
280
     1
270
     1
271
     1
  0
XRECORD
  5
18
102
{ACAD_REACTORS
330
12
102
}
330
12
100
AcDbXrecord
280
     1
270
     1
271
     1
  0
XRECORD
  5
15
102
{ACAD_REACTORS
330
12
102
}
330
12
100
AcDbXrecord
280
     1
270
     1
271
     1
  0
XRECORD
  5
24
102
{ACAD_REACTORS
330
22
102
}
330
22
100
AcDbXrecord
280
     1
270
     1
271
     1
  0
XRECORD
  5
23
102
{ACAD_REACTORS
330
22
102
}
330
22
100
AcDbXrecord
280
     1
270
     1
271
     1
  0
XRECORD
  5
27
102
{ACAD_REACTORS
330
22
102
}
330
22
100
AcDbXrecord
280
     1
270
     1
271
     1
  0
XRECORD
  5
26
102
{ACAD_REACTORS
330
22
102
}
330
22
100
AcDbXrecord
280
     1
270
     1
271
     1
  0
XRECORD
  5
28
102
{ACAD_REACTORS
330
22
102
}
330
22
100
AcDbXrecord
280
     1
270
     1
271
     1
  0
XRECORD
  5
25
102
{ACAD_REACTORS
330
22
102
}
330
22
100
AcDbXrecord
280
     1
270
     1
271
     1
  0
CELLSTYLEMAP
  5
B3
102
{ACAD_REACTORS
330
B2
102
}
330
B2
100
AcDbCellStyleMap
 90
        3
300
CELLSTYLE
  1
TABLEFORMAT_BEGIN
 90
        5
170
     1
 91
        0
 92
    32768
 62
   257
 93
        1
300
CONTENTFORMAT
  1
CONTENTFORMAT_BEGIN
 90
        0
 91
        0
 92
      512
 93
        0
300

 40
0.0
140
1.0
 94
        5
 62
     0
340
55
144
0.25
309
CONTENTFORMAT_END
171
     0
 94
        0
309
TABLEFORMAT_END
  1
CELLSTYLE_BEGIN
 90
        1
 91
        1
300
_TITLE
309
CELLSTYLE_END
300
CELLSTYLE
  1
TABLEFORMAT_BEGIN
 90
        5
170
     1
 91
        0
 92
        0
 62
   257
 93
        1
300
CONTENTFORMAT
  1
CONTENTFORMAT_BEGIN
 90
        0
 91
        0
 92
      512
 93
        0
300

 40
0.0
140
1.0
 94
        5
 62
     0
340
55
144
0.18
309
CONTENTFORMAT_END
171
     0
 94
        0
309
TABLEFORMAT_END
  1
CELLSTYLE_BEGIN
 90
        2
 91
        1
300
_HEADER
309
CELLSTYLE_END
300
CELLSTYLE
  1
TABLEFORMAT_BEGIN
 90
        5
170
     1
 91
        0
 92
        0
 62
   257
 93
        1
300
CONTENTFORMAT
  1
CONTENTFORMAT_BEGIN
 90
        0
 91
        0
 92
      512
 93
        0
300

 40
0.0
140
1.0
 94
        2
 62
     0
340
55
144
0.18
309
CONTENTFORMAT_END
171
     0
 94
        0
309
TABLEFORMAT_END
  1
CELLSTYLE_BEGIN
 90
        3
 91
        2
300
_DATA
309
CELLSTYLE_END
  0
ENDSEC
  0
EOF
